<svg width="144" height="99.999" viewBox="0 0 38.1 26.458" xmlns="http://www.w3.org/2000/svg"><defs><clipPath id="a"><path d="M299.55 306.48h48.113v-48.984H299.55z" clip-rule="evenodd"/></clipPath><clipPath id="b"><path d="M0 0h612v792H0z"/></clipPath><clipPath id="c"><path d="M299.55 306.48h48.113v-48.984H299.55z" clip-rule="evenodd"/></clipPath><clipPath id="d"><path d="M0 0h612v792H0z"/></clipPath></defs><path fill="none" paint-order="markers stroke fill" d="M-.043.04h38.1v26.458h-38.1z"/><path d="M21.531 22.939c-5.943.114-10.516-1.817-11.172-5.707C9.51 12.2 14.565 5.282 21.697 6.126c4.863.575 8.595 7.047 7.82 11.528-.632 3.66-4.714 5.222-7.985 5.285z" fill="#d0f1f6"/><path d="M22.099 22.943c5.564.115 9.847-1.838 10.46-5.773.795-5.091-3.938-12.09-10.615-11.236-4.553.582-8.048 7.13-7.323 11.662.593 3.704 4.414 5.283 7.478 5.347z" fill="#e6f8fa"/><path d="M23.383 22.939c-6.92.133-12.246-2.116-13.01-6.645-.987-5.86 4.898-13.915 13.202-12.932 5.662.67 10.009 8.206 9.107 13.422-.737 4.263-5.49 6.08-9.3 6.154z" fill="#d0f1f6" opacity=".201"/><path d="M24.045 22.939c6.48.134 11.466-2.14 12.18-6.722.926-5.928-4.585-14.077-12.36-13.083-5.302.678-9.371 8.302-8.526 13.58.69 4.312 5.14 6.15 8.706 6.225z" fill="#e6f8fa" opacity=".201"/><path d="M9.345 20.521c.165-.31-.195-.34-.391-.276-.334.108-.179-.351.201-.559.38-.207.346-.558.121-.57-.224-.01-.587.179-.483-.454.103-.633-.415-.599-.628-.334-.213.265.029.662-.029.835-.057.172-.748-.121-.863.259-.115.38.426.54.576.702s.166.426-.064.219-.426-.138-.443.063c-.017.202.448.95 1.048.938.426-.007.852-.628.955-.823z" fill="#4a88cf"/><path d="M8.375 18.826a.06.06 0 0 0-.059.06v1.01a2.935 2.935 0 0 0-.376-.418.06.06 0 0 0-.049-.017.06.06 0 0 0-.033.103c.218.21.277.277.453.527a.06.06 0 0 0 .006.006v.863a2.947 2.947 0 0 0-.377-.416.06.06 0 0 0-.043-.018.06.06 0 0 0-.04.103c.219.21.278.276.454.527a.06.06 0 0 0 .006.006v2.153a.06.06 0 1 0 .118 0v-2.168a.06.06 0 0 0 .001-.003s.25-.352.407-.503l.168-.162a.06.06 0 0 0-.041-.103.06.06 0 0 0-.042.018l-.167.16a3.245 3.245 0 0 0-.326.393v-.853a.06.06 0 0 0 .001-.003s.25-.353.408-.504l.167-.161a.06.06 0 0 0-.048-.103.06.06 0 0 0-.035.018l-.167.16a3.247 3.247 0 0 0-.326.393v-1.008a.06.06 0 0 0-.06-.06z" color="#000" fill="#306db3" style="font-feature-settings:normal;font-variant-alternates:normal;font-variant-caps:normal;font-variant-ligatures:normal;font-variant-numeric:normal;font-variant-position:normal;isolation:auto;mix-blend-mode:normal;shape-padding:0;text-decoration-color:#000;text-decoration-line:none;text-decoration-style:solid;text-indent:0;text-orientation:mixed;text-transform:none;white-space:normal"/><path d="M21.816 21.947v.985h1.433v-.985z" fill="#fff" paint-order="stroke fill markers"/><path d="M22.533 9.701s-1.136.37-1.136 4.013v8.23h2.272v-8.23c0-3.643-1.136-4.013-1.136-4.013z" fill="#fff"/><path d="M21.399 20.934h2.272v1.01h-2.272z" fill="#ccc" paint-order="stroke fill markers"/><path d="M22.049 22.103v.828h.973v-.828z" fill="#b3b3b3" paint-order="stroke fill markers"/><path d="M21.628 23.228v-.3h1.812v.3z" fill="#306db3" paint-order="stroke fill markers"/><path d="M22.533 9.7s-.568.187-.9 1.584h1.8c-.332-1.397-.9-1.584-.9-1.584z" fill="#306db3"/><path d="M22.533 9.701s-1.136.37-1.136 4.013v7.22h.673v-7.22c0-2.332.464-3.32.8-3.73-.189-.232-.337-.283-.337-.283z" opacity=".1"/><g><path d="M14.8 21.947v.985h1.433v-.985z" fill="#fff" paint-order="stroke fill markers"/><path d="M15.517 9.701s-1.136.37-1.136 4.013v8.23h2.272v-8.23c0-3.643-1.136-4.013-1.136-4.013z" fill="#fff"/><path d="M14.383 20.934h2.272v1.01h-2.272z" fill="#ccc" paint-order="stroke fill markers"/><path d="M15.033 22.103v.828h.974v-.828z" fill="#b3b3b3" paint-order="stroke fill markers"/><path d="M14.612 23.228v-.3h1.812v.3z" fill="#306db3" paint-order="stroke fill markers"/><path d="M15.517 9.7s-.568.187-.9 1.584h1.8c-.332-1.397-.9-1.584-.9-1.584z" fill="#306db3"/><path d="M15.517 9.701s-1.136.37-1.136 4.013v7.22h.673v-7.22c0-2.332.465-3.32.8-3.73-.189-.232-.337-.283-.337-.283z" opacity=".1"/></g><g transform="matrix(.44822 0 0 .44822 -71.886 -45.569)"><path d="M200.42 148.79v2.315h4.813v-2.315z" fill="#fff" paint-order="stroke fill markers"/><path d="M201.19 149.16v1.946h3.27v-1.946z" fill="#b3b3b3" paint-order="stroke fill markers"/><path d="M199.79 151.81v-.704h6.087v.704z" fill="#306db3" paint-order="stroke fill markers"/><path d="M202.83 109.9s-4.872.917-4.872 9.958v18.553h9.744v-18.553c0-9.04-4.872-9.958-4.872-9.958z" fill="#4a88cf"/><path d="M202.83 109.9s-4.872.917-4.872 9.958v18.553h2.373v-18.553c0-6.139 2.243-8.528 3.685-9.432-.682-.427-1.186-.526-1.186-.526z" fill="#79a6db"/><path d="M202.83 121.79s-3.815.869-3.815 9.43v17.57h7.63v-17.57c0-8.561-3.815-9.43-3.815-9.43z" fill="#fff"/><g fill="#306db3"><path d="M206.64 135.77c1.594 1.632 4.875 5.452 4.875 6.795v4.398h-4.875zM199.01 135.77c-1.594 1.632-4.875 5.452-4.875 6.795v4.398h4.875z"/><path d="M202.83 127.44c-1.172 0-1.83.603-2.13 1.191-.302.589-.294 1.17-.294 1.17a.265.265 0 1 0 .53-.004s0-.464.234-.924c.234-.459.658-.904 1.66-.904 1.002 0 1.424.445 1.658.904s.235.924.235.924a.265.265 0 1 0 .529.004s.008-.581-.293-1.17c-.3-.588-.957-1.191-2.129-1.191z" color="#000" style="font-feature-settings:normal;font-variant-alternates:normal;font-variant-caps:normal;font-variant-ligatures:normal;font-variant-numeric:normal;font-variant-position:normal;isolation:auto;mix-blend-mode:normal;shape-padding:0;text-decoration-color:#000;text-decoration-line:none;text-decoration-style:solid;text-indent:0;text-orientation:mixed;text-transform:none;white-space:normal" paint-order="stroke fill markers"/><path d="M202.83 121.79s-.927.221-1.867 1.46h3.735c-.94-1.239-1.868-1.46-1.868-1.46z"/></g><rect x="199.01" y="146.42" width="7.63" height="2.376" ry="0" fill="#ccc" paint-order="stroke fill markers"/><path d="M202.83 121.79s-3.815.869-3.815 9.43v15.194h2.26V131.22c0-5.48 1.56-7.8 2.685-8.767-.633-.543-1.13-.663-1.13-.663z" opacity=".1"/><g fill="#4a88cf"><g clip-path="url(#a)" transform="matrix(.0632 0 0 -.0632 182.488 159.938)"><g clip-path="url(#b)"><g clip-path="url(#c)"><g clip-path="url(#d)"><path d="M337.49 306.48c-10.172 0-12.08-14.514-6.358-14.514s16.53 14.514 6.358 14.514zM320.601 293.772c3.047-.186 6.39 11.648.663 10.904-5.724-.744-3.71-10.718-.663-10.904zM306.639 286.418c2.166.956.279 10.302-3.406 7.753-3.683-2.55 1.239-8.708 3.406-7.753zM312.74 291.303c2.58.527 2.72 11.127-1.88 9.226-4.6-1.902-.697-9.754 1.88-9.226zM326.206 267.586c.458-3.502-2.564-5.231-5.524-2.974-9.42 7.187 15.6 10.771 13.95 20.59-1.368 8.149-26.327 5.64-29.169-7.111-1.923-8.624 7.92-20.59 18.19-20.59 5.052 0 10.88 4.571 11.97 10.36.832 4.416-9.799 2.647-9.417-.275z"/></g></g></g></g></g></g><g><path d="M11.481 15.68c.014.12.029.255.042.396l.412-.031.266-.34-.72-.026z" fill="#9bdce2"/><path d="M11.481 15.68c.01.075.018.156.027.24.195-.003.386-.004.528-.004l.165-.21-.72-.027z" fill="#61c8d2"/><path d="M10.75 22.38v.451h.452v-.452zM9.598 21.913l-.218.34.34.217.217-.34z" fill="#ffb978"/><path d="M10.736 19.43l-1.223 2.517.4.275.92-1.466z" fill="#61c8d2"/><path d="M10.292 17.66s0 .578.126.793c.126.215.156.31.156.31l.14 3.677h.514l-.031-1.93.2-.387.513-2.254z" fill="#9bdce2"/><g fill="#ffb978"><path d="M12.887 16.373c.112.054.583-.02.636-.073.052-.053.188-.446.173-.488-.016-.042-.058-.052-.058-.052l-.288.346h-.723c.022.161.144.21.26.267z"/><path d="M12.659 15.66c.298.087.33.35.33.35l-.682.047c-.365-.22.236-.43.352-.397zM11.731 12.653s.034-.024.103.17c.068.194-.022.578-.022.578l-.003.225h-.11s-.22.38-.267.395c-.047.016-.22-.084-.22-.084l-.183.31-.578-.076s.3-.575.331-.873c.032-.3.163-.829.55-.75.388.079.399.105.399.105z"/></g><path d="M10.539 13.401s.162-.115.162-.508.257-.77.713-.718c.456.052.996.681.996.681s-.32.105-.64-.01c-.32-.115-.377.026-.382.189-.005.162-.23.246-.23.246s.162-.184.025-.356c-.136-.173-.293-.048-.277.23.015.278-.037.388-.367.246z" fill="#306db3"/><path d="M10.606 14.067a1.39 1.39 0 0 0-.217.018c-.582.095-.388 1.227-.252 2.023.137.797.042 1.667.042 1.667l1.803.241c-.283-1.501-.261-1.125-.356-2.657-.06-.986-.517-1.294-1.02-1.292z" fill="#4a88cf"/><path d="M13.51 16.046l.92-1.591-.222.059-.836 1.448h-1.477l.052.195h1.504z" fill="#306db3"/><path d="M10.346 14.217s.35-.162.57.529c.219.69.503 1.48.503 1.48l1.106-.066.309.301s-1.886.334-1.96.31c-.073-.025-1.146-2.367-.528-2.554z" fill="#9bdce2"/><path d="M10.283 14.29a.305.305 0 0 0-.049.005c-.344.455.575 2.451.643 2.474.073.024 1.959-.31 1.959-.31l-.192-.186c-.392.053-1.152.15-1.36.138-.285-.016-.326-.951-.643-1.78-.1-.26-.228-.346-.358-.342z" fill="#61c8d2"/><path d="M11.579 22.957c-.31-.011-.216-.206-.51-.206s-.334.002-.383.083c-.064.106-.088.32-.023.396.208.105 1.365.025 1.376-.054 0-.295-.233-.209-.46-.219zM10 22.805c-.255-.176-.07-.29-.317-.448-.248-.157-.284-.177-.37-.135-.11.055-.245.223-.23.322.118.2 1.032.688 1.083.627.159-.249-.076-.297-.165-.366z" fill="#4a88cf"/></g><g><path d="M21.349 10.692s.281-.482.54-.804c.26-.323.512-.264.553-.382.04-.119.2-.452.474-.06s.39.425.537.808c.147.382-.125.608-.125.608s-.236-.252-.54-.315c-.304-.063-.262.12-.383.126s-.183-.257-.361-.21c-.179.047-.048.152-.226.215s-.3-.093-.47.014z" fill="#4a88cf"/><path d="M24.706 18.912s0 .123.27.163c.27.039.998.134.986-.067-.012-.2-1.256-.096-1.256-.096z" fill="#306db3"/><path d="M25.445 18.311l.015.353-.282.051.026.145.6.015-.025-.512z" fill="#ffb978"/><path d="M24.706 18.912s.255-.174.43-.222c.174-.048.133.107.266.133.134.026.286.045.33-.026.045-.07.063-.1.156-.081.093.018.074.292.074.292s-.993.019-1.256-.096z" fill="#4a88cf"/><path d="M26.826 18.267l.166.228-.042.19.096.11.35-.295-.257-.36z" fill="#ffb978"/><path d="M25.795 14.148s.126 1.205.262 1.687 1.174 2.348 1.174 2.348l-.388.23-1.174-1.917s-.178-1.793.126-2.348z" fill="#61c8d2"/><path d="M25.768 13.493s.093.198.114.487c.02.288-.189.86-.168 1.624.021.766.095 1.436.105 2.055.01.618.01.76.01.76l-.434-.084-.813-4.87s.873-.123 1.186.028z" fill="#9bdce2"/><path d="M25.176 9.477s-.1.167-.133.322c-.033.156-.03.212-.03.212l-.059.196.093.037s.003.304.192.304c.19 0-.096.304-.096.304s.319.178.549-.382-.004-1.097-.516-.993z" fill="#ffb978"/><path d="M25.84 13.542s-.653-.051-1.008-.037c-.356.015-.386.052-.386.052s.252-.704.304-1.23c.052-.526-.193-.845.074-1.193.267-.349.712-.556 1.082-.082s-.089.66-.133 1.312c-.044.652.037.77.067 1.178z" fill="#4a88cf"/><path d="M25.172 9.325s-.184.33.152.403c.335.074.126.304.126.304s.178-.183.225-.057c.047.125-.047.382-.178.366l-.131-.015s.168.084.063.246-.268.346-.268.346.3-.073.55.11c.252.183.258.597.258.597.463.433.643-1.421.195-2.135-.304-.484-.963-.39-.992-.165z" fill="#306db3"/><path d="M24.885 10.871l-.45-.084c-.195-.037-.478-.068-.478-.068s-.712-.629-.87-.75l-.157-.12s.178-.136.073-.225-.23-.114-.23-.114-.084-.044-.168-.075c-.132-.017-.195.033-.233.128-.31.141-.056.415.291.447 0 0 1.095 1.144 1.19 1.191.094.047 1.043.22 1.043.22s.031-.456-.011-.55z" fill="#ffb978"/><path d="M27.019 19.105c.251-.105.75-.383.583-.574-.113-.166-1.2.47-1.2.47.152.196.453.169.617.104z" fill="#306db3"/><path d="M26.404 19.002s.228-.102.39-.198c.164-.095.134-.217.262-.263.128-.046.139-.019.196-.065.057-.047.05-.126.14-.158.088-.032.213.213.213.213.026.01-.35.291-.656.46-.103.057-.352.037-.545.01z" fill="#4a88cf"/><path d="M23.065 9.907l-.38.202s1.041 1.12 1.145 1.167c.103.046 1.719.563 1.972.425s.218-.673-.374-.805-1.3-.144-1.472-.201c-.172-.058-.89-.788-.89-.788z" fill="#9bdce2"/><path d="M23.303 10.764c.245.254.48.491.526.512.103.046 1.719.563 1.972.425a.276.276 0 0 0 .119-.132l-1.98-.36z" fill="#61c8d2"/></g><g paint-order="stroke fill markers"><path d="M24.897 19.23l-2.147 4.165h.207l.126-.246h1.23l-.127.246h.206l2.148-4.166h-.207l-.247.479h-1.229l.247-.479zm-.147.685h1.23l-.31.601h-1.23zm-.416.808h1.228l-.31.602h-1.228zm-.417.809h1.229l-.31.601h-1.23zm-.417.808h1.23l-.311.602H23.19zM28.26 19.23l2.147 4.166H30.2l-.126-.246h-1.23l.127.246h-.206l-2.148-4.166h.207l.247.48H28.3l-.247-.48zm.146.686h-1.229l.31.601h1.23zm.417.809h-1.229l.31.601h1.23zm.417.808h-1.229l.31.602h1.23zm.417.808h-1.23l.31.602h1.23z" fill="#306db3"/><path fill="#fff" d="M24.316 19.136h4.373v.374h-4.373z"/></g><g><path d="M31.183 21.927l.19.355-.355.19-.19-.355z" fill="#ffb978"/><path d="M30.707 22.787c.269-.156.093-.284.352-.422s.296-.155.378-.107c.107.063.229.241.206.339-.133.19-1.082.608-1.128.543-.14-.26.098-.29.192-.353z" fill="#4a88cf"/><path d="M28.856 22.326v.406h-.406v-.406z" fill="#ffb978"/><path d="M28.108 22.841c.279-.01.193-.186.457-.186s.3.002.345.075c.058.095.079.288.02.356-.186.095-1.226.022-1.235-.049 0-.265.209-.187.413-.196z" fill="#4a88cf"/><path d="M28.16 14.08l-.13.26.001.019.03.148-.402.167-.084-.126-.013-.015-.275-.092-.174.173.092.276.015.013.126.084-.166.401-.149-.03h-.02l-.26.13v.244l.26.13.02-.001.149-.03.166.402-.126.084-.015.013-.092.275.174.174.275-.092.013-.015.084-.126.402.166-.03.149-.002.02.13.26h.246l.13-.26-.002-.02-.03-.149.402-.166.084.126.013.015.276.092.173-.174-.092-.275-.015-.013-.126-.084.167-.402.148.03.02.002.26-.13v-.246l-.26-.13-.02.002-.148.03-.167-.402.126-.084.015-.013.092-.276-.173-.173-.276.092-.013.015-.084.126-.402-.167.03-.148.002-.02-.13-.26zm.122 1.014a.516.516 0 0 1 .516.516.516.516 0 0 1-.516.516.516.516 0 0 1-.516-.516.516.516 0 0 1 .516-.516z" fill="#306db3"/><path d="M29.694 19.282l-.587 1.384s-.062.482-.125 1.017c-.063.534-.116.828-.116.828h-.43l.105-2.17.818-2.5z" fill="#61c8d2"/><path d="M30.573 17.812s.13.24.03.57c-.1.33-.212.642-.212.642l.104 1.004.789 2.021-.43.219-1.064-2.284s-.472-1.53-.482-1.792c-.01-.262-.01-.38-.01-.38z" fill="#9bdce2"/><path d="M30.728 13.211a2.086 2.086 0 0 0-.285.032l-.119.404s-.14.048-.185.189c-.044.14.008.215.008.215l.214.056-.008.396s.062.045.205.07v.378h.545c.215-.664.391-1.747-.375-1.74z" fill="#ffb978"/><path d="M30.223 12.976s-.166.196.07.326c.238.13.394-.115.534.155.141.271-.014.775-.014.775s-.152.067-.193-.052c-.04-.118-.167-.226-.297-.178-.13.048.049.753.049.753s.533-.012.596-.304c.063-.293.097-.541.182-.567.085-.026.137-.019.137-.019s-.063.39-.06.59l.004.2s.267-.156.256-.549c-.011-.393-.004-.949-.004-.949-.314-.082-.555-.336-.837-.122-.198.036-.423.048-.423-.06z" fill="#306db3"/><path d="M29.296 17.673h1.26s.511-.89.815-1.66c.304-.771-.03-1.342-.749-1.15-.719.194-1.267 1.92-1.326 2.81z" fill="#4a88cf"/><path d="M30.29 15.755s-1.208 1.097-1.749 1.304-.645.211-.645.211-.025.078.2.034l.227-.045s-.178.086-.367.111c-.19.026-.286 0-.3.045-.015.044.422.104.94-.03.52-.133 2.02-1.282 2.02-1.282z" fill="#ffb978"/><path fill="#61c8d2" paint-order="stroke fill markers" d="M29.201 17.66h1.48v.218H29.2z"/><path d="M28.704 16.942l.106.39s1.357-.674 1.813-1.073c.455-.398.837-.626.707-.991-.13-.366-.724.17-.976.39s-1.154 1.065-1.65 1.284z" fill="#9bdce2"/><path d="M31.3 15.203c-.05.148-.171.377-.464.687-.443.469-1.601 1.056-2.068 1.278l.043.162s1.358-.675 1.813-1.074c.456-.398.838-.626.708-.992a.228.228 0 0 0-.033-.061z" fill="#61c8d2"/></g><g><path d="M7.956 19.71c.212-.4-.252-.437-.504-.356-.43.14-.23-.452.26-.719.488-.267.444-.719.155-.734-.29-.014-.756.23-.623-.585.134-.815-.533-.771-.808-.43-.274.34.037.852-.037 1.075-.074.222-.963-.156-1.112.333s.549.697.742.904.215.549-.082.282c-.296-.267-.548-.178-.57.082-.023.26.576 1.222 1.348 1.208.55-.01 1.097-.81 1.23-1.06z" fill="#00a3b2"/><path d="M6.708 17.543a.06.06 0 0 0-.007 0 .06.06 0 0 0-.052.06v1.352a3.75 3.75 0 0 0-.513-.577.06.06 0 0 0-.049-.017.06.06 0 0 0-.033.102c.28.271.358.358.585.681a.06.06 0 0 0 .01.01v1.172a3.75 3.75 0 0 0-.513-.577.06.06 0 0 0-.043-.018.06.06 0 0 0-.04.103c.281.271.36.358.586.681a.06.06 0 0 0 .01.01v2.78a.06.06 0 1 0 .118 0v-2.797a.06.06 0 0 0 .006-.008s.321-.453.526-.651l.216-.208a.06.06 0 0 0-.042-.102.06.06 0 0 0-.04.017l-.216.208c-.17.164-.352.409-.45.544v-1.157a.06.06 0 0 0 .006-.007s.321-.453.526-.651l.216-.208a.06.06 0 0 0-.048-.102.06.06 0 0 0-.035.016l-.215.209c-.17.164-.352.409-.45.544v-1.349a.06.06 0 0 0-.06-.06z" color="#000" fill="#006d77" style="font-feature-settings:normal;font-variant-alternates:normal;font-variant-caps:normal;font-variant-ligatures:normal;font-variant-numeric:normal;font-variant-position:normal;isolation:auto;mix-blend-mode:normal;shape-padding:0;text-decoration-color:#000;text-decoration-line:none;text-decoration-style:solid;text-indent:0;text-orientation:mixed;text-transform:none;white-space:normal"/></g><g><path d="M33.817 20.584c.194-.364-.23-.399-.46-.324-.393.127-.21-.413.236-.657.447-.243.406-.656.143-.67-.264-.013-.69.21-.569-.534.122-.744-.487-.704-.737-.392-.25.31.034.778-.034.98-.068.204-.88-.141-1.015.305-.135.447.5.636.677.826s.196.5-.075.257c-.27-.244-.5-.163-.52.074-.021.237.525 1.116 1.23 1.103.502-.01 1.002-.739 1.124-.968z" fill="#4a88cf"/><path d="M32.676 18.592a.07.07 0 0 0-.068.07v1.188a3.45 3.45 0 0 0-.443-.492.07.07 0 0 0-.057-.02.07.07 0 0 0-.04.121 3.295 3.295 0 0 1 .54.627v1.015a3.464 3.464 0 0 0-.443-.49.07.07 0 0 0-.05-.021.07.07 0 0 0-.046.12 3.294 3.294 0 0 1 .539.627v1.953c-.01.101.148.101.139 0v-1.97l.002-.003s.293-.414.478-.592l.197-.19a.07.07 0 0 0-.049-.12.07.07 0 0 0-.048.02l-.197.189c-.14.135-.283.325-.383.461v-1.002l.002-.004s.294-.415.478-.593l.197-.19a.07.07 0 1 0-.097-.099l-.197.19c-.14.134-.283.324-.383.46v-1.184a.07.07 0 0 0-.07-.071z" color="#000" fill="#306db3" style="font-feature-settings:normal;font-variant-alternates:normal;font-variant-caps:normal;font-variant-ligatures:normal;font-variant-numeric:normal;font-variant-position:normal;isolation:auto;mix-blend-mode:normal;shape-padding:0;text-decoration-color:#000;text-decoration-line:none;text-decoration-style:solid;text-indent:0;text-orientation:mixed;text-transform:none;white-space:normal"/></g></svg>