<svg width="144" height="99.999" viewBox="0 0 38.1 26.458" xmlns="http://www.w3.org/2000/svg"><path fill="none" paint-order="markers stroke fill" d="M0-.06h38.1v26.458H0z"/><path d="M19.929 23.377c-7.076.136-12.522-2.163-13.303-6.794-1.01-5.992 5.008-14.23 13.5-13.224 5.79.685 10.234 8.39 9.312 13.726-.754 4.359-5.613 6.218-9.509 6.292z" fill="#d0f1f6"/><path d="M20.604 23.382c6.626.138 11.725-2.188 12.456-6.873.945-6.062-4.69-14.395-12.64-13.379-5.421.694-9.583 8.49-8.719 13.886.706 4.41 5.256 6.29 8.903 6.366z" fill="#e6f8fa"/><path d="M20.657 5.841s.013.017.032.052c.028.054.071.149.106.292.035.144.061.337.057.585a2.5 2.5 0 0 1-.027.355c-.027.162-.078.266-.168.322a.28.28 0 0 1-.045.021l-.03.01-.024.006a.52.52 0 0 1-.031.005l-.031.003-.035.001h-.027a1.016 1.016 0 0 1-.126-.013 1.94 1.94 0 0 1-.187-.038c-.568-.145-.964-.115-.994.679.03.793.426.823.994.679.069-.018.13-.03.187-.04.046-.006.088-.01.126-.011h.062a.52.52 0 0 1 .062.008l.023.007c.01.003.022.006.031.01.016.006.03.013.045.021.144.089.188.303.195.677.011.661-.195.928-.195.928s.267.207.928.196c.374-.007.589-.051.677-.196a.275.275 0 0 0 .022-.044l.009-.03.006-.024.005-.031c0-.01.003-.02.004-.031a.371.371 0 0 0 0-.036v-.026a1.006 1.006 0 0 0-.012-.126 1.94 1.94 0 0 0-.039-.187c-.144-.569-.114-.964.68-.995.793.03.823.426.678.995-.017.069-.03.13-.038.187a1.026 1.026 0 0 0-.013.126v.026l.001.036.003.03a.52.52 0 0 0 .005.032c0 .008.004.015.006.023.003.01.006.022.01.031.006.016.013.03.021.044.088.145.302.189.677.196.661.011.928-.196.928-.196a4.175 4.175 0 0 0 0-.901V5.84z" fill="#4a88cf"/><path d="M25.217 5.837l-4.559.001s.013.017.032.052c.029.054.072.148.107.292.034.144.06.337.056.584-.003.14-.01.259-.026.356-.028.162-.079.266-.169.321a.281.281 0 0 1-.044.022l-.031.01c-.008.001-.015.004-.023.006a.52.52 0 0 1-.032.004l-.03.004h-.062a1.03 1.03 0 0 1-.126-.012 1.94 1.94 0 0 1-.188-.039c-.568-.144-.964-.114-.994.68.02.523.2.713.482.741.055-.286.29-.525.9-.565 1.66-.11-.092-1.68 2.975-1.68.699 0 1.276-.084 1.732-.213z" fill="#6b9dd7"/><path d="M23 7.945c-.946.047-1.232 1.531-1.615 1.883-.102.093-.31.128-.57.127-.057.307-.158.442-.158.442s.267.207.929.196c.374-.007.588-.051.676-.196a.275.275 0 0 0 .022-.043l.01-.032.006-.023.004-.031a.352.352 0 0 0 .005-.066v-.027a1.022 1.022 0 0 0-.012-.126 1.936 1.936 0 0 0-.04-.187c-.144-.568-.114-.964.68-.994.794.03.824.426.679.994-.018.069-.03.13-.039.187-.007.045-.01.088-.012.126v.062l.004.031.004.031c.001.008.005.016.007.023l.01.032c.006.015.012.03.02.043.089.145.303.189.678.196.66.011.928-.196.928-.196a4.173 4.173 0 0 0 0-.9v-.463c-.555-.4-1.2-.809-1.768-1.014A1.146 1.146 0 0 0 23 7.945z" fill="#3476c2"/><path d="M18.038 17.855s-.013-.017-.032-.052a1.207 1.207 0 0 1-.107-.292 2.321 2.321 0 0 1-.056-.585c.002-.14.01-.258.026-.355.028-.162.079-.266.169-.322a.283.283 0 0 1 .044-.021l.031-.01c.008-.001.015-.005.023-.006a.517.517 0 0 1 .032-.005l.03-.003.036-.001h.026c.039.002.08.005.126.013.057.008.119.02.188.038.568.145.964.115.994-.679-.03-.793-.426-.823-.994-.679-.07.018-.13.03-.188.039a1.015 1.015 0 0 1-.126.012H18.2a.532.532 0 0 1-.062-.008l-.024-.007c-.01-.003-.021-.005-.031-.009a.305.305 0 0 1-.044-.022c-.144-.088-.189-.302-.195-.677-.012-.66.195-.928.195-.928s-.267-.207-.928-.195c-.375.007-.59.05-.677.195a.285.285 0 0 0-.022.044l-.01.031c-.001.008-.004.015-.006.023l-.004.032c-.002.01-.004.02-.004.03v.036.026c0 .039.005.081.012.127.008.056.02.118.038.187.145.568.115.964-.679.994-.793-.03-.823-.426-.679-.994.018-.07.03-.13.04-.187.006-.046.01-.088.011-.127v-.026-.035l-.004-.031-.005-.032c-.001-.008-.004-.015-.006-.023l-.01-.03a.283.283 0 0 0-.021-.045c-.088-.144-.302-.188-.677-.195-.661-.012-.928.195-.928.195a4.175 4.175 0 0 0 0 .902v3.658z" fill="#4a88cf"/><path d="M14.407 13.098c-.66-.012-.928.195-.928.195a4.176 4.176 0 0 0 0 .902v.216c.833.73 3.001 2.316 3.58.433.208-.677.525-1.077.869-1.307.053-.167.11-.244.11-.244s-.267-.207-.928-.195c-.375.007-.59.05-.677.195a.287.287 0 0 0-.022.044l-.01.031-.006.024-.004.031-.003.03a.312.312 0 0 0-.002.036v.027c.002.038.006.08.013.126.008.057.02.118.038.187.145.568.115.964-.679.994-.793-.03-.823-.426-.678-.994.017-.069.03-.13.038-.187a1.006 1.006 0 0 0 .011-.188l-.003-.031-.005-.031-.006-.024-.01-.03a.284.284 0 0 0-.021-.045c-.088-.144-.302-.188-.677-.195z" fill="#6b9dd7"/><path d="M18.53 15.425c-.525.011-1.1.201-1.563.824-.799 1.075-2.634.954-3.488.83v.774l4.558-.002s-.012-.016-.032-.051a1.209 1.209 0 0 1-.106-.293 2.324 2.324 0 0 1-.056-.584c.002-.14.01-.258.026-.355.027-.162.078-.267.168-.322a.283.283 0 0 1 .045-.021l.03-.01.024-.006a.53.53 0 0 1 .031-.005c.01 0 .02-.003.031-.003l.036-.001h.026c.038.001.08.005.126.013.057.008.118.02.187.038.563.144.956.114.993-.657a3.227 3.227 0 0 0-1.036-.17z" fill="#3476c2"/><path d="M30.308 20.949s-.013-.017-.032-.052a1.207 1.207 0 0 1-.107-.292 2.32 2.32 0 0 1-.056-.584c.002-.14.01-.259.026-.356.027-.162.078-.266.169-.321a.293.293 0 0 1 .044-.022l.031-.01c.008-.001.015-.005.023-.006a.515.515 0 0 1 .031-.004l.031-.004h.062c.038 0 .08.005.126.012.057.008.118.02.187.038.569.145.965.115.995-.678-.03-.794-.426-.824-.995-.68-.069.018-.13.03-.187.04a1.015 1.015 0 0 1-.126.011l-.026.001-.036-.001a.521.521 0 0 1-.062-.008l-.023-.006-.031-.01a.304.304 0 0 1-.044-.021c-.145-.089-.189-.303-.195-.677-.012-.661.195-.929.195-.929s-.268-.206-.929-.195c-.374.007-.588.051-.677.195a.278.278 0 0 0-.021.044l-.01.032-.006.023a.526.526 0 0 0-.005.031c0 .01-.003.02-.003.031l-.001.035v.027c.002.038.005.08.013.126.008.057.02.118.038.187.145.568.115.964-.679.994-.793-.03-.823-.426-.679-.994.018-.069.03-.13.04-.187.006-.046.01-.088.011-.126v-.027-.035l-.004-.031a.52.52 0 0 0-.004-.031c-.001-.008-.005-.016-.007-.023-.003-.01-.005-.022-.009-.032a.314.314 0 0 0-.022-.044c-.088-.144-.302-.188-.676-.195-.662-.011-.929.195-.929.195a4.175 4.175 0 0 0 0 .902v3.658z" fill="#4a88cf"/><path d="M26.674 16.193c-.661-.012-.928.195-.928.195a4.176 4.176 0 0 0 0 .902v.432c.295-.004.639.104 1.027.43 1.15.968 2.976.384 3.213-1.387a2.05 2.05 0 0 0 .005-.506 2.247 2.247 0 0 0-.615-.066c-.375.007-.589.051-.677.195a.28.28 0 0 0-.022.044l-.01.032c0 .007-.004.015-.005.023a.526.526 0 0 0-.005.031l-.003.03-.001.036v.027c.001.038.005.08.012.126.009.057.021.118.039.187.145.568.115.964-.679.994-.794-.03-.824-.426-.679-.994.018-.069.03-.13.039-.187a1.014 1.014 0 0 0 .011-.188l-.003-.03a.586.586 0 0 0-.005-.032c0-.008-.004-.016-.006-.023l-.01-.032a.316.316 0 0 0-.021-.044c-.088-.144-.302-.188-.677-.195z" fill="#6b9dd7"/><path d="M30.77 18.536c-1.015 0-.58.82-1.459 1.459-.718.522-2.534.354-3.564.209v.743l4.558-.002s-.013-.016-.032-.052a1.208 1.208 0 0 1-.107-.292 2.32 2.32 0 0 1-.056-.584c.003-.14.01-.258.027-.355.027-.162.078-.267.168-.322a.291.291 0 0 1 .044-.021l.031-.01c.008-.001.015-.005.024-.006a.52.52 0 0 1 .03-.005c.01 0 .02-.003.032-.003l.035-.001h.026c.039.002.08.005.126.012.057.009.119.022.188.04.55.14.937.114.989-.606a2.47 2.47 0 0 0-.529-.15 3.196 3.196 0 0 0-.531-.054z" fill="#3476c2"/><g><path d="M27.514 20.664s0 .175.382.23c.382.056 1.413.19 1.396-.093-.016-.284-1.778-.137-1.778-.137z" fill="#306db3"/><path d="M28.56 19.814l.022.499-.399.073.037.205.85.02-.037-.723z" fill="#ffb978"/><path d="M27.514 20.664s.362-.246.608-.314c.247-.069.19.152.378.188.189.037.404.063.467-.036.063-.1.09-.142.22-.116.131.026.105.415.105.415s-1.406.026-1.778-.137z" fill="#4a88cf"/><path d="M30.515 19.75l.236.324-.06.268.136.156.496-.417-.365-.51z" fill="#ffb978"/><path d="M29.056 13.92s.178 1.706.37 2.389 1.662 3.324 1.662 3.324l-.549.326-1.662-2.715s-.252-2.538.179-3.324z" fill="#61c8d2"/><path d="M29.017 12.994s.132.28.162.688c.03.408-.267 1.217-.238 2.3.03 1.083.134 2.033.149 2.908.015.876.015 1.076.015 1.076l-.616-.119-1.15-6.892s1.235-.175 1.678.039z" fill="#9bdce2"/><path d="M28.18 7.309s-.142.236-.189.456c-.047.22-.042.3-.042.3l-.084.277.131.053s.005.43.273.43-.136.43-.136.43.45.252.776-.54-.005-1.553-.729-1.406z" fill="#ffb978"/><path d="M29.119 13.063s-.923-.073-1.427-.052c-.504.021-.545.073-.545.073s.356-.996.43-1.741c.073-.745-.273-1.196.105-1.69.377-.492 1.007-.786 1.531-.115s-.126.934-.188 1.857c-.063.924.052 1.091.094 1.669z" fill="#4a88cf"/><path d="M28.174 7.093s-.26.468.215.571c.475.104.178.43.178.43s.252-.259.319-.08c.067.177-.067.54-.252.518l-.186-.022s.238.119.09.349-.38.49-.38.49.424-.104.78.155c.356.26.363.846.363.846.657.612.911-2.013.277-3.023-.43-.684-1.363-.553-1.404-.234z" fill="#306db3"/><path d="M27.768 9.282l-.638-.119c-.275-.052-.676-.096-.676-.096s-1.008-.89-1.231-1.06L25 7.834s.253-.192.104-.319-.325-.16-.325-.16-.12-.062-.239-.107c-.186-.023-.276.047-.33.181-.44.2-.08.588.412.633 0 0 1.55 1.62 1.684 1.687.134.066 1.476.311 1.476.311s.045-.645-.014-.779z" fill="#ffb978"/><path d="M30.788 20.937c.356-.148 1.061-.542.826-.812-.16-.235-1.7.666-1.7.666.216.276.641.238.874.146z" fill="#306db3"/><path d="M29.918 20.791s.323-.144.553-.279c.23-.135.188-.307.37-.373.18-.065.196-.027.277-.092.081-.066.071-.179.197-.224.126-.044.303.303.303.303.036.012-.495.411-.929.65-.145.081-.498.053-.77.015z" fill="#4a88cf"/><path d="M25.192 7.918l-.537.285s1.473 1.587 1.619 1.652c.146.065 2.433.797 2.791.602s.31-.952-.529-1.14c-.838-.186-1.839-.203-2.083-.284-.244-.081-1.261-1.115-1.261-1.115z" fill="#9bdce2"/><path d="M25.529 9.13c.346.36.678.696.743.725.147.066 2.434.798 2.792.603a.39.39 0 0 0 .168-.188l-2.802-.51z" fill="#61c8d2"/></g><g><path d="M7.972 19.52l-.313.498.498.313.313-.498zM12.102 19.644l-.049.522.522.05.05-.523z" fill="#ffb978"/><path d="M9.432 14.036c-.086.456-.006.907.016 1.37.044.91-.26 1.54-.34 2.272l-1.347 2.13.609.275 1.22-1.719.462-.498c.524-1.204 1.157-2.148 1.475-3.536z" fill="#61c8d2"/><path d="M14.073 9.513s.055.005-.039.255-.504.559-.504.559l-.191.223-.11-.092s-.535.194-.596.17c-.06-.023-.15-.267-.15-.267l-.44.156-.514-.558s.779-.323 1.06-.595c.28-.271.853-.69 1.174-.288.322.402.31.437.31.437z" fill="#ffb978"/><path d="M12.26 9.261s.259.02.587-.371c.328-.393.899-.555 1.31-.122.412.433.426 1.511.426 1.511s-.407-.162-.63-.544c-.223-.382-.398-.289-.54-.131-.14.158-.435.053-.435.053s.315-.047.324-.334c.008-.286-.254-.292-.47-.001-.216.29-.36.356-.572-.06z" fill="#306db3"/><path d="M11.33 14.284l-1.843-.11c-.066.988 1.43 1.638 2.502 2.923l.06 2.64.626.079.191-2.243.137-1.041z" fill="#9bdce2"/><path d="M11.733 9.947a1.809 1.809 0 0 0-.268-.095c-.74-.2-1.118 1.246-1.384 2.263-.266 1.017-.845 1.998-.845 1.998.686.293 1.238.736 2.667.198.095-1.435.107-1.692.344-2.285.459-1.2.082-1.81-.514-2.079z" fill="#4a88cf"/><path d="M11.715 10.365s.583-.132.716.783c.132.915.218 1.966.218 1.966l1.313 1.68-.392.533s-1.633-1.595-1.72-1.64c-.087-.046-.95-3.215-.135-3.322z" fill="#9bdce2"/><path d="M8.334 20.613c-.128-.103-.02-.227-.262-.464s-.371-.23-.482-.174c-.143.072-.318.292-.298.42.07.117.527.613.757.613.273 0 .883.024.92-.02.097-.312-.452-.443-.635-.375zM13.1 20.435c-.4-.051-.254-.293-.634-.328-.38-.035-.434-.037-.507.062-.096.13-.152.405-.077.51.257.162 1.605.183 1.628.082.035-.383-.265-.298-.41-.326z" fill="#4a88cf"/><path d="M14.072 14.915s-.177.039-.25.286c-.074.247.251.512.402.642.151.13.504-.12.426-.395-.078-.276-.554-.36-.4-.4.17-.068.276-.28-.179-.133z" fill="#ffb978"/></g><g><path d="M3.289 17.53c-.2-.377.238-.412.476-.335.406.131.217-.427-.245-.68-.462-.251-.42-.678-.147-.692.273-.014.714.217.588-.553s.504-.728.763-.406c.259.322-.035.805.035 1.015.07.21.91-.147 1.05.315.14.462-.518.658-.7.854s-.203.518.077.266.518-.168.539.077c.02.245-.545 1.154-1.274 1.14-.518-.009-1.036-.764-1.162-1z" fill="#4a88cf"/><path d="M4.469 15.469a.072.072 0 0 1 .07.074v1.227c.143-.192.244-.3.458-.508a.072.072 0 0 1 .06-.02.072.072 0 0 1 .04.125 3.41 3.41 0 0 0-.551.64.072.072 0 0 1-.006.008v1.05c.142-.192.243-.3.457-.507a.072.072 0 0 1 .052-.022.072.072 0 0 1 .048.125 3.408 3.408 0 0 0-.55.64.072.072 0 0 1-.007.008v2.619a.072.072 0 1 1-.144 0V18.29a.072.072 0 0 1-.002-.003s-.304-.428-.495-.612l-.203-.197a.072.072 0 0 1 .05-.125.072.072 0 0 1 .05.022l.203.195c.145.14.294.337.397.478V17.01a.072.072 0 0 1-.002-.004s-.304-.428-.495-.613l-.203-.196a.072.072 0 0 1 .057-.124.072.072 0 0 1 .043.021l.203.196c.145.14.294.336.397.477v-1.225a.072.072 0 0 1 .073-.074z" color="#000" fill="#306db3" style="font-feature-settings:normal;font-variant-alternates:normal;font-variant-caps:normal;font-variant-ligatures:normal;font-variant-numeric:normal;font-variant-position:normal;isolation:auto;mix-blend-mode:normal;shape-padding:0;text-decoration-color:#000;text-decoration-line:none;text-decoration-style:solid;text-indent:0;text-orientation:mixed;text-transform:none;white-space:normal"/></g><g><path d="M4.8 15.637c-.312-.586.37-.641.74-.522.63.205.336-.663-.381-1.054-.718-.392-.653-1.055-.229-1.077s1.11.337.914-.86c-.196-1.195.783-1.13 1.185-.63.402.5-.054 1.25.054 1.577.11.326 1.414-.228 1.632.49s-.805 1.022-1.088 1.326-.315.805.12.413c.435-.391.805-.26.837.12.033.38-.845 1.793-1.979 1.772-.805-.014-1.61-1.187-1.805-1.555z" fill="#00a3b2"/><path d="M6.628 12.457a.087.087 0 0 1 .009 0 .087.087 0 0 1 .077.09v1.982c.245-.336.399-.505.753-.846a.087.087 0 0 1 .071-.026.087.087 0 0 1 .05.15c-.413.398-.527.526-.86 1a.087.087 0 0 1-.014.015v1.719c.245-.336.399-.505.753-.847a.087.087 0 0 1 .062-.025.087.087 0 0 1 .058.15c-.412.398-.526.526-.86 1a.087.087 0 0 1-.013.015v4.077a.087.087 0 1 1-.173 0v-4.104a.087.087 0 0 1-.01-.01s-.47-.666-.771-.956l-.316-.305a.087.087 0 0 1 .061-.15.087.087 0 0 1 .06.026l.315.304c.25.24.516.6.66.8v-1.698a.087.087 0 0 1-.009-.011s-.47-.665-.771-.956l-.316-.304a.087.087 0 0 1 .069-.15.087.087 0 0 1 .051.024l.316.306c.25.24.516.6.66.798v-1.979a.087.087 0 0 1 .088-.089z" color="#000" fill="#006d77" style="font-feature-settings:normal;font-variant-alternates:normal;font-variant-caps:normal;font-variant-ligatures:normal;font-variant-numeric:normal;font-variant-position:normal;isolation:auto;mix-blend-mode:normal;shape-padding:0;text-decoration-color:#000;text-decoration-line:none;text-decoration-style:solid;text-indent:0;text-orientation:mixed;text-transform:none;white-space:normal"/></g><g><path d="M34.735 17.39c.252-.474-.3-.519-.599-.422-.51.165-.273-.537.308-.854.581-.316.528-.853.185-.87-.343-.018-.898.272-.74-.696.16-.968-.633-.916-.958-.51-.326.404.043 1.012-.044 1.276-.088.264-1.145-.185-1.32.396-.177.58.65.827.88 1.073s.255.652-.097.335-.652-.211-.678.097c-.027.308.684 1.45 1.602 1.434.651-.011 1.302-.96 1.46-1.258z" fill="#4a88cf"/><path d="M33.251 14.799a.09.09 0 0 0-.09.092v1.544a4.487 4.487 0 0 0-.575-.64.09.09 0 0 0-.075-.025.09.09 0 0 0-.05.157 4.287 4.287 0 0 1 .7.815v1.32a4.506 4.506 0 0 0-.575-.637.09.09 0 0 0-.065-.027.09.09 0 0 0-.06.157 4.286 4.286 0 0 1 .7.815v2.54c-.01.132.193.132.182 0v-2.563l.002-.004s.382-.538.623-.77l.255-.247a.09.09 0 0 0-.062-.157.09.09 0 0 0-.063.027l-.256.246c-.182.176-.37.423-.5.6v-1.304l.003-.005s.383-.54.623-.771l.255-.246a.09.09 0 1 0-.125-.13l-.256.246c-.182.176-.37.422-.5.6V14.89a.09.09 0 0 0-.09-.092z" color="#000" fill="#306db3" style="font-feature-settings:normal;font-variant-alternates:normal;font-variant-caps:normal;font-variant-ligatures:normal;font-variant-numeric:normal;font-variant-position:normal;isolation:auto;mix-blend-mode:normal;shape-padding:0;text-decoration-color:#000;text-decoration-line:none;text-decoration-style:solid;text-indent:0;text-orientation:mixed;text-transform:none;white-space:normal"/></g><g><path d="M24.942 16.361s-.017.013-.052.032a1.207 1.207 0 0 1-.292.107 2.323 2.323 0 0 1-.584.056 2.5 2.5 0 0 1-.356-.026c-.162-.027-.266-.078-.321-.169a.293.293 0 0 1-.022-.044l-.01-.03c-.001-.009-.004-.016-.006-.024a.515.515 0 0 1-.004-.031l-.004-.031v-.036-.026c0-.038.005-.08.012-.126a1.99 1.99 0 0 1 .038-.187c.145-.569.115-.965-.678-.995-.794.03-.824.426-.68.995.018.069.03.13.04.187.006.045.01.088.011.126v.062a.527.527 0 0 1-.008.062l-.006.023-.01.031a.304.304 0 0 1-.022.044c-.088.145-.302.189-.676.195-.662.012-.929-.195-.929-.195s-.206.268-.195.929c.007.374.051.588.195.677a.278.278 0 0 0 .044.021l.032.01.023.006a.52.52 0 0 0 .031.005c.01 0 .02.003.031.003a.371.371 0 0 0 .035.001h.027c.038-.002.08-.005.126-.013.057-.008.118-.02.187-.038.568-.145.964-.115.994.679-.03.793-.426.823-.994.679a1.938 1.938 0 0 0-.187-.04 1.026 1.026 0 0 0-.126-.011h-.062l-.031.004a.52.52 0 0 0-.031.004c-.008.001-.016.005-.023.007-.011.003-.022.005-.032.009a.314.314 0 0 0-.044.021c-.144.089-.188.303-.195.677-.011.661.195.929.195.929.327.033.628.031.902 0h3.658z" fill="#4a88cf"/><path d="M22.659 14.832c-.794.03-.824.426-.679.994.018.07.03.13.039.187a1.018 1.018 0 0 1 .012.153v.035l-.004.031a.597.597 0 0 1-.004.031l-.007.023-.01.032a.302.302 0 0 1-.021.044c-.088.144-.302.188-.677.195-.661.011-.928-.195-.928-.195s-.128.17-.176.567c.514.153 1.453.416 2.041.163.761-.326.192-1.677 1.113-1.947-.084-.184-.289-.298-.699-.313z" fill="#6b9dd7"/><path d="M24.939 16.363s-.017.013-.052.032a1.211 1.211 0 0 1-.292.106c-.05.012-.11.022-.172.032.24 1.02.51 2.782-.315 3.353-.891.617-2.893.545-3.905.455.047.405.177.58.177.58.328.033.628.031.902 0h3.658z" fill="#3476c2"/></g></svg>