<svg width="426.142" height="250.001" viewBox="0 0 112.75 66.146" xmlns="http://www.w3.org/2000/svg"><g transform="translate(-392.742 -1130.92) scale(.56818)"><path d="M842.889 2056.973s-1.106-9.815 3.095-8.65c4.2 1.164 5.14-.056 6.024-3.827s3.04 1.165 4.421-3.216c1.382-4.381 1.603-4.215 3.925-2.274 2.32 1.941 3.15.166 5.692-2.052 2.543-2.218 7.627-1.553 4.974.998-2.653 2.551-8.07 4.603-7.737 7.487.332 2.883 2.432 4.769-.166 6.765-2.597 1.997-6.687-.665-7.13.222-.442.887 1.216 5.712-2.21 5.38-3.427-.333-3.482-1.387-6.411.498-2.93 1.886-4.256-.887-4.477-1.33z" fill="#acc8e9"/><path d="M869.713 2035.61a5.618 5.618 0 0 0-.506.033c-3.05 2.545-8.194 4.7-7.855 7.647.363 3.158 2.664 5.224-.182 7.41-2.845 2.187-7.324-.728-7.809.243-.484.972 1.332 6.257-2.421 5.892-3.754-.364-3.814-1.518-7.023.547-.203.13-.399.24-.588.333.626.868 1.905 1.96 4.035.588 2.93-1.885 2.985-.831 6.411-.499s1.769-4.491 2.211-5.379c.442-.887 4.532 1.775 7.13-.222 2.597-1.996.497-3.881.165-6.765s5.085-4.935 7.738-7.486c1.575-1.515.423-2.365-1.306-2.341z" fill="#73bbc2"/><path d="M866.706 2038.808a.191.192 0 0 0-.132.058 3.414 3.414 0 0 1-.46.324c-.234.147-.539.325-.889.526-.7.402-1.58.897-2.468 1.429s-1.78 1.102-2.506 1.658c-.483.37-.891.73-1.178 1.084l-.207-3.587a.191.192 0 0 0-.205-.184.191.192 0 0 0-.177.206l.239 4.138c-.39.935-.745 2.234-1.499 3.355-.09.134-.186.266-.287.394a.191.192 0 0 0-.03.037c-.76.941-1.864 1.689-3.648 1.877a6.982 6.982 0 0 0-1.074.196l1.01-4.674a.191.192 0 0 0-.186-.235.191.192 0 0 0-.188.154l-1.055 4.884c-1.223.425-1.999 1.15-2.646 1.835-.439.465-.824.91-1.257 1.24-.432.33-.905.552-1.556.592a.191.192 0 0 0-.008 0 .191.192 0 0 0-.02.002c-1.46.101-2.44 1.241-3.04 2.351a8.57 8.57 0 0 0-.643 1.549 6.06 6.06 0 0 0-.14.547 2.223 2.223 0 0 0-.03.182c-.007.05-.02.074 0 .155a.192.192 0 0 0 .373-.094c.013.054.002.018.006-.017.004-.034.012-.086.025-.15.026-.127.07-.304.133-.51a8.21 8.21 0 0 1 .612-1.479c.57-1.056 1.459-2.068 2.74-2.151l6.36.707a.191.192 0 1 0 .042-.382l-5.304-.59a3.4 3.4 0 0 0 .682-.407c.476-.364.871-.825 1.303-1.282.645-.683 1.36-1.365 2.538-1.756a.191.192 0 0 0 .095-.03 6.517 6.517 0 0 1 1.268-.256c1.823-.192 3.018-.97 3.834-1.935l3.984 1.296a.191.192 0 1 0 .118-.365l-3.848-1.25a6.4 6.4 0 0 0 .154-.22c.81-1.204 1.173-2.568 1.55-3.46a.191.192 0 0 0 .003-.006c.165-.388.686-.917 1.39-1.456.704-.541 1.587-1.105 2.468-1.633.881-.529 1.76-1.022 2.463-1.425.352-.202.66-.382.902-.534.243-.151.416-.267.528-.379a.191.192 0 0 0-.14-.33z" color="#000" fill="#fff" style="font-feature-settings:normal;font-variant-alternates:normal;font-variant-caps:normal;font-variant-ligatures:normal;font-variant-numeric:normal;font-variant-position:normal;isolation:auto;mix-blend-mode:normal;shape-padding:0;text-decoration-color:#000;text-decoration-line:none;text-decoration-style:solid;text-indent:0;text-orientation:mixed;text-transform:none;white-space:normal"/><path d="M827.74 1999.124l.202.238.018.021.267.362.054.353-.26.243-.347-.077-.06-.065-.25-.34-.006-.006-.197-.232-.078-.349.24-.26.353.052zm1.296 1.838l.056.068.02.033.01.015.366.626.016.356-.284.214-.336-.113-.053-.071-.356-.61-.005-.008-.005-.008-.012-.018-.031-.354.271-.227zm1.162 2.053l.043.077.267.652.013.037.017.056-.068.35-.328.14-.3-.19-.033-.082-.01-.035-.262-.636.033-.355.31-.173zm.63 2.33l.013.087.006.34-.003.063-.063.42-.209.287-.355-.01-.192-.3.004-.089.056-.39-.005-.305.159-.319.351-.048zm-.7 2.047l.015.355-.047.075-.31.39-.04.042-.193.18-.344.092-.269-.233.037-.353.058-.067.172-.159.294-.37.325-.141zm-1.677 1.613l-.12.335-.07.052-.534.3-.03.016-.136.061-.355-.022-.182-.305.147-.323.076-.047.118-.052.522-.294.354-.01zm-2.073 1.006l-.172.312-.078.04-.404.15-.022.006-.317.096-.349-.07-.14-.326.189-.301.08-.036.312-.094.007-.001.382-.141.352.047zm-2.317.362l.125.334-.205.29-.082.032-.721.177-.008.003h-.003l-.346-.078-.13-.332.198-.295.081-.033.01-.002.009-.002.729-.18zm-2.054.922l-.14.327-.076.047-.36.173-.277.168-.355.02-.217-.28.108-.339.07-.054.292-.179.033-.018.378-.18.355.014zm-1.879 1.185v.356l-.05.073-.195.226-.248.347-.317.161-.31-.172-.035-.354.042-.078.26-.364.023-.03.208-.239.33-.127zm-1.211 1.867l.125.333-.022.086-.014.038v.003l-.126.435-.038.2-.22.278-.355-.025-.18-.307.007-.089.04-.216.01-.037.138-.48.01-.027.014-.04.265-.237zm-.273 2.477l.004.088-.018.222.007.508-.162.316-.352.046-.237-.266-.01-.087-.007-.525v-.034l.019-.238.188-.303.355-.014zm.074 2.204l.022.085.098.674v.004l.004.014.01.044-.102.343-.337.11-.282-.22-.027-.083-.012-.064-.003-.018-.102-.692.118-.337.343-.09zm.438 2.207l.033.082.076.295v.002l.132.415-.061.35-.323.149-.304-.186-.036-.08-.134-.416-.006-.022-.082-.316.082-.346.33-.129z" color="#000" fill="#81acdd" style="font-feature-settings:normal;font-variant-alternates:normal;font-variant-caps:normal;font-variant-ligatures:normal;font-variant-numeric:normal;font-variant-position:normal;isolation:auto;mix-blend-mode:normal;shape-padding:0;text-decoration-color:#000;text-decoration-line:none;text-decoration-style:solid;text-indent:0;text-orientation:mixed;text-transform:none;white-space:normal"/><path d="M824.769 1996.612a1.167 1.171 0 0 0 .86 1.413 1.167 1.171 0 0 0 1.409-.863 1.167 1.171 0 0 0-.86-1.414 1.167 1.171 0 0 0-1.41.864z" fill="#fbc38e" paint-order="stroke fill markers"/><path d="M770.107 2001.698l-.009.312v.028l.017.45.178.309.354.026.223-.278.006-.088-.017-.423v-.008l.01-.305-.157-.32-.35-.053-.242.262zm.137 2.246l-.001.09.004.038.002.018.105.717.21.288.355-.011.191-.3-.002-.089-.103-.7-.003-.017-.001-.021-.197-.297-.353-.006zm.375 2.332l.015.086.198.677.013.037.022.054.272.23.342-.096.115-.337-.025-.085-.013-.033-.193-.661-.248-.256-.349.06zm.962 2.213l.045.075.207.269.042.047.31.288.343.093.27-.231-.036-.354-.059-.067-.287-.269-.186-.242-.323-.148-.304.183zm1.824 1.155l.21.286.083.03.486.109.057.008.262.018.326-.144.065-.35-.25-.252-.087-.016-.233-.016-.46-.104-.342.094zm2.314.204l.303.186.087-.003.604-.101.033-.007.144-.038.263-.24-.048-.352-.317-.16-.088.012-.125.033-.59.099-.283.214zm2.244-.518l.33.136.085-.017.408-.139.021-.009.307-.124.23-.273-.096-.342-.335-.117-.085.023-.302.123-.005.003-.386.13-.245.258zm2.033-1.173l.11.339.342.098.083-.027.673-.315.008-.003.003-.001.22-.278-.104-.341-.34-.106-.083.026-.01.005-.008.003-.68.317zm2.177-.571l.314.166.087-.01.39-.093.32-.042.29-.206-.006-.356-.296-.197-.088.002-.34.045-.037.007-.407.096-.268.234zm2.204-.256l.222.277.085.026.293.052.41.116.348-.074.134-.329-.194-.298-.081-.034-.43-.12-.037-.01-.31-.055-.337.108zm2.11.694l.11.338.071.053.034.021.002.002.37.26.154.133.345.079.262-.243-.053-.353-.06-.064-.167-.143-.03-.024-.407-.287-.024-.015-.036-.022-.356-.018zm1.758 1.76l.052.07.152.163.312.4.323.145.304-.185.019-.357-.046-.074-.323-.414-.022-.026-.163-.174-.336-.118-.285.212zm1.318 1.765l.035.08.344.587.003.004.006.012.02.041.293.203.332-.126.082-.347-.03-.083-.03-.057-.01-.016-.352-.604-.303-.188-.324.144zm1.035 1.996l.026.084.125.278.001.001.156.407.266.235.345-.088.121-.335-.022-.085-.156-.409-.008-.02-.134-.298-.28-.218-.337.107z" color="#000" fill="#76a4da" style="font-feature-settings:normal;font-variant-alternates:normal;font-variant-caps:normal;font-variant-ligatures:normal;font-variant-numeric:normal;font-variant-position:normal;isolation:auto;mix-blend-mode:normal;shape-padding:0;text-decoration-color:#000;text-decoration-line:none;text-decoration-style:solid;text-indent:0;text-orientation:mixed;text-transform:none;white-space:normal"/><path d="M770.861 1997.868a1.167 1.171 0 0 1 .211 1.643 1.167 1.171 0 0 1-1.637.212 1.167 1.171 0 0 1-.21-1.643 1.167 1.171 0 0 1 1.636-.212z" fill="#cddef2" paint-order="stroke fill markers"/><path d="M713.272 2027.969c-.417.183-1.477 2.9-1.295 3.32.183.417 2.892 1.48 3.308 1.298.417-.183 1.477-2.901 1.295-3.32-.183-.418-2.892-1.481-3.308-1.298z" fill="#84c3c9" paint-order="stroke fill markers"/><path d="M719.06 2027.801l.352.048.158.318-.17.312-.079.04-.715.261-.352-.047-.16-.318.171-.312.08-.04zm1.529-.413l.748-.143.34.106.106.339-.22.28-.085.028-.748.141-.339-.104-.106-.34.219-.28zm2.314-.297l.132-.007h.026l.629.01.31.172.036.354-.272.23-.087.01-.602-.013-.01.001-.123.006-.323-.149-.06-.35.257-.249zm2.358.192l.238.043.035.009.502.142.257.247-.058.351-.32.152-.089-.014-.464-.135-.01-.002-.227-.042-.279-.22.023-.355.305-.183zm2.177.77l.081.034.484.266.035.022.172.12.164.316-.167.314-.355.038-.076-.04-.155-.11-.466-.255-.197-.297.133-.33zm1.881 1.504l.064.062.028.035.026.035.388.603.032.355-.274.227-.341-.099-.056-.068-.375-.581-.018-.023-.071-.35.247-.254zm1.155 2.106l.04.078.208.545.008.022.053.171-.063.35-.324.147-.303-.186-.035-.081-.048-.15-.004-.01-.003-.011-.2-.525.042-.354.316-.164zm.416 2.017l.296.197.033.082.199.738-.077.348-.33.133-.295-.199-.032-.081-.2-.739.077-.347zm.6 2.212l.295.197.034.081.065.239.002.01.144.474-.067.35-.324.143-.301-.188-.036-.082-.147-.485-.003-.011-.068-.247.077-.349zm.981 2.354l.04.078.059.165.002.005.222.51-.025.357-.308.18-.321-.153-.044-.077-.233-.536-.01-.024-.06-.17.051-.352.318-.158zm.945 2.018l.052.072.034.065.37.532.044.353-.266.237-.343-.086-.059-.068-.378-.542-.023-.035-.048-.09-.005-.356.29-.205zm1.325 1.734l.07.056.021.023.005.004.417.377.01.008.076.057.147.325-.182.304-.355.022-.076-.046-.096-.074-.022-.019-.433-.388-.019-.02-.04-.04-.1-.343.224-.275zm1.75 1.326l.08.038.1.063.54.275.205.29-.122.334-.344.088-.083-.03-.558-.283-.034-.02-.115-.072-.175-.31.156-.321zm2 .94l.085.023.068.028.007.002.622.185.254.248-.061.351-.322.148-.087-.014-.63-.187-.03-.01-.1-.04-.23-.269.089-.343zm2.209.57l.754.107.288.208-.009.355-.297.195-.087-.002-.755-.105-.289-.209.01-.355.296-.195zm2.227.209l.514.01.018-.001h.002l.207-.007.32.156.052.353-.26.242-.087.013-.227.007h-.02l-.534-.009-.311-.172-.034-.356.272-.228zm2.221-.09l.756-.104.333.123.088.346-.233.267-.087.023-.754.1-.333-.12-.089-.346.234-.268zm2.208-.385l.047-.01.345.082.127.333-.202.294-.083.031-.047.011-.345-.083-.127-.332.202-.294z" color="#000" fill="#73bbc2" style="font-feature-settings:normal;font-variant-alternates:normal;font-variant-caps:normal;font-variant-ligatures:normal;font-variant-numeric:normal;font-variant-position:normal;isolation:auto;mix-blend-mode:normal;shape-padding:0;text-decoration-color:#000;text-decoration-line:none;text-decoration-style:solid;text-indent:0;text-orientation:mixed;text-transform:none;white-space:normal"/><g color="#000"><path d="M755.936 1998.316c-.095-.013-.15-.012-.15-.012a.17.17 0 0 0-.16.127s-.308 1.167-.67 2.933a.17.17 0 0 0-.015.07 65.72 65.72 0 0 0-.72 4.2.17.17 0 0 0 .084.172l2.018 1.156c-.26.118-1.18.534-2.268 1.031a.17.17 0 0 0-.1.14 35.404 35.404 0 0 0-.14 3.56.17.17 0 0 0 0 .093c.04 2.046.32 3.946 1.022 5.377a10.95 10.95 0 0 0 1.257 1.95.17.17 0 0 0 .057.071c1.621 2.02 3.985 3.862 6.152 5.316.242.162.48.317.715.47a.17.17 0 0 0 .078.049 50.829 50.829 0 0 0 4.614 2.645.17.17 0 0 0 .003 0 .17.17 0 0 0 .002.001.17.17 0 0 0 .014.006.17.17 0 0 0 0 .001.17.17 0 0 0 .013.004.17.17 0 0 0 .005 0 .17.17 0 0 0 .006.001.17.17 0 0 0 .011.002.17.17 0 0 0 .002 0 .17.17 0 0 0 .015.002.17.17 0 0 0 .016 0 .17.17 0 0 0 .002 0 .17.17 0 0 0 .005-.001.17.17 0 0 0 .012-.002.17.17 0 0 0 .015-.003.17.17 0 0 0 .01-.004.17.17 0 0 0 .008-.002.17.17 0 0 0 0-.001.17.17 0 0 0 .015-.007.17.17 0 0 0 .014-.008.17.17 0 0 0 .006-.004.17.17 0 0 0 .008-.006.17.17 0 0 0 .001-.001.17.17 0 0 0 .012-.011.17.17 0 0 0 .01-.012.17.17 0 0 0 .002 0 .17.17 0 0 0 .001-.002l.001-.001a.17.17 0 0 0 .014-.02c.017-.024.024-.04.036-.065l.058-.124c.045-.103.104-.245.173-.425.138-.359.317-.868.504-1.5.205-.691.419-1.534.601-2.483a.17.17 0 0 0 .014-.072c.144-.76.268-1.587.347-2.467a.17.17 0 0 0 .005-.06c.092-1.043.122-2.157.055-3.312a.17.17 0 0 0-.004-.068 19.276 19.276 0 0 0-.651-3.98.17.17 0 0 0-.017-.063 17.013 17.013 0 0 0-1.022-2.726.17.17 0 0 0-.03-.062 16.475 16.475 0 0 0-2.078-3.265l-.068-.082a.17.17 0 0 0-.037-.046 61.879 61.879 0 0 0-2.967-3.386.17.17 0 0 0-.032-.037.17.17 0 0 0-.01-.009 36.06 36.06 0 0 0-2.539-2.442.17.17 0 0 0-.02-.021.17.17 0 0 0-.026-.02 21.338 21.338 0 0 0-.287-.243h-.001a22.743 22.743 0 0 0-.3-.245c-1.302-1.05-2.25-1.573-2.881-1.833a3.861 3.861 0 0 0-.712-.227 1.527 1.527 0 0 0-.108-.017z" fill="#fcd4ae" style="font-feature-settings:normal;font-variant-alternates:normal;font-variant-caps:normal;font-variant-ligatures:normal;font-variant-numeric:normal;font-variant-position:normal;isolation:auto;mix-blend-mode:normal;shape-padding:0;text-decoration-color:#000;text-decoration-line:none;text-decoration-style:solid;text-indent:0;text-orientation:mixed;text-transform:none;white-space:normal"/><path d="M759.938 2000.636c.094.078.19.16.286.244a.17.17 0 0 1 .027.02.17.17 0 0 1 .02.02 36.064 36.064 0 0 1 2.538 2.442.17.17 0 0 1 .01.009.17.17 0 0 1 .032.037 61.95 61.95 0 0 1 2.967 3.386.17.17 0 0 1 .038.047l.068.082a16.478 16.478 0 0 1 2.077 3.264.17.17 0 0 1 .03.063c.43.901.766 1.815 1.022 2.726a.17.17 0 0 1 .017.063c.373 1.347.574 2.688.652 3.98a.17.17 0 0 1 .004.068c.066 1.154.036 2.269-.055 3.313a.17.17 0 0 1-.005.058c-.08.881-.204 1.707-.348 2.468a.17.17 0 0 1-.013.072 26.285 26.285 0 0 1-.602 2.483c-.187.632-.365 1.14-.503 1.5a9.643 9.643 0 0 1-.231.549c-.013.025-.02.04-.036.064a.17.17 0 0 1-.014.02l-.002.002a.17.17 0 0 1-.002.002.17.17 0 0 1-.01.011.17.17 0 0 1-.012.012.17.17 0 0 1-.001 0 .17.17 0 0 1-.008.006.17.17 0 0 1-.006.005.17.17 0 0 1-.014.007.17.17 0 0 1-.015.007.17.17 0 0 1-.008.003.17.17 0 0 1-.01.003.17.17 0 0 1-.016.004.17.17 0 0 1-.012.001.17.17 0 0 1-.005 0 .17.17 0 0 1-.001.002.17.17 0 0 1-.016 0 .17.17 0 0 1-.015-.002.17.17 0 0 1-.002 0 .17.17 0 0 1-.011-.002.17.17 0 0 1-.006-.001.17.17 0 0 1-.005-.001.17.17 0 0 1-.012-.003.17.17 0 0 1-.001-.002.17.17 0 0 1-.015-.005.17.17 0 0 1-.001-.002.17.17 0 0 1-.003 0s-2.085-1.02-4.615-2.645a.17.17 0 0 1-.077-.05 48.051 48.051 0 0 1-.715-.469c-2.168-1.453-4.531-3.295-6.152-5.315a.17.17 0 0 1-.057-.072 10.949 10.949 0 0 1-1.258-1.95c-.702-1.43-.982-3.331-1.022-5.377a.17.17 0 0 1 0-.092 35.404 35.404 0 0 1 .142-3.56.17.17 0 0 1 .098-.14c1.09-.498 2.008-.913 2.269-1.031l-2.018-1.157a.17.17 0 0 1-.084-.171c.214-1.567.478-3.012.72-4.2a.17.17 0 0 1 .015-.07c.361-1.766.67-2.934.67-2.934a.17.17 0 0 1 .159-.127s.098 0 .259.031c.16.032.396.096.711.226.63.26 1.579.783 2.882 1.834.097.078.197.16.299.245zm-.218.263c-.1-.083-.198-.164-.295-.242-1.283-1.035-2.204-1.539-2.797-1.784-.141-.058-.262-.1-.366-.133.384.452 1.058 1.31 1.891 2.652.223.359.458.756.702 1.185l1.054-1.518a15.962 15.962 0 0 0-.189-.16zm.448.384l-1.128 1.625c.47.85.972 1.834 1.488 2.959l1.95-2.357a35.946 35.946 0 0 0-2.31-2.227zm2.547 2.477l-2.03 2.45a57.517 57.517 0 0 1 1.585 3.917l3.206-3.212a61.804 61.804 0 0 0-2.761-3.155zm-6.834-4.94a58.904 58.904 0 0 0-.568 2.505l3.141 1.237a33.82 33.82 0 0 0-.59-.99c-.936-1.508-1.65-2.376-1.983-2.752zm9.813 8.36l-3.297 3.303c.147.41.294.83.44 1.264l.577 1.734 4.236-3.238a16.147 16.147 0 0 0-1.956-3.063zm2.106 3.378l-4.272 3.266c.34 1.017.659 1.982.961 2.9l4.217-3.728a16.69 16.69 0 0 0-.906-2.438zm-9.08-7.524l-3.478-1.369a67.399 67.399 0 0 0-.468 2.584l5.399 1.66a43.512 43.512 0 0 0-1.453-2.875zm1.643 3.29l-5.642-1.734c-.05.319-.098.642-.144.975l2.205 1.264a.17.17 0 0 1-.014.304s-1.284.58-2.478 1.126l-.034.457 7.682 1.497a57.046 57.046 0 0 0-1.575-3.888zm8.442 7.039l-4.2 3.713c.297.901.573 1.746.833 2.541l3.94-2.64a18.985 18.985 0 0 0-.573-3.614zm-6.732-2.777l-7.84-1.526c-.056.856-.083 1.71-.072 2.54l8.91 1.93c-.186-.559-.36-1.086-.557-1.673a66.366 66.366 0 0 0-.442-1.27zm7.327 6.787l-3.853 2.58.779 2.4 3.01-2.032c.08-.935.11-1.925.064-2.948zm-6.203-3.466l-9.03-1.957c.031 1.142.14 2.228.354 3.197l9.637 1.658c-.302-.917-.622-1.881-.96-2.899zm6.094 6.855l-2.856 1.93c.19.59.312.976.468 1.462l2.087-1.326a25.5 25.5 0 0 0 .301-2.066zm-5.012-3.59l-9.673-1.664c.14.547.317 1.052.537 1.5.31.632.724 1.259 1.21 1.873l8.75.808c-.256-.788-.53-1.625-.825-2.517zm.94 2.87l-8.563-.79c.874 1.03 1.945 2.021 3.074 2.934l6.266.255c-.235-.73-.494-1.528-.777-2.399zm3.68 3.248l-1.89 1.2c.428 1.339.696 2.187.805 2.537a20.113 20.113 0 0 0 .562-1.644c.177-.594.36-1.302.524-2.093zm-2.791-.503l-5.922-.24a40.125 40.125 0 0 0 3.01 2.128l3.387-.405-.475-1.483zm.58 1.815l-3.038.362a47.707 47.707 0 0 0 3.852 2.204c-.102-.326-.376-1.193-.814-2.566z" fill="#fff" style="font-feature-settings:normal;font-variant-alternates:normal;font-variant-caps:normal;font-variant-ligatures:normal;font-variant-numeric:normal;font-variant-position:normal;isolation:auto;mix-blend-mode:normal;shape-padding:0;text-decoration-color:#000;text-decoration-line:none;text-decoration-style:solid;text-indent:0;text-orientation:mixed;text-transform:none;white-space:normal"/></g><path d="M780.252 2022.977c.094-.319-1.547-15.964-8.764-16.767-7.218-.804-4.312 4.386-.418 7.468 3.894 3.083 6.842 9.358 6.842 9.358s1.94 3.562 2.34-.059z" fill="#b3da8c"/><path d="M771.023 2009.493a.14.14 0 0 1 .072.031s6.417 5.235 7.862 13.042a.14.14 0 1 1-.274.05c-1.422-7.682-7.764-12.875-7.764-12.875a.14.14 0 0 1 .104-.248z" color="#000" fill="#fff" style="font-feature-settings:normal;font-variant-alternates:normal;font-variant-caps:normal;font-variant-ligatures:normal;font-variant-numeric:normal;font-variant-position:normal;isolation:auto;mix-blend-mode:normal;shape-padding:0;text-decoration-color:#000;text-decoration-line:none;text-decoration-style:solid;text-indent:0;text-orientation:mixed;text-transform:none;white-space:normal"/><path d="M877.463 2073.714l.01.311v.029l-.018.45-.178.308-.354.027-.223-.278-.006-.088.017-.423v-.009l-.01-.305.157-.32.35-.052.242.261zm-.137 2.246l.001.089-.004.038-.002.018-.105.717-.21.289-.355-.012-.191-.3.002-.088.103-.7.003-.018.001-.02.197-.297.353-.007zm-.374 2.331l-.016.087-.198.677-.013.036-.022.055-.272.23-.342-.097-.115-.336.025-.085.013-.034.193-.66.248-.256.349.06zm-.963 2.213l-.045.076-.207.268-.042.047-.31.289-.343.092-.27-.23.036-.355.059-.067.287-.268.186-.243.323-.148.304.183zm-1.824 1.155l-.21.287-.083.03-.486.108-.057.008-.262.018-.326-.143-.065-.35.25-.253.087-.016.233-.016.46-.103.342.093zm-2.314.205l-.303.186-.087-.004-.603-.1-.034-.007-.144-.038-.263-.24.049-.353.316-.159.088.011.125.034.59.098.283.215zm-2.244-.518l-.33.135-.085-.017-.408-.138-.021-.009-.307-.124-.23-.273.096-.343.335-.116.085.023.302.122.005.003.386.13.245.258zm-2.033-1.173l-.11.338-.342.099-.083-.028-.673-.314-.008-.003-.003-.002-.22-.278.104-.34.34-.107.083.026.01.005.008.003.68.318zm-2.177-.572l-.314.167-.087-.01-.39-.093-.32-.043-.29-.206.006-.355.296-.197.088.001.34.045.037.007.407.096.268.235zm-2.204-.256l-.222.277-.085.026-.293.053-.41.116-.348-.075-.134-.329.194-.297.081-.035.43-.12.037-.01.31-.055.337.108zm-2.11.694l-.11.339-.071.053-.034.02-.002.002-.37.261-.154.132-.345.08-.262-.244.053-.352.06-.065.167-.143.03-.023.407-.287.024-.015.036-.023.356-.018zm-1.758 1.76l-.052.071-.152.162-.312.4-.323.145-.304-.185-.018-.356.045-.075.323-.413.022-.027.163-.174.336-.117.285.212zm-1.318 1.765l-.035.08-.344.588-.003.004-.006.012-.02.04-.293.204-.332-.126-.082-.348.03-.082.03-.058.01-.016.352-.604.303-.188.324.145zm-1.035 1.996l-.026.085-.125.278h-.001l-.156.408-.266.235-.345-.088-.121-.335.022-.085.156-.41.008-.02.134-.298.28-.218.337.107z" color="#000" fill="#6096d4" style="font-feature-settings:normal;font-variant-alternates:normal;font-variant-caps:normal;font-variant-ligatures:normal;font-variant-numeric:normal;font-variant-position:normal;isolation:auto;mix-blend-mode:normal;shape-padding:0;text-decoration-color:#000;text-decoration-line:none;text-decoration-style:solid;text-indent:0;text-orientation:mixed;text-transform:none;white-space:normal"/><path d="M876.709 2069.884a1.167 1.171 0 0 0-.211 1.642 1.167 1.171 0 0 0 1.637.212 1.167 1.171 0 0 0 .21-1.642 1.167 1.171 0 0 0-1.636-.212z" fill="#81acdd" paint-order="stroke fill markers"/><path d="M779.88 2005.902a.35.351 0 0 1 .088.037s2.42 1.424 4.37 4.249 3.438 7.099 1.6 12.695c-1.764 5.37.121 9.58 2.466 12.508 2.345 2.927 5.134 4.511 5.134 4.511a.35.351 0 1 1-.345.612s-2.897-1.64-5.335-4.683-4.43-7.55-2.585-13.168c1.77-5.39.35-9.382-1.51-12.075-1.859-2.693-4.15-4.043-4.15-4.043a.35.351 0 0 1 .267-.643z" color="#000" fill="#73bbc2" style="font-feature-settings:normal;font-variant-alternates:normal;font-variant-caps:normal;font-variant-ligatures:normal;font-variant-numeric:normal;font-variant-position:normal;isolation:auto;mix-blend-mode:normal;shape-padding:0;text-decoration-color:#000;text-decoration-line:none;text-decoration-style:solid;text-indent:0;text-orientation:mixed;text-transform:none;white-space:normal"/><path d="M784.586 2010.563s-1.84-8.722-7.184-8.332c-5.343.39-2.112 4.511 1.801 5.406 3.913.894 5.383 2.926 5.383 2.926z" fill="#d5bacb"/><path d="M786.77 2018.045s-1.64-5.832-5.245-5.327c-3.606.506-1.23 3.155 1.463 3.585s3.782 1.742 3.782 1.742z" fill="#fccb9e"/><path d="M784.655 2025.332s.801-3.74 3.093-3.567c2.292.175.9 1.939-.78 2.318-1.68.378-2.313 1.249-2.313 1.249z" fill="#bee19b"/><path d="M803.611 2005.576a.32.32 0 0 0-.049.072s-1.162 2.287-1.276 5.42.837 7.148 4.991 10.541c3.986 3.255 4.6 7.42 4.233 10.825-.367 3.406-1.733 5.998-1.733 5.998a.32.32 0 1 0 .564.3s1.422-2.689 1.804-6.229-.295-7.986-4.465-11.39c-4-3.269-4.865-7.036-4.756-10.022.109-2.986 1.207-5.152 1.207-5.152a.32.32 0 0 0-.52-.363z" color="#000" fill="#73bbc2" style="font-feature-settings:normal;font-variant-alternates:normal;font-variant-caps:normal;font-variant-ligatures:normal;font-variant-numeric:normal;font-variant-position:normal;isolation:auto;mix-blend-mode:normal;shape-padding:0;text-decoration-color:#000;text-decoration-line:none;text-decoration-style:solid;text-indent:0;text-orientation:mixed;text-transform:none;white-space:normal"/><path d="M802.28 2011.478s-2.86-7.609 1.437-9.944c4.296-2.336 3.832 2.424 1.265 5.04-2.568 2.618-2.702 4.904-2.702 4.904z" fill="#c9e8aa"/><path d="M804.268 2018.303s-1.598-5.29 1.42-6.68c3.017-1.39 2.49 1.817.632 3.476s-2.052 3.204-2.052 3.204z" fill="#fccb9e"/><path d="M809.462 2022.857s-2.448-2.478-4.123-1.214c-1.675 1.265.258 1.934 1.734 1.396s2.389-.182 2.389-.182z" fill="#bee19b"/><path d="M857.854 2018.149c.455.007 2.478 2.104 2.47 2.56-.007.457-2.097 2.487-2.552 2.48-.454-.008-2.478-2.105-2.47-2.561.007-.457 2.097-2.487 2.552-2.48z" fill="#fab26e" paint-order="stroke fill markers"/><path d="M852.45 2020.235l-.306.18-.024.356.276.221.089.008.76-.037.307-.18.025-.356-.278-.221-.089-.006zm-1.57.212l-.745.158-.272.228.032.354.31.173.089-.007.745-.16.273-.226-.034-.356-.31-.173zm-2.249.621l-.125.046-.023.01-.577.252-.22.28.104.339.338.107.085-.025.55-.244.009-.003.117-.042.24-.263-.08-.347-.332-.13zm-2.102 1.09l-.202.133-.03.021-.407.326-.142.327.188.302.354.015.076-.046.377-.305.008-.005.193-.127.172-.31-.157-.32-.351-.05zm-1.712 1.555l-.062.062-.344.432-.024.034-.112.178-.03.355.276.225.341-.102.055-.068.101-.16.332-.416.067-.35-.25-.254zm-1.156 2.115l-.036.082-.012.043-.01.043-.127.706.107.34.34.103.277-.223.026-.085.122-.68.008-.029-.069-.35-.326-.14zm-.256 2.39l-.007.087.018.584.001.023.017.179.193.299.355.01.208-.29.002-.088-.014-.157v-.01l-.002-.012-.017-.562-.175-.31-.354-.03zm.392 2.022l-.197.296.002.09.1.756.205.292.355-.006.195-.297v-.088l-.1-.758-.206-.29zm.298 2.273l-.197.296v.088l.032.245.002.01.05.494.196.297.354.006.205-.29.002-.09-.051-.504-.001-.011-.033-.254-.205-.292zm0 2.551l-.006.088.009.174v.006l-.009.557.16.319.353.046.238-.265.01-.087.01-.585v-.026l-.01-.18-.183-.305-.354-.022zm-.096 2.228l-.02.086-.007.074-.136.634.096.343.336.115.283-.213.029-.084.14-.647.007-.041.01-.102-.132-.33-.346-.077zm-.555 2.113l-.042.079-.011.03-.003.005-.24.509-.006.011-.048.082-.011.357.285.21.336-.117.052-.072.06-.106.013-.025.25-.526.01-.026.021-.053-.04-.354-.311-.168zm-1.104 1.9l-.06.067-.067.097-.392.463-.079.346.242.261.351-.052.065-.06.406-.477.024-.031.077-.112.043-.354-.267-.235zm-1.483 1.643l-.07.054-.052.052-.006.004-.502.412-.14.327.192.3.354.012.075-.047.508-.416.024-.02.078-.076.11-.338-.216-.282zm-1.819 1.38l-.655.391-.185.304.145.324.348.065.08-.036.657-.389.185-.304-.145-.325-.348-.064zm-1.974 1.056l-.471.208-.017.006-.001.001-.194.074-.235.268.087.345.333.123.086-.021.212-.082.018-.007.49-.216.22-.28-.105-.34-.339-.106zm-2.085.777l-.736.197-.26.242.052.353.318.157.088-.013.735-.199.26-.241-.05-.353-.32-.156zm-2.184.5l-.047.009-.287.21.011.355.3.193.088-.003.048-.008.287-.21-.012-.356-.299-.193z" color="#000" fill="#f9a95f" style="font-feature-settings:normal;font-variant-alternates:normal;font-variant-caps:normal;font-variant-ligatures:normal;font-variant-numeric:normal;font-variant-position:normal;isolation:auto;mix-blend-mode:normal;shape-padding:0;text-decoration-color:#000;text-decoration-line:none;text-decoration-style:solid;text-indent:0;text-orientation:mixed;text-transform:none;white-space:normal"/><path d="M833.46 2044.027s-1-8.88 2.8-7.826c3.8 1.054 4.65-.05 5.45-3.461s2.11 1.084 3.36-2.88c1.25-3.962 2.297-5.262 4.398-3.507 2.1 1.756 2.642 1.57 4.942-.436 2.3-2.007 5.918-2.113 4.5.903-1.88 3.997-7.125 5.54-6.792 6.932.643 2.679.664 4.055-.602 5.013-1.367 1.036-5.47-.602-5.87.201-.4.803.764 6.115-2.335 5.814-3.1-.301-3.15-1.254-5.8.451-2.65 1.706-3.85-.802-4.05-1.204z" fill="#faba7e"/><path d="M855.006 2027.594a.173.173 0 0 0-.119.053c-.049.049-.203.16-.416.293-.212.132-.488.294-.804.476-.633.363-1.43.81-2.233 1.292s-1.61.997-2.267 1.5c-.437.336-.806.66-1.065.98l-.479-4.044a.173.173 0 1 0-.346.02l.508 4.543c-.353.846-.675 2.022-1.356 3.035a5.55 5.55 0 0 1-.287.39c-.688.851-1.687 1.528-3.3 1.698a6.316 6.316 0 0 0-.972.178l.914-4.229a.173.173 0 0 0-.338-.073l-.955 4.418c-1.107.385-1.808 1.04-2.394 1.66-.397.42-.745.822-1.136 1.122a2.445 2.445 0 0 1-1.415.535c-.007 0-.013.001-.019.003-1.321.09-2.208 1.122-2.75 2.126a7.753 7.753 0 0 0-.58 1.401c-.06.197-.102.366-.129.495a2.011 2.011 0 0 0-.027.165c-.005.046-.016.067.002.14.056.225.392.14.336-.085.012.048.003.016.006-.015.004-.031.01-.078.022-.136a5.2 5.2 0 0 1 .12-.462c.114-.374.296-.858.554-1.337.516-.956 1.32-1.871 2.479-1.947l5.753.64c.23.025.268-.32.039-.345l-4.799-.534c.224-.1.429-.225.617-.369.43-.329.788-.745 1.179-1.159.583-.618 1.231-1.235 2.296-1.588.03-.002.06-.01.086-.027a5.896 5.896 0 0 1 1.147-.232c1.649-.174 2.73-.877 3.468-1.75l3.604 1.172c.22.071.327-.26.107-.33l-3.48-1.132a5.79 5.79 0 0 0 .139-.198c.732-1.09 1.06-2.323 1.401-3.13l.003-.006c.15-.35.621-.83 1.257-1.317.638-.49 1.436-1 2.234-1.478.797-.478 1.592-.923 2.228-1.289.317-.182.596-.345.815-.482.22-.137.377-.242.478-.343a.174.174 0 0 0-.126-.298z" color="#000" fill="#fff" style="font-feature-settings:normal;font-variant-alternates:normal;font-variant-caps:normal;font-variant-ligatures:normal;font-variant-numeric:normal;font-variant-position:normal;isolation:auto;mix-blend-mode:normal;shape-padding:0;text-decoration-color:#000;text-decoration-line:none;text-decoration-style:solid;text-indent:0;text-orientation:mixed;text-transform:none;white-space:normal"/><path d="M835.532 2003.028a.35.352 0 0 1 .038.087s.788 2.71.272 6.117-2.363 7.548-7.542 10.36c-4.969 2.696-6.482 7.068-6.78 10.821-.298 3.754.649 6.834.649 6.834a.351.352 0 1 1-.671.208s-.988-3.196-.678-7.098 1.949-8.564 7.147-11.385c4.988-2.708 6.69-6.6 7.181-9.846.492-3.248-.252-5.813-.252-5.813a.35.352 0 0 1 .636-.285z" color="#000" fill="#52abb3" style="font-feature-settings:normal;font-variant-alternates:normal;font-variant-caps:normal;font-variant-ligatures:normal;font-variant-numeric:normal;font-variant-position:normal;isolation:auto;mix-blend-mode:normal;shape-padding:0;text-decoration-color:#000;text-decoration-line:none;text-decoration-style:solid;text-indent:0;text-orientation:mixed;text-transform:none;white-space:normal"/><path d="M835.765 2009.676s4.64-7.63.477-11.035c-4.163-3.405-4.634 1.83-2.394 5.184 2.239 3.354 1.917 5.851 1.917 5.851z" fill="#cddef2"/><path d="M832.226 2016.638s2.805-5.383-.17-7.505c-2.977-2.121-3.061 1.45-1.393 3.624s1.563 3.881 1.563 3.881z" fill="#fccb9e"/><path d="M825.686 2020.49s3.15-2.173 4.701-.464c1.552 1.71-.673 2.035-2.157 1.152-1.485-.884-2.544-.687-2.544-.687z" fill="#bee19b"/><g><path d="M852.484 2008.678a.38.382 0 0 0-.103.011s-2.967.723-5.883 3.055-5.8 6.318-5.631 12.73c.161 6.15-3.12 9.946-6.478 12.26-3.358 2.314-6.76 3.088-6.76 3.088a.381.382 0 1 0 .17.746s3.53-.798 7.022-3.204 6.976-6.476 6.808-12.911c-.162-6.175 2.565-9.89 5.344-12.111 2.78-2.223 5.588-2.91 5.588-2.91a.38.382 0 0 0-.077-.754z" color="#000" fill="#c1a0b5" style="font-feature-settings:normal;font-variant-alternates:normal;font-variant-caps:normal;font-variant-ligatures:normal;font-variant-numeric:normal;font-variant-position:normal;isolation:auto;mix-blend-mode:normal;shape-padding:0;text-decoration-color:#000;text-decoration-line:none;text-decoration-style:solid;text-indent:0;text-orientation:mixed;text-transform:none;white-space:normal"/><path d="M846.123 2012.057s4.643-8.512 10.09-6.425c5.447 2.086.793 5.366-3.565 5.068-4.358-.298-6.525 1.357-6.525 1.357z" fill="#d5bacb"/><path d="M841.51 2019.169s3.53-5.564 7.131-3.903c3.6 1.66.297 3.675-2.645 3.276s-4.486.627-4.486.627z" fill="#fccb9e"/><path d="M841.439 2027.428s.333-4.15-2.11-4.689c-2.443-.54-1.544 1.737.088 2.66 1.633.923 2.022 2.03 2.022 2.03z" fill="#bee19b"/></g><g><path d="M805.927 2029.447c-.202-.559.777-26.19 13.563-28.382 12.785-2.194 8.457 4.927 1.836 10.834s-11.222 17.406-11.222 17.406-3.084 6.557-4.177.143z" fill="#c9e8aa"/><path d="M820.97 2004.43a.249.25 0 0 0-.123.063s-10.895 10.011-12.655 24.084a.249.25 0 1 0 .494.061c1.732-13.848 12.496-23.775 12.496-23.775a.249.25 0 0 0-.212-.433z" color="#000" fill="#fff" style="font-feature-settings:normal;font-variant-alternates:normal;font-variant-caps:normal;font-variant-ligatures:normal;font-variant-numeric:normal;font-variant-position:normal;isolation:auto;mix-blend-mode:normal;shape-padding:0;text-decoration-color:#000;text-decoration-line:none;text-decoration-style:solid;text-indent:0;text-orientation:mixed;text-transform:none;white-space:normal"/><path d="M825.058 2000.751c1.27 2.07-1.972 6.235-6.11 9.927-6.62 5.907-11.22 17.407-11.22 17.407s-.719 1.523-1.584 2.383c1.236 4.616 3.958-1.168 3.958-1.168s4.6-11.5 11.222-17.407c5.35-4.774 9.202-10.34 3.734-11.142z" fill="#b3da8c"/></g><path d="M703.152 2066.067c.145-.042.295-.082.448-.123a.21.211 0 0 1 .038-.014.21.211 0 0 1 .035-.006 44.38 44.38 0 0 1 4.256-.89.21.211 0 0 1 .016-.005.21.211 0 0 1 .06-.006 76.136 76.136 0 0 1 5.513-.668.21.211 0 0 1 .074-.007l.131-.012a20.22 20.22 0 0 1 4.769.156.21.211 0 0 1 .085.013c1.217.19 2.379.485 3.484.86a.21.211 0 0 1 .076.027 23.638 23.638 0 0 1 4.5 2.114.21.211 0 0 1 .071.043 28.138 28.138 0 0 1 3.328 2.372.21.211 0 0 1 .056.046c.84.697 1.592 1.4 2.265 2.08a.21.211 0 0 1 .063.064c.837.85 1.544 1.657 2.103 2.35a25.18 25.18 0 0 1 1.173 1.564c.134.197.237.356.31.474.036.059.065.107.086.146.017.03.028.048.04.082a.21.211 0 0 1 .01.028l.001.001a.21.211 0 0 1 0 .002.21.211 0 0 1 0 .001.21.211 0 0 1 .005.02.21.211 0 0 1 .002.019.21.211 0 0 1 0 .001.21.211 0 0 1 0 .013.21.211 0 0 1 0 .01.21.211 0 0 1-.001.018.21.211 0 0 1-.004.02.21.211 0 0 1 0 .002.21.211 0 0 1-.003.01.21.211 0 0 1-.003.012.21.211 0 0 1-.008.018.21.211 0 0 1-.007.013.21.211 0 0 1-.003.005.21.211 0 0 1 0 .002.21.211 0 0 1-.01.016.21.211 0 0 1-.012.014.21.211 0 0 1-.002.003.21.211 0 0 1-.01.01.21.211 0 0 1-.005.005.21.211 0 0 1-.006.004.21.211 0 0 1-.012.01.21.211 0 0 1-.001 0 .21.211 0 0 1-.016.01.21.211 0 0 1-.002.001.21.211 0 0 1-.003.002s-2.493 1.421-5.912 2.873a.21.211 0 0 1-.104.044c-.32.135-.644.27-.977.404-2.992 1.202-6.514 2.333-9.7 2.58a.21.211 0 0 1-.113.007c-.996.07-1.959.054-2.86-.076-1.944-.282-4.071-1.323-6.178-2.712a.21.211 0 0 1-.094-.064 43.473 43.473 0 0 1-3.518-2.632.21.211 0 0 1-.074-.2c.256-1.461.475-2.691.538-3.04l-2.586 1.255a.21.211 0 0 1-.233-.033 80.825 80.825 0 0 1-3.764-3.672.21.211 0 0 1-.061-.064 73.629 73.629 0 0 1-2.513-2.735.21.211 0 0 1-.017-.252s.067-.101.212-.243a4.79 4.79 0 0 1 .727-.57c.705-.463 1.898-1.068 3.876-1.667.149-.045.302-.09.459-.135zm.115.406c-.155.045-.306.088-.452.133-1.948.59-3.104 1.18-3.767 1.616a5.425 5.425 0 0 0-.391.28c.727-.077 2.07-.167 4.016-.081.52.022 1.088.059 1.695.11l-.807-2.139-.294.081zm.703-.19l.863 2.29c1.194.113 2.543.287 4.047.545l-1.032-3.642a44.21 44.21 0 0 0-3.878.807zm4.296-.874l1.073 3.788c1.54.276 3.237.641 5.087 1.117l-1.023-5.525a75.936 75.936 0 0 0-5.137.62zm-9.794 3.539c.28.32 1.03 1.165 2.149 2.332l3.452-2.35c-.503-.04-.979-.069-1.418-.088-2.187-.096-3.569.028-4.183.106zm15.352-4.196l1.053 5.68c.52.137 1.047.28 1.591.434l2.166.62-.33-6.595a19.813 19.813 0 0 0-4.48-.14zm4.904.205l.333 6.652c1.271.365 2.475.712 3.618 1.043l-.84-6.918a20.458 20.458 0 0 0-3.11-.777zm-13.99 4.031l-3.821 2.601c.669.69 1.439 1.464 2.298 2.285l5.46-4.362a53.355 53.355 0 0 0-3.937-.523zm4.492.619l-5.706 4.56c.29.273.585.548.89.828l2.826-1.373a.21.211 0 0 1 .298.228s-.306 1.718-.586 3.32c.145.12.293.238.44.356l6.89-6.814a69.94 69.94 0 0 0-5.052-1.105zm13.05-3.718l.838 6.892c1.123.326 2.175.633 3.164.923l.071-5.876a23.282 23.282 0 0 0-4.072-1.939zm-7.526 4.947l-7.03 6.954c.832.656 1.68 1.28 2.532 1.848l8.188-7.766-2.09-.6a81.116 81.116 0 0 0-1.6-.435zm12.017-2.753l-.07 5.744c1.083.319 2.076.612 2.982.881l.038-4.5a27.884 27.884 0 0 0-2.95-2.125zm-7.856 3.923l-8.3 7.87c1.183.767 2.362 1.415 3.496 1.873l8.42-8.7c-1.143-.332-2.346-.68-3.617-1.044zm11.225-1.443l-.036 4.27c.733.218 1.21.362 1.813.543l.111-3.061a31.364 31.364 0 0 0-1.888-1.752zm-7.151 2.619l-8.45 8.732a9.6 9.6 0 0 0 1.9.499c.858.124 1.784.139 2.748.07l6.936-8.386c-.98-.288-2.022-.592-3.134-.915zm3.573 1.044l-6.787 8.207c1.658-.173 3.413-.577 5.13-1.094l4.637-6.232c-.905-.27-1.897-.563-2.98-.88zm5.873-1.496l-.102 2.771c1.659.5 2.709.818 3.14.95l-.124-.186a24.807 24.807 0 0 0-1.153-1.537 31.793 31.793 0 0 0-1.761-1.998zm-2.463 2.504l-4.383 5.89a49.47 49.47 0 0 0 4.267-1.593l1.956-3.746c-.61-.183-1.095-.33-1.84-.551zm2.25.675l-1.755 3.361a58.936 58.936 0 0 0 4.931-2.4c-.403-.124-1.475-.45-3.176-.961z" color="#000" fill="#bee19b" style="font-feature-settings:normal;font-variant-alternates:normal;font-variant-caps:normal;font-variant-ligatures:normal;font-variant-numeric:normal;font-variant-position:normal;isolation:auto;mix-blend-mode:normal;shape-padding:0;text-decoration-color:#000;text-decoration-line:none;text-decoration-style:solid;text-indent:0;text-orientation:mixed;text-transform:none;white-space:normal"/><g><path d="M730.687 2054.57s2.461-8.716-1.513-8.291c-3.974.424-4.642-.82-4.88-4.366s-2.29.735-2.888-3.436c-.598-4.171-1.432-5.645-3.821-4.237-2.39 1.409-2.901 1.133-4.872-1.255-1.97-2.388-5.572-3.094-4.65.158 1.223 4.31 6.216 6.721 5.653 8.058-1.084 2.573-1.33 3.947-.223 5.115 1.197 1.262 5.571.304 5.839 1.173.268.87-1.771 5.99 1.379 6.202 3.15.213 3.357-.733 5.727 1.413 2.37 2.145 3.982-.165 4.248-.534z" fill="#bee19b"/><path d="M709.502 2030.973c-1.141-.165-1.928.445-1.438 2.173 1.223 4.31 6.215 6.722 5.652 8.058-1.083 2.574-1.33 3.947-.223 5.115 1.198 1.262 5.572.304 5.84 1.173.267.87-1.772 5.99 1.378 6.202 3.15.212 3.357-.733 5.727 1.413 2.03 1.837 3.501.408 4.05-.272-.568-.004-1.223-.241-1.95-.9-2.37-2.145-2.578-1.2-5.728-1.412s-1.11-5.333-1.378-6.202c-.268-.87-4.642.089-5.84-1.174-1.107-1.167-.86-2.54.223-5.114.563-1.337-4.43-3.749-5.652-8.058a3.553 3.553 0 0 1-.147-.88 3.354 3.354 0 0 0-.514-.122z" fill="#a8d37d"/><path d="M711.84 2034.563a.175.175 0 0 1 .111.073c.041.057.177.194.368.362.19.168.44.375.726.61.573.468 1.298 1.048 2.021 1.662s1.447 1.264 2.02 1.876c.383.408.698.794.905 1.157l1.144-3.966a.175.175 0 1 1 .342.078l-1.255 4.46c.214.904.342 2.133.857 3.26a5.635 5.635 0 0 0 .223.437c.548.966 1.436 1.808 3.021 2.245.348.096.66.21.943.34l-.218-4.382a.176.176 0 1 1 .35-.017l.228 4.578c1.044.567 1.638 1.339 2.121 2.056.328.487.61.946.952 1.31a2.482 2.482 0 0 0 1.328.77l.018.006c1.306.31 2.023 1.488 2.4 2.583.19.55.296 1.084.351 1.497.027.207.042.383.046.516a2.04 2.04 0 0 1 0 .17c-.002.046.006.07-.024.14-.093.215-.416.075-.323-.14-.02.045-.005.015-.003-.017.001-.032.002-.08 0-.14a5.275 5.275 0 0 0-.044-.482 7.537 7.537 0 0 0-.334-1.429c-.359-1.041-1.012-2.09-2.159-2.358l-5.86-.313c-.233-.012-.215-.364.019-.352l4.887.262a3.123 3.123 0 0 1-.556-.471c-.377-.401-.666-.877-.988-1.355-.482-.715-1.029-1.44-2.035-1.97a.177.177 0 0 1-.082-.04 5.982 5.982 0 0 0-1.11-.423c-1.62-.447-2.586-1.33-3.18-2.325l-3.798.575c-.232.035-.284-.313-.053-.348l3.668-.555a5.878 5.878 0 0 1-.107-.221c-.553-1.21-.679-2.5-.887-3.363a.12.12 0 0 1-.001-.006c-.092-.376-.485-.933-1.041-1.526-.558-.595-1.272-1.238-1.99-1.848-.72-.61-1.442-1.188-2.017-1.658-.288-.236-.54-.445-.737-.618-.197-.174-.337-.304-.421-.422a.176.176 0 0 1 .175-.277z" color="#000" fill="#fff" style="font-feature-settings:normal;font-variant-alternates:normal;font-variant-caps:normal;font-variant-ligatures:normal;font-variant-numeric:normal;font-variant-position:normal;isolation:auto;mix-blend-mode:normal;shape-padding:0;text-decoration-color:#000;text-decoration-line:none;text-decoration-style:solid;text-indent:0;text-orientation:mixed;text-transform:none;white-space:normal"/></g><g><path d="M731.543 2065.037s-3.343-8.375-15.94-13.455c-12.598-5.08-21.193 7.175-9.782 8.539s18.16.664 21.414 5.084c3.255 4.42 5.739 3.495 4.308-.168z" fill="#fab26e"/><path d="M704.64 2055.688l.008.434c.102-.002.308-.025.691-.052.384-.028.915-.062 1.558-.087a44.237 44.237 0 0 1 4.934.078c3.824.284 8.342 1.2 11.352 3.654 3.063 2.498 4.965 4.43 6.098 5.735 1.134 1.305 1.49 1.966 1.49 1.966l.38-.208s-.392-.717-1.544-2.043c-1.152-1.326-3.071-3.275-6.15-5.787-3.133-2.554-7.728-3.463-11.594-3.75a44.651 44.651 0 0 0-4.983-.078c-.65.025-1.185.06-1.572.087l-.668.05z" color="#000" fill="#fff" style="font-feature-settings:normal;font-variant-alternates:normal;font-variant-caps:normal;font-variant-ligatures:normal;font-variant-numeric:normal;font-variant-position:normal;isolation:auto;mix-blend-mode:normal;shape-padding:0;text-decoration-color:#000;text-decoration-line:none;text-decoration-style:solid;text-indent:0;text-orientation:mixed;text-transform:none;white-space:normal"/><path d="M700.494 2055.984c-.162 1.9 1.394 3.662 5.324 4.131 11.41 1.363 18.16.665 21.414 5.085 3.255 4.42 5.738 3.494 4.308-.169 0 0-.07-.166-.208-.446-.627 1.036-2.57.418-4.865-2.645-3.485-4.654-10.757-3.884-23.04-5.27-1.168-.132-2.14-.37-2.933-.686z" fill="#f8a04f"/></g><g color="#000"><path d="M747.46 2001.966c-.103.002-.16.013-.16.013a.181.182 0 0 0-.147.16s-.122 1.283-.198 3.203a.181.182 0 0 0-.004.077 70.084 70.084 0 0 0-.033 4.542.181.182 0 0 0 .118.166l2.322.866c-.254.17-1.149.766-2.208 1.479a.181.182 0 0 0-.08.165c.098 1.272.245 2.55.465 3.77a.181.182 0 0 0 .016.096c.394 2.145 1.017 4.096 2.002 5.479.457.64 1.021 1.252 1.66 1.832a.181.182 0 0 0 .072.067c2.054 1.844 4.857 3.37 7.388 4.523.282.129.56.25.833.37a.181.182 0 0 0 .09.038 54.12 54.12 0 0 0 5.31 1.982.181.182 0 0 0 .003 0 .181.182 0 0 0 .003 0 .181.182 0 0 0 .015.004.181.182 0 0 0 .002.001.181.182 0 0 0 .013.002.181.182 0 0 0 .006 0 .181.182 0 0 0 .006 0 .181.182 0 0 0 .012 0 .181.182 0 0 0 .003 0 .181.182 0 0 0 .016-.002.181.182 0 0 0 .016-.002.181.182 0 0 0 .002-.002.181.182 0 0 0 .005-.001.181.182 0 0 0 .012-.004.181.182 0 0 0 .016-.006.181.182 0 0 0 .01-.005.181.182 0 0 0 .007-.004.181.182 0 0 0 .001-.001.181.182 0 0 0 .014-.01.181.182 0 0 0 .013-.01.181.182 0 0 0 .006-.006.181.182 0 0 0 .008-.008.181.182 0 0 0 0-.001.181.182 0 0 0 .011-.014.181.182 0 0 0 .01-.014.181.182 0 0 0 0-.001.181.182 0 0 0 .001-.002l.001-.001a.181.182 0 0 0 .011-.024c.014-.028.018-.046.027-.074.011-.036.025-.083.04-.14.03-.116.067-.276.109-.477.083-.402.183-.969.27-1.666.097-.763.177-1.687.205-2.716a.181.182 0 0 0 .002-.079c.02-.825.008-1.715-.06-2.655a.181.182 0 0 0-.005-.063 24.422 24.422 0 0 0-.513-3.495.181.182 0 0 0-.016-.07 20.534 20.534 0 0 0-1.372-4.073.181.182 0 0 0-.029-.064 18.114 18.114 0 0 0-1.544-2.69.181.182 0 0 0-.044-.06 17.536 17.536 0 0 0-2.748-3.074l-.085-.075a.181.182 0 0 0-.048-.042 65.86 65.86 0 0 0-3.704-3.047.181.182 0 0 0-.04-.034.181.182 0 0 0-.013-.007 38.38 38.38 0 0 0-3.091-2.128.181.182 0 0 0-.024-.019.181.182 0 0 0-.032-.016c-.116-.07-.231-.14-.343-.206h-.002a24.21 24.21 0 0 0-.357-.206c-1.552-.879-2.64-1.264-3.348-1.428a4.113 4.113 0 0 0-.787-.114 1.627 1.627 0 0 0-.117 0z" fill="#ae879f" style="font-feature-settings:normal;font-variant-alternates:normal;font-variant-caps:normal;font-variant-ligatures:normal;font-variant-numeric:normal;font-variant-position:normal;isolation:auto;mix-blend-mode:normal;shape-padding:0;text-decoration-color:#000;text-decoration-line:none;text-decoration-style:solid;text-indent:0;text-orientation:mixed;text-transform:none;white-space:normal"/><path d="M752.07 2003.711c.112.066.227.136.343.206a.181.182 0 0 1 .032.016.181.182 0 0 1 .024.019c.894.547 1.92 1.243 3.091 2.128a.181.182 0 0 1 .013.008.181.182 0 0 1 .04.033 65.937 65.937 0 0 1 3.704 3.047.181.182 0 0 1 .048.043l.086.074a17.54 17.54 0 0 1 2.748 3.074.181.182 0 0 1 .043.06 18.11 18.11 0 0 1 1.545 2.69.181.182 0 0 1 .028.064 20.536 20.536 0 0 1 1.372 4.074.181.182 0 0 1 .016.07c.269 1.203.43 2.38.513 3.495a.181.182 0 0 1 .005.063c.068.94.08 1.83.06 2.655a.181.182 0 0 1-.002.078 28.036 28.036 0 0 1-.204 2.717 21.807 21.807 0 0 1-.271 1.666 10.29 10.29 0 0 1-.148.617c-.01.028-.014.046-.027.074a.181.182 0 0 1-.012.023v.002a.181.182 0 0 1-.001.002.181.182 0 0 1-.001 0 .181.182 0 0 1-.01.015.181.182 0 0 1-.01.013.181.182 0 0 1-.001.001.181.182 0 0 1-.008.008.181.182 0 0 1-.005.006.181.182 0 0 1-.013.01.181.182 0 0 1-.015.01.181.182 0 0 1-.008.005.181.182 0 0 1-.01.005.181.182 0 0 1-.016.006.181.182 0 0 1-.012.004.181.182 0 0 1-.005.001.181.182 0 0 1-.002.001.181.182 0 0 1-.016.003.181.182 0 0 1-.016.001.181.182 0 0 1-.002 0 .181.182 0 0 1-.013 0 .181.182 0 0 1-.006 0 .181.182 0 0 1-.006 0 .181.182 0 0 1-.013-.002.181.182 0 0 1-.001 0 .181.182 0 0 1-.016-.004.181.182 0 0 1-.002-.001.181.182 0 0 1-.003 0s-2.37-.71-5.31-1.981a.181.182 0 0 1-.09-.039 51.157 51.157 0 0 1-.834-.37c-2.53-1.152-5.334-2.679-7.388-4.523a.181.182 0 0 1-.072-.066 11.654 11.654 0 0 1-1.66-1.833c-.984-1.383-1.607-3.333-2.002-5.478a.181.182 0 0 1-.016-.098 37.74 37.74 0 0 1-.465-3.769.181.182 0 0 1 .08-.165c1.06-.712 1.954-1.309 2.208-1.478l-2.322-.867a.181.182 0 0 1-.118-.165 70.08 70.08 0 0 1 .033-4.543.181.182 0 0 1 .004-.077 63.82 63.82 0 0 1 .198-3.202.181.182 0 0 1 .146-.161s.104-.018.278-.013c.174.006.433.033.787.115.708.164 1.796.549 3.348 1.428.116.066.235.134.357.206zm-.184.314c-.12-.07-.237-.138-.352-.203-1.528-.866-2.584-1.236-3.25-1.39a4.664 4.664 0 0 0-.408-.077c.482.408 1.339 1.193 2.447 2.461.296.339.612.715.942 1.125l.847-1.78a16.99 16.99 0 0 0-.226-.136zm.538.326l-.907 1.906c.642.813 1.339 1.76 2.076 2.854l1.645-2.818a38.26 38.26 0 0 0-2.814-1.942zm3.105 2.164l-1.711 2.93a61.238 61.238 0 0 1 2.341 3.845l2.82-3.935a65.78 65.78 0 0 0-3.45-2.84zm-8.04-4.01c-.031.365-.108 1.339-.165 2.734l3.517.756a36 36 0 0 0-.79-.939c-1.246-1.424-2.147-2.214-2.562-2.551zm11.764 7.091l-2.898 4.047c.225.406.452.821.68 1.253.32.605.604 1.149.907 1.724l3.897-4.142a17.187 17.187 0 0 0-2.586-2.882zm2.799 3.187l-3.931 4.177c.532 1.012 1.034 1.971 1.51 2.884l3.794-4.653a17.77 17.77 0 0 0-1.373-2.408zm-10.85-6.338l-3.894-.836c-.03.83-.05 1.772-.047 2.8l5.965.809a46.32 46.32 0 0 0-2.024-2.773zm2.296 3.176l-6.234-.845c.003.344.007.693.016 1.05l2.538.948a.181.182 0 0 1 .037.322s-1.25.834-2.412 1.614c.013.163.028.325.043.488l8.34.24a60.737 60.737 0 0 0-2.328-3.817zm10.094 5.939l-3.778 4.635c.468.896.905 1.737 1.314 2.528l3.69-3.462a20.225 20.225 0 0 0-1.226-3.701zm-7.56-1.752l-8.512-.245c.09.91.209 1.814.364 2.684l9.706.484c-.293-.556-.567-1.08-.876-1.663-.23-.435-.457-.852-.683-1.26zm8.878 5.867l-3.608 3.383c.449.867.86 1.663 1.232 2.39l2.816-2.661a24.206 24.206 0 0 0-.44-3.112zm-7.123-2.57l-9.837-.49c.23 1.196.531 2.32.923 3.301l10.424.071c-.476-.912-.978-1.87-1.51-2.882zm7.593 6.154l-2.672 2.525c.302.589.497.973.744 1.457l1.967-1.756a27.19 27.19 0 0 0-.04-2.226zm-5.892-2.906l-10.463-.072a8.34 8.34 0 0 0 .824 1.485c.435.61.978 1.198 1.597 1.76l9.343-.669c-.406-.784-.839-1.617-1.302-2.504zm1.483 2.856l-9.143.654c1.097.934 2.394 1.79 3.74 2.553l6.635-.82c-.373-.726-.783-1.52-1.232-2.387zm4.433 2.777l-1.781 1.59c.68 1.335 1.108 2.181 1.283 2.53l.042-.19c.081-.392.18-.95.267-1.637.082-.656.153-1.432.189-2.293zm-3.024-.044l-6.271.775a42.715 42.715 0 0 0 3.534 1.716l3.492-1.013c-.25-.49-.448-.88-.755-1.478zm.923 1.808l-3.133.909a50.796 50.796 0 0 0 4.432 1.65 598.43 598.43 0 0 0-1.299-2.56z" fill="#fff" style="font-feature-settings:normal;font-variant-alternates:normal;font-variant-caps:normal;font-variant-ligatures:normal;font-variant-numeric:normal;font-variant-position:normal;isolation:auto;mix-blend-mode:normal;shape-padding:0;text-decoration-color:#000;text-decoration-line:none;text-decoration-style:solid;text-indent:0;text-orientation:mixed;text-transform:none;white-space:normal"/></g><g><path d="M796.832 2028.068c.292-.414 5.56-23.793-4.46-28.498-10.021-4.706-8.362 4.21-4.249 10.57 4.114 6.36 5.305 16.862 5.305 16.862s1.059 6.093 3.404 1.066z" fill="#b6dcdf"/><path d="M790.1 2004.079a.212.213 0 0 1 .087.08s6.703 10.706 4.978 22.679a.212.213 0 1 1-.42-.062c1.698-11.782-4.917-22.39-4.917-22.39a.212.213 0 0 1 .271-.307z" color="#000" fill="#fff" style="font-feature-settings:normal;font-variant-alternates:normal;font-variant-caps:normal;font-variant-ligatures:normal;font-variant-numeric:normal;font-variant-position:normal;isolation:auto;mix-blend-mode:normal;shape-padding:0;text-decoration-color:#000;text-decoration-line:none;text-decoration-style:solid;text-indent:0;text-orientation:mixed;text-transform:none;white-space:normal"/></g><path d="M875.836 2052.544c-.185 0-.377.004-.571.007a.259.26 0 0 0-.05-.004.259.26 0 0 0-.044.005c-1.494.03-3.259.15-5.337.398a.259.26 0 0 0-.02 0 .259.26 0 0 0-.074.012c-1.96.237-4.2.59-6.751 1.09h-.001a.259.26 0 0 0-.09.017l-.158.03a24.919 24.919 0 0 0-5.59 1.811.259.26 0 0 0-.097.043 25.724 25.724 0 0 0-3.832 2.206.259.26 0 0 0-.081.058 29.179 29.179 0 0 0-4.61 4.036.259.26 0 0 0-.07.075 34.742 34.742 0 0 0-3.135 3.942.259.26 0 0 0-.05.074c-.758 1.11-1.41 2.2-1.976 3.232a.259.26 0 0 0-.054.098 39.94 39.94 0 0 0-1.693 3.499 31.1 31.1 0 0 0-.858 2.25c-.092.278-.16.502-.206.666-.023.082-.04.15-.053.203-.01.04-.016.066-.02.11a.26.26 0 0 0-.003.037v.003a.259.26 0 0 0 0 .002.26.26 0 0 0 0 .003.259.26 0 0 0 .001.023.26.26 0 0 0 .004.025.259.26 0 0 0 0 .002.26.26 0 0 0 .004.015.259.26 0 0 0 .003.01.259.26 0 0 0 .009.023.26.26 0 0 0 .01.022.259.26 0 0 0 0 .002.26.26 0 0 0 .007.011.259.26 0 0 0 .009.013.259.26 0 0 0 .014.02.26.26 0 0 0 .013.013.259.26 0 0 0 .005.005.26.26 0 0 0 .001.002.259.26 0 0 0 .018.016.26.26 0 0 0 .019.013.259.26 0 0 0 .003.002.26.26 0 0 0 .015.009.259.26 0 0 0 .008.004.26.26 0 0 0 .007.004.259.26 0 0 0 .018.008.26.26 0 0 0 .002 0 .259.26 0 0 0 .022.007.26.26 0 0 0 .003 0 .259.26 0 0 0 .004.002s3.431.831 7.97 1.384a.259.26 0 0 0 .138.017c.424.05.853.1 1.293.145 3.947.402 8.499.54 12.353-.255a.259.26 0 0 0 .137-.03c1.203-.256 2.336-.603 3.358-1.065 2.206-.995 4.37-2.953 6.393-5.315a.259.26 0 0 0 .09-.108 53.676 53.676 0 0 0 3.272-4.315.259.26 0 0 0 .02-.26c-.797-1.643-1.474-3.024-1.666-3.417l3.485.606a.259.26 0 0 0 .265-.12 99.804 99.804 0 0 0 3.211-5.628.259.26 0 0 0 .051-.097c1.28-2.424 2.047-4.094 2.047-4.094a.259.26 0 0 0-.064-.303s-.114-.097-.333-.216a5.883 5.883 0 0 0-1.054-.426c-.99-.308-2.608-.618-5.152-.652-.19-.002-.387-.003-.588-.003zm.002.52c.199 0 .392 0 .58.003 2.505.033 4.073.338 5.006.628.22.069.403.136.557.2-.887.155-2.506.506-4.78 1.271-.609.205-1.268.442-1.97.71l.231-2.808.376-.003zm-.896.015l-.247 3.004a66.708 66.708 0 0 0-4.604 2.025l-.012-4.663a54.428 54.428 0 0 1 4.863-.366zm-5.381.43l.013 4.849a86.982 86.982 0 0 0-5.642 3.055l-.66-6.887a93.519 93.519 0 0 1 6.289-1.017zm12.79.849a89.51 89.51 0 0 1-1.753 3.492l-4.88-1.604a51.3 51.3 0 0 1 1.647-.587c2.556-.86 4.233-1.184 4.986-1.301zm-19.59.268l.678 7.08c-.569.34-1.145.689-1.736 1.057-.827.516-1.568.982-2.353 1.473l-1.842-7.918a24.417 24.417 0 0 1 5.253-1.692zm-5.734 1.914l1.858 7.987c-1.38.865-2.687 1.685-3.928 2.468l-1.348-8.475a25.233 25.233 0 0 1 3.418-1.98zm17.923.002l5.402 1.775a102.365 102.365 0 0 1-1.946 3.488l-7.939-3.301a65.775 65.775 0 0 1 4.483-1.962zm-5.107 2.263l8.296 3.451c-.25.422-.505.85-.772 1.285l-3.809-.662a.259.26 0 0 0-.276.371s.944 1.93 1.819 3.73c-.132.192-.267.381-.401.571l-10.46-5.715a86.31 86.31 0 0 1 5.603-3.03zm-16.705.05l1.342 8.441c-1.218.77-2.36 1.491-3.431 2.172l-2.074-6.93a28.749 28.749 0 0 1 4.163-3.683zm10.583 3.289l10.674 5.833a49.67 49.67 0 0 1-2.37 3.05l-12.32-6.4c.758-.475 1.473-.924 2.27-1.421.595-.37 1.174-.721 1.746-1.062zm-15.154.838l2.028 6.774c-1.174.747-2.25 1.432-3.231 2.06l-1.568-5.312a34.436 34.436 0 0 1 2.77-3.522zm10.627 1.965l12.486 6.485c-1.14 1.31-2.316 2.479-3.502 3.408l-12.911-7.427c1.24-.782 2.547-1.603 3.927-2.467zm-13.773 2.118l1.488 5.041c-.794.509-1.31.842-1.961 1.261l-1.169-3.585a38.746 38.746 0 0 1 1.642-2.717zm9.349.662l12.958 7.454c-.693.505-1.388.925-2.08 1.238-.974.44-2.065.772-3.23 1.02l-11.048-7.56c1.063-.675 2.193-1.39 3.4-2.151zm-3.875 2.454l10.811 7.398c-2.022.36-4.235.481-6.442.454l-7.598-5.794c.98-.627 2.055-1.313 3.229-2.058zm-7.457.231l1.059 3.246a838.465 838.465 0 0 0-3.396 2.195l.085-.264c.18-.542.458-1.302.843-2.212.368-.869.836-1.877 1.409-2.965zm3.762 2.124l7.182 5.477a60.859 60.859 0 0 1-5.59-.43l-3.582-3.768 1.99-1.279zm-2.434 1.566l3.215 3.38c-3.391-.44-5.843-.975-6.649-1.16a855.13 855.13 0 0 1 3.434-2.22z" color="#000" fill="#acc8e9" style="font-feature-settings:normal;font-variant-alternates:normal;font-variant-caps:normal;font-variant-ligatures:normal;font-variant-numeric:normal;font-variant-position:normal;isolation:auto;mix-blend-mode:normal;shape-padding:0;text-decoration-color:#000;text-decoration-line:none;text-decoration-style:solid;text-indent:0;text-orientation:mixed;text-transform:none;white-space:normal"/><g transform="matrix(.84692 0 0 .84978 1193.04 1728.977)"><path d="M-395.23 385.37l-.96 6.912h4.06l-.96-6.912c-.243-.695-.654-1.069-1.072-1.067-.397.003-.8.341-1.068 1.067z" fill="#d3d3d3"/><path d="M-387.186 406.03h-13.935c-.03.555-.047 1.042-.05 1.6 0 .116.004.231.006.346h14.016l.008-.345c0-.559-.016-1.046-.045-1.6z" fill="#8a8a8a" paint-order="stroke fill markers"/><path d="M-387.451 403.226h-13.411a7.015 15.406 0 0 0-.26 2.811h13.934a7.015 15.406 0 0 0-.263-2.811z" fill="#a7a7a7" paint-order="stroke fill markers"/><path d="M-387.98 400.448h-12.359a7.015 15.406 0 0 0-.524 2.778h13.41a7.015 15.406 0 0 0-.527-2.778z" fill="#b6b6b6" paint-order="stroke fill markers"/><path d="M-388.88 397.59h-10.563a7.015 15.406 0 0 0-.898 2.845h12.359a7.015 15.406 0 0 0-.898-2.845z" fill="#c4c4c4" paint-order="stroke fill markers"/><path d="M-398.643 395.897a7.015 15.406 0 0 0-.786 1.717h10.563a7.015 15.406 0 0 0-.794-1.717z" fill="#d3d3d3" paint-order="stroke fill markers"/><rect x="-402.7" y="407.99" width="3.416" height="2.789" ry="0" fill="#d3d3d3" paint-order="stroke fill markers"/><rect x="-399.29" y="407.99" width="3.416" height="2.789" ry="0" fill="#c4c4c4" paint-order="stroke fill markers"/><rect x="-395.87" y="407.99" width="3.416" height="2.789" ry="0" fill="#b6b6b6" paint-order="stroke fill markers"/><rect x="-392.46" y="407.99" width="3.416" height="2.789" ry="0" fill="#a7a7a7" paint-order="stroke fill markers"/><rect x="-389.04" y="407.99" width="3.416" height="2.789" ry="0" fill="#8a8a8a" paint-order="stroke fill markers"/><g fill="#d8e5f5" paint-order="stroke fill markers"><rect transform="rotate(45)" x="3.722" y="557.57" width="1.006" height="1.006" ry="0"/><rect transform="scale(-1 1) rotate(45)" x="561.15" y=".144" width="1.006" height="1.006" ry="0"/><rect transform="rotate(45)" x="3.943" y="561.37" width="1.006" height="1.006" ry="0"/><rect transform="rotate(45)" x="7.333" y="557.98" width="1.006" height="1.006" ry="0"/><rect transform="scale(-1 1) rotate(45)" x="564.76" y=".554" width="1.006" height="1.006" ry="0"/><rect transform="rotate(45)" x="7.894" y="561.2" width="1.16" height="1.16" ry="0"/><rect transform="scale(-1 1) rotate(45)" x="565.32" y="3.768" width="1.16" height="1.16" ry="0"/><rect transform="rotate(45)" x="7.826" y="565.26" width="1.145" height="1.145" ry="0"/><rect transform="rotate(45)" x="11.685" y="561.4" width="1.145" height="1.145" ry="0"/><rect transform="scale(-1 1) rotate(45)" x="569.12" y="3.968" width="1.145" height="1.145" ry="0"/></g><path d="M-403.405 410.766s-.05.706-.496 1.12c-.447.413-.992.48-.992.48h21.464s-.546-.067-.993-.48c-.446-.414-.496-1.12-.496-1.12H-402.7z" fill="#d3d3d3"/><path d="M-389.435 412.38h-4.718v2.45h3.323s.162-.109.375-.29c.212-.18.477-.432.684-.721.103-.145.176-.335.228-.539s.083-.421.1-.62c.014-.154.005-.162.007-.28z" fill="#b6b6b6"/><path d="M-389.435 412.38c-.003.118.006.126-.007.28-.018.199-.049.416-.1.62s-.126.394-.23.539c-.206.29-.47.542-.683.722-.213.18-.374.288-.374.288h3.367s.199-.108.449-.288.552-.433.758-.722c.207-.29.364-.76.47-1.16.04-.153.035-.161.06-.279z" fill="#a7a7a7"/><path d="M-385.731 412.38c-.025.118-.02.126-.061.28-.106.398-.263.87-.47 1.159-.206.29-.508.542-.758.722-.25.18-.449.288-.449.288h4.409s.06-1.142.596-1.639c.536-.496 1.19-.81 1.19-.81z" fill="#8a8a8a"/><path d="M-390.838 414.814h-3.323v2.233h3.919c.011-.263.034-.543 0-.911-.025-.265-.174-.595-.317-.86-.142-.264-.279-.462-.279-.462z" fill="#b6b6b6"/><path d="M-390.838 414.814s.137.198.28.462c.142.265.29.595.316.86.034.368.011.648 0 .911h3.712c-.071-.263-.161-.543-.196-.911-.025-.265-.21-.595-.39-.86-.18-.264-.354-.462-.354-.462z" fill="#a7a7a7"/><path d="M-387.477 414.814s.173.198.353.462c.18.265.366.595.39.86.035.368.125.648.197.911h4.058s-.595-.493-1.08-.944c-.487-.45-.541-1.289-.541-1.289h-.767z" fill="#8a8a8a"/><path d="M-395.785 417.037c-.037.003-.096.026-.19.102a2.72 2.72 0 0 0-.541.62 3.939 3.939 0 0 0-.502 1.133 4.64 4.64 0 0 0-.138.763 5.421 5.421 0 0 0-.01.89h6.008a5.427 5.427 0 0 0-.01-.89 4.643 4.643 0 0 0-.138-.763 3.94 3.94 0 0 0-.502-1.133 2.72 2.72 0 0 0-.54-.62c-.127-.101-.189-.11-.221-.097h-3.186a.074.074 0 0 0-.03-.005z" fill="#c4c4c4"/><path d="M-385.096 417.063h-4.105c.01-.042.162-.004.38.117.217.121.5.325.773.615.137.144.271.31.394.498a3.4 3.4 0 0 1 .521 1.384c.039.275.047.571.015.89h4.228v-.006a2.847 2.847 0 0 0-.281-1.667 3.497 3.497 0 0 0-.43-.655 4.353 4.353 0 0 0-.521-.53 4.747 4.747 0 0 0-.975-.645z" fill="#a7a7a7"/><path d="M-385.096 417.063c.281.14.63.349.974.645.182.156.36.333.522.531.163.198.31.416.43.655s.21.496.261.774.062.576.02.893v.006h3.065s.133-.86-.33-2.018-2.4-1.486-2.4-1.486z" fill="#8a8a8a"/><path d="M-392.557 417.063c.032-.013.095-.004.22.098.153.122.35.328.541.62.191.291.376.668.502 1.133.062.232.11.487.138.763.026.275.031.572.01.89h4.024a3.725 3.725 0 0 0-.015-.89 3.368 3.368 0 0 0-.522-1.384 3.587 3.587 0 0 0-.393-.498 3.343 3.343 0 0 0-.774-.615c-.217-.121-.369-.16-.38-.117z" fill="#b6b6b6"/><path d="M-398.88 412.37h4.718v2.449h-3.324s-.161-.108-.374-.288a4.145 4.145 0 0 1-.684-.722 1.632 1.632 0 0 1-.229-.54 3.973 3.973 0 0 1-.1-.62c-.013-.153-.005-.161-.007-.279z" fill="#c4c4c4"/><path d="M-398.88 412.37c.002.118-.006.126.007.28.018.199.048.416.1.62.052.204.125.394.229.539.206.29.47.541.684.722.213.18.374.288.374.288h-3.368s-.198-.108-.448-.288-.552-.433-.759-.722c-.207-.29-.364-.761-.47-1.16-.04-.153-.035-.161-.06-.279z" fill="#d3d3d3"/><path d="M-402.59 412.37c.025.118.02.126.061.28.105.398.263.87.47 1.159.206.289.508.541.758.722.25.18.448.288.448.288h-4.408s-.06-1.143-.596-1.64a5.468 5.468 0 0 0-1.191-.809z" fill="#e1e1e1"/><path d="M-397.49 414.82h3.324v2.233h-3.92c-.01-.263-.034-.543 0-.912.025-.264.174-.595.317-.859.143-.264.279-.462.279-.462z" fill="#c4c4c4"/><path d="M-397.49 414.82s-.136.198-.28.462c-.142.264-.29.595-.315.86-.035.368-.012.648 0 .91h-3.713c.072-.262.162-.542.196-.91.025-.265.211-.596.39-.86.18-.264.354-.462.354-.462z" fill="#d3d3d3"/><path d="M-400.85 414.82s-.174.198-.353.462c-.18.264-.366.595-.391.86-.035.368-.125.648-.196.91h-4.058s.594-.493 1.08-.943c.487-.45.54-1.289.54-1.289h.767z" fill="#e1e1e1"/><path d="M-403.21 417.06h4.105c-.01-.043-.162-.004-.38.117-.217.121-.5.325-.773.614-.137.145-.271.311-.394.498a3.4 3.4 0 0 0-.521 1.385 3.736 3.736 0 0 0-.015.89h-4.229v-.006a2.846 2.846 0 0 1 .281-1.667c.12-.239.267-.457.43-.655.162-.198.34-.375.521-.53.345-.298.693-.505.975-.646z" fill="#e1e1e1"/><path d="M-403.21 417.06c-.282.14-.63.348-.975.645-.18.156-.359.333-.522.53-.162.198-.31.417-.428.655a2.843 2.843 0 0 0-.282 1.667v.006h-3.065s-.132-.86.33-2.017 2.4-1.486 2.4-1.486z" fill="#f0f0f0"/><path d="M-395.76 417.06c-.033-.013-.095-.004-.221.098a2.72 2.72 0 0 0-.54.62 3.94 3.94 0 0 0-.502 1.133 4.638 4.638 0 0 0-.138.763 5.411 5.411 0 0 0-.01.89h-4.024a3.725 3.725 0 0 1 .015-.89 3.366 3.366 0 0 1 .521-1.385c.123-.187.257-.353.394-.498.273-.289.556-.493.774-.614.217-.121.368-.16.38-.117z" fill="#d3d3d3"/><path d="M-394.171 391.426a4.51 4.15 0 0 0-4.511 4.15 4.51 4.15 0 0 0 .017.336h8.986a4.51 4.15 0 0 0 .018-.336 4.51 4.15 0 0 0-4.51-4.15z" fill="#e1e1e1" paint-order="stroke fill markers"/></g><g transform="matrix(1.26268 0 0 1.26695 1345.493 1553.524)"><path d="M-395.23 385.37l-.96 6.912h4.06l-.96-6.912c-.243-.695-.654-1.069-1.072-1.067-.397.003-.8.341-1.068 1.067z" fill="#d3d3d3"/><path d="M-387.186 406.03h-13.935c-.03.555-.047 1.042-.05 1.6 0 .116.004.231.006.346h14.016l.008-.345c0-.559-.016-1.046-.045-1.6z" fill="#8a8a8a" paint-order="stroke fill markers"/><path d="M-387.451 403.226h-13.411a7.015 15.406 0 0 0-.26 2.811h13.934a7.015 15.406 0 0 0-.263-2.811z" fill="#a7a7a7" paint-order="stroke fill markers"/><path d="M-387.98 400.448h-12.359a7.015 15.406 0 0 0-.524 2.778h13.41a7.015 15.406 0 0 0-.527-2.778z" fill="#b6b6b6" paint-order="stroke fill markers"/><path d="M-388.88 397.59h-10.563a7.015 15.406 0 0 0-.898 2.845h12.359a7.015 15.406 0 0 0-.898-2.845z" fill="#c4c4c4" paint-order="stroke fill markers"/><path d="M-398.643 395.897a7.015 15.406 0 0 0-.786 1.717h10.563a7.015 15.406 0 0 0-.794-1.717z" fill="#d3d3d3" paint-order="stroke fill markers"/><rect x="-402.7" y="407.99" width="3.416" height="2.789" ry="0" fill="#d3d3d3" paint-order="stroke fill markers"/><rect x="-399.29" y="407.99" width="3.416" height="2.789" ry="0" fill="#c4c4c4" paint-order="stroke fill markers"/><rect x="-395.87" y="407.99" width="3.416" height="2.789" ry="0" fill="#b6b6b6" paint-order="stroke fill markers"/><rect x="-392.46" y="407.99" width="3.416" height="2.789" ry="0" fill="#a7a7a7" paint-order="stroke fill markers"/><rect x="-389.04" y="407.99" width="3.416" height="2.789" ry="0" fill="#8a8a8a" paint-order="stroke fill markers"/><g fill="#d8e5f5" paint-order="stroke fill markers"><rect transform="rotate(45)" x="3.722" y="557.57" width="1.006" height="1.006" ry="0"/><rect transform="scale(-1 1) rotate(45)" x="561.15" y=".144" width="1.006" height="1.006" ry="0"/><rect transform="rotate(45)" x="3.943" y="561.37" width="1.006" height="1.006" ry="0"/><rect transform="rotate(45)" x="7.333" y="557.98" width="1.006" height="1.006" ry="0"/><rect transform="scale(-1 1) rotate(45)" x="564.76" y=".554" width="1.006" height="1.006" ry="0"/><rect transform="rotate(45)" x="7.894" y="561.2" width="1.16" height="1.16" ry="0"/><rect transform="scale(-1 1) rotate(45)" x="565.32" y="3.768" width="1.16" height="1.16" ry="0"/><rect transform="rotate(45)" x="7.826" y="565.26" width="1.145" height="1.145" ry="0"/><rect transform="rotate(45)" x="11.685" y="561.4" width="1.145" height="1.145" ry="0"/><rect transform="scale(-1 1) rotate(45)" x="569.12" y="3.968" width="1.145" height="1.145" ry="0"/></g><path d="M-403.405 410.766s-.05.706-.496 1.12c-.447.413-.992.48-.992.48h21.464s-.546-.067-.993-.48c-.446-.414-.496-1.12-.496-1.12H-402.7z" fill="#d3d3d3"/><path d="M-389.435 412.38h-4.718v2.45h3.323s.162-.109.375-.29c.212-.18.477-.432.684-.721.103-.145.176-.335.228-.539s.083-.421.1-.62c.014-.154.005-.162.007-.28z" fill="#b6b6b6"/><path d="M-389.435 412.38c-.003.118.006.126-.007.28-.018.199-.049.416-.1.62s-.126.394-.23.539c-.206.29-.47.542-.683.722-.213.18-.374.288-.374.288h3.367s.199-.108.449-.288.552-.433.758-.722c.207-.29.364-.76.47-1.16.04-.153.035-.161.06-.279z" fill="#a7a7a7"/><path d="M-385.731 412.38c-.025.118-.02.126-.061.28-.106.398-.263.87-.47 1.159-.206.29-.508.542-.758.722-.25.18-.449.288-.449.288h4.409s.06-1.142.596-1.639c.536-.496 1.19-.81 1.19-.81z" fill="#8a8a8a"/><path d="M-390.838 414.814h-3.323v2.233h3.919c.011-.263.034-.543 0-.911-.025-.265-.174-.595-.317-.86-.142-.264-.279-.462-.279-.462z" fill="#b6b6b6"/><path d="M-390.838 414.814s.137.198.28.462c.142.265.29.595.316.86.034.368.011.648 0 .911h3.712c-.071-.263-.161-.543-.196-.911-.025-.265-.21-.595-.39-.86-.18-.264-.354-.462-.354-.462z" fill="#a7a7a7"/><path d="M-387.477 414.814s.173.198.353.462c.18.265.366.595.39.86.035.368.125.648.197.911h4.058s-.595-.493-1.08-.944c-.487-.45-.541-1.289-.541-1.289h-.767z" fill="#8a8a8a"/><path d="M-395.785 417.037c-.037.003-.096.026-.19.102a2.72 2.72 0 0 0-.541.62 3.939 3.939 0 0 0-.502 1.133 4.64 4.64 0 0 0-.138.763 5.421 5.421 0 0 0-.01.89h6.008a5.427 5.427 0 0 0-.01-.89 4.643 4.643 0 0 0-.138-.763 3.94 3.94 0 0 0-.502-1.133 2.72 2.72 0 0 0-.54-.62c-.127-.101-.189-.11-.221-.097h-3.186a.074.074 0 0 0-.03-.005z" fill="#c4c4c4"/><path d="M-385.096 417.063h-4.105c.01-.042.162-.004.38.117.217.121.5.325.773.615.137.144.271.31.394.498a3.4 3.4 0 0 1 .521 1.384c.039.275.047.571.015.89h4.228v-.006a2.847 2.847 0 0 0-.281-1.667 3.497 3.497 0 0 0-.43-.655 4.353 4.353 0 0 0-.521-.53 4.747 4.747 0 0 0-.975-.645z" fill="#a7a7a7"/><path d="M-385.096 417.063c.281.14.63.349.974.645.182.156.36.333.522.531.163.198.31.416.43.655s.21.496.261.774.062.576.02.893v.006h3.065s.133-.86-.33-2.018-2.4-1.486-2.4-1.486z" fill="#8a8a8a"/><path d="M-392.557 417.063c.032-.013.095-.004.22.098.153.122.35.328.541.62.191.291.376.668.502 1.133.062.232.11.487.138.763.026.275.031.572.01.89h4.024a3.725 3.725 0 0 0-.015-.89 3.368 3.368 0 0 0-.522-1.384 3.587 3.587 0 0 0-.393-.498 3.343 3.343 0 0 0-.774-.615c-.217-.121-.369-.16-.38-.117z" fill="#b6b6b6"/><path d="M-398.88 412.37h4.718v2.449h-3.324s-.161-.108-.374-.288a4.145 4.145 0 0 1-.684-.722 1.632 1.632 0 0 1-.229-.54 3.973 3.973 0 0 1-.1-.62c-.013-.153-.005-.161-.007-.279z" fill="#c4c4c4"/><path d="M-398.88 412.37c.002.118-.006.126.007.28.018.199.048.416.1.62.052.204.125.394.229.539.206.29.47.541.684.722.213.18.374.288.374.288h-3.368s-.198-.108-.448-.288-.552-.433-.759-.722c-.207-.29-.364-.761-.47-1.16-.04-.153-.035-.161-.06-.279z" fill="#d3d3d3"/><path d="M-402.59 412.37c.025.118.02.126.061.28.105.398.263.87.47 1.159.206.289.508.541.758.722.25.18.448.288.448.288h-4.408s-.06-1.143-.596-1.64a5.468 5.468 0 0 0-1.191-.809z" fill="#e1e1e1"/><path d="M-397.49 414.82h3.324v2.233h-3.92c-.01-.263-.034-.543 0-.912.025-.264.174-.595.317-.859.143-.264.279-.462.279-.462z" fill="#c4c4c4"/><path d="M-397.49 414.82s-.136.198-.28.462c-.142.264-.29.595-.315.86-.035.368-.012.648 0 .91h-3.713c.072-.262.162-.542.196-.91.025-.265.211-.596.39-.86.18-.264.354-.462.354-.462z" fill="#d3d3d3"/><path d="M-400.85 414.82s-.174.198-.353.462c-.18.264-.366.595-.391.86-.035.368-.125.648-.196.91h-4.058s.594-.493 1.08-.943c.487-.45.54-1.289.54-1.289h.767z" fill="#e1e1e1"/><path d="M-403.21 417.06h4.105c-.01-.043-.162-.004-.38.117-.217.121-.5.325-.773.614-.137.145-.271.311-.394.498a3.4 3.4 0 0 0-.521 1.385 3.736 3.736 0 0 0-.015.89h-4.229v-.006a2.846 2.846 0 0 1 .281-1.667c.12-.239.267-.457.43-.655.162-.198.34-.375.521-.53.345-.298.693-.505.975-.646z" fill="#e1e1e1"/><path d="M-403.21 417.06c-.282.14-.63.348-.975.645-.18.156-.359.333-.522.53-.162.198-.31.417-.428.655a2.843 2.843 0 0 0-.282 1.667v.006h-3.065s-.132-.86.33-2.017 2.4-1.486 2.4-1.486z" fill="#f0f0f0"/><path d="M-395.76 417.06c-.033-.013-.095-.004-.221.098a2.72 2.72 0 0 0-.54.62 3.94 3.94 0 0 0-.502 1.133 4.638 4.638 0 0 0-.138.763 5.411 5.411 0 0 0-.01.89h-4.024a3.725 3.725 0 0 1 .015-.89 3.366 3.366 0 0 1 .521-1.385c.123-.187.257-.353.394-.498.273-.289.556-.493.774-.614.217-.121.368-.16.38-.117z" fill="#d3d3d3"/><path d="M-394.171 391.426a4.51 4.15 0 0 0-4.511 4.15 4.51 4.15 0 0 0 .017.336h8.986a4.51 4.15 0 0 0 .018-.336 4.51 4.15 0 0 0-4.51-4.15z" fill="#e1e1e1" paint-order="stroke fill markers"/></g><g paint-order="stroke fill markers"><path d="M716.543 2068.298h29.413l-4.03 7.658h-21.352z" fill="#e4edf8"/><path d="M716.543 2066.568h29.413v1.721h-29.413z" fill="#c1a0b5"/><path d="M728.206 2027.29h6.097l.69 39.278h-7.477z" fill="#e4edf8"/><path d="M737.884 2021.562H724.59v3.498l3.6 2.236h6.096l3.598-2.236z" fill="#bee19b"/><path d="M728.679 2001.326s9.034 7.18 7.397 13.446-8.853 6.388-10.187 1.643c-1.334-4.746 7.276-9.917 2.79-15.089z" fill="#f9ae69"/><path d="M728.701 2001.317a6.5 6.5 0 0 1 .31.392c-.19-.245-.31-.392-.31-.392zm.31.392s0 .006.006.006c.022.029.05.058.07.087-.022-.03-.05-.062-.073-.093zm.106.146c3.483 4.991-4.493 9.97-3.205 14.55.049.175.111.331.169.494.756 1.906 2.542 2.888 4.422 2.839 1.21-.525 2.345-1.966 3-4.476 1.391-5.324-3.019-11.62-4.386-13.408z" fill="#f9d95b"/><path d="M723.329 2018.68l.062 1.81 1.244 1.064h13.294l1.243-1.064.062-1.81z" fill="#f9a95f"/><path d="M715.15 2075.784h32.126v1.153H715.15z" fill="#b6b6b6"/><path d="M714.89 2076.945h32.644v1.152H714.89z" fill="#d7ecee"/><path d="M714.701 2078.105h33.092v1.22h-33.092z" fill="#b6b6b6"/><path d="M714.418 2079.314h33.595v1.152h-33.595z" fill="#d7ecee"/><path d="M714.111 2080.474h34.216v1.153h-34.216z" fill="#b6b6b6"/><path d="M713.875 2081.612h34.757v1.22h-34.757z" fill="#d7ecee"/><path d="M713.497 2082.843h35.41v1.153h-35.41z" fill="#b6b6b6"/><path d="M713.12 2083.98h36.16v1.153h-36.16z" fill="#d7ecee"/><path d="M712.836 2085.141h36.818v1.22h-36.818z" fill="#b6b6b6"/><path d="M729.576 2073.9v1.898h3.411v-1.899z" fill="#f7983f"/><path d="M743.256 2068.258l-3.987 7.575 2.64.083 4.031-7.658z" fill="#bfbfbf"/><path d="M734.76 2053.591c-1.22 4.258-3.164 8.377-6.328 9.742-.3.13-.584.245-.87.362l-.05 2.874h7.477z" fill="#a5d4d8"/></g><g><path d="M779.63 2087.922v5.695c0 .94-.259 1.832-.583 2.67-.088.224-.189.383-.29.564-.033.06-.067.123-.1.191-.178.37-.208.345-.386.66a61.27 61.27 0 0 1-.765 1.32c-.218.369-.371.622-.371.622h-2.1c0 1.055.465 1.905 1.042 1.905h27.266c.578 0 1.043-.85 1.043-1.905h-2.102s-.154-.253-.375-.622c-.22-.37-.506-.855-.77-1.32-.134-.236-.185-.281-.277-.445a3.776 3.776 0 0 1-.11-.215c-.067-.137-.136-.25-.203-.368-.028-.05-.056-.1-.083-.153l-.015-.029a2.333 2.333 0 0 1-.092-.205h.001c-.324-.837-.58-1.73-.57-2.67v-5.695z" fill="#f2f2f2"/><path d="M779.04 2096.283c-.115.3-.256.482-.388.756-.178.37-.208.344-.386.66-.524.93-1.137 1.942-1.137 1.942h25.15s-.618-1.012-1.145-1.942c-.18-.315-.21-.29-.388-.66-.133-.274-.276-.456-.392-.756z" fill="#e0e2e2"/><path d="M779.63 2087.922v2.002h20.16v-2.002z" fill="#eaeaea"/><path d="M842.923 2078.378H736.486v6.8a2.74 2.74 0 0 0 2.732 2.741h100.969a2.74 2.74 0 0 0 2.732-2.741z" fill="#f2f2f2"/><path d="M742.255 2016.424c-3.18 0-5.765 2.565-5.765 5.718v56.237h106.437v-56.237c0-3.153-2.587-5.718-5.766-5.718z" fill="#f2f2f2"/><path d="M842.614 2078.378H736.795v6.607a2.725 2.725 0 0 0 2.717 2.726h100.379a2.725 2.725 0 0 0 2.717-2.726z" fill="#d1d3d4"/><path d="M742.531 2016.633c-3.161 0-5.732 2.55-5.732 5.686v56.061h105.819v-56.061c0-3.135-2.573-5.686-5.734-5.686z" fill="#d8e5f5"/><path d="M842.34 2078.645H737.07v6.076a2.71 2.71 0 0 0 2.701 2.712h99.868a2.711 2.711 0 0 0 2.703-2.712z" fill="#e0e2e2"/><path d="M742.774 2016.814c-3.144 0-5.702 2.537-5.702 5.656v55.914h105.271v-55.914c0-3.119-2.558-5.656-5.702-5.656z" fill="#cddef2"/><path d="M841.988 2078.97h-104.56v5.746a2.35 2.35 0 0 0 2.346 2.354h99.868a2.35 2.35 0 0 0 2.346-2.354z" fill="#f2f2f2"/><path d="M742.774 2017.167c-2.952 0-5.346 2.372-5.346 5.298v55.914h104.559v-55.914c0-2.926-2.394-5.298-5.347-5.298z" fill="#c2d7ef"/><path d="M741.869 2021.102v52.564h95.673v-52.564z" fill="#76a4da"/><path d="M791.568 2079.849c-.687 0-1.115.503-1.254.992-.07.245-.077.491-.006.7.072.21.261.39.506.39.244 0 .472-.133.686-.31.214-.176.41-.404.55-.64.14-.237.235-.484.177-.726a.497.497 0 0 0-.227-.307.83.83 0 0 0-.432-.1zm-1.948.217a.642.642 0 0 0-.482.328.98.98 0 0 0-.101.533c.011.18.058.354.136.498.078.144.195.28.38.292a.373.373 0 0 0 .258-.093.76.76 0 0 0 .165-.198c.092-.152.159-.338.192-.53.034-.19.039-.384-.038-.558a.467.467 0 0 0-.194-.22.508.508 0 0 0-.316-.053zm1.948.138c.13 0 .21.024.251.05s.054.043.064.084c.019.08-.022.266-.137.462-.115.195-.29.399-.47.547s-.367.23-.462.23c-.095 0-.132-.036-.17-.15a.88.88 0 0 1 .01-.488c.106-.374.395-.735.914-.735zm-1.902.214c.056-.007.081.001.097.01s.03.022.044.054a.71.71 0 0 1 .013.353 1.26 1.26 0 0 1-.146.407c-.032.051-.065.09-.087.107s-.025.013-.012.014c.004 0-.043-.02-.09-.108a.91.91 0 0 1-.095-.35c-.008-.131.014-.258.059-.341s.099-.13.217-.146zm-1.18.114a.582.582 0 0 0-.487.436.867.867 0 0 0 .035.481c.05.15.13.287.23.393s.234.2.404.165c.178-.037.251-.187.296-.326a1.32 1.32 0 0 0 .056-.457 1.011 1.011 0 0 0-.112-.455c-.077-.137-.238-.256-.422-.237zm.038.353c.04-.004.041-.002.075.058.034.06.063.175.068.295s-.011.248-.039.333c-.028.085-.066.095-.031.088.016-.004-.021-.002-.077-.062a.76.76 0 0 1-.15-.262.548.548 0 0 1-.027-.283c.018-.073.045-.117.134-.153a.17.17 0 0 1 .047-.014zm-.86.378a.434.434 0 0 0-.26.083.545.545 0 0 0-.234.43c-.004.156.05.3.124.426.074.124.17.231.281.306.11.076.253.137.405.07.149-.066.19-.208.206-.331a1.143 1.143 0 0 0-.021-.39 1.067 1.067 0 0 0-.15-.373c-.075-.111-.193-.216-.352-.221zm-.012.355c.007 0 .031.007.07.065s.076.151.097.249c.02.098.025.2.016.266-.009.067-.035.071.002.055.022-.01-.005.001-.062-.038a.664.664 0 0 1-.177-.196.476.476 0 0 1-.074-.234c.001-.063.014-.1.08-.147.031-.021.043-.02.048-.02zm2.503.206c-.499-.009-1.065.11-1.548.36-.483.25-.89.644-1.01 1.184-.132.593.132 1.25.575 1.764.442.516 1.077.902 1.755.902.706 0 1.447-.592 1.594-1.377a.424.424 0 0 0-.042-.285.433.433 0 0 0-.196-.174.926.926 0 0 0-.492-.062 1.27 1.27 0 0 0-.476.14.583.583 0 0 0-.185.148.35.35 0 0 0-.076.255c.02.155-.03.225-.085.256s-.151.038-.286-.066c-.122-.093-.168-.166-.18-.208-.01-.042-.006-.07.034-.132.08-.121.326-.297.613-.476s.613-.37.867-.608c.254-.237.449-.549.387-.915-.041-.248-.223-.433-.448-.542s-.501-.16-.8-.165zm-.006.355c.263.004.495.052.653.128.158.077.234.167.253.282.037.218-.067.398-.28.596-.211.198-.52.386-.812.567-.29.18-.565.346-.72.581a.524.524 0 0 0-.08.422c.04.15.147.276.305.397.215.165.474.203.672.094.197-.109.3-.35.266-.612 0 .01-.007.02.002.01a.278.278 0 0 1 .076-.057.985.985 0 0 1 .343-.098.673.673 0 0 1 .306.03c.028.013.036.024.039.03.003.004.007.01.001.042-.111.593-.753 1.088-1.246 1.088-.54 0-1.098-.325-1.487-.778-.39-.454-.594-1.023-.498-1.456.091-.409.406-.726.828-.945a3.025 3.025 0 0 1 1.38-.321z" color="#000" fill="#acc8e9" style="font-feature-settings:normal;font-variant-alternates:normal;font-variant-caps:normal;font-variant-ligatures:normal;font-variant-numeric:normal;font-variant-position:normal;isolation:auto;mix-blend-mode:normal;shape-padding:0;text-decoration-color:#000;text-decoration-line:none;text-decoration-style:solid;text-indent:0;text-orientation:mixed;text-transform:none;white-space:normal"/><path d="M791.567 2080.022c-1.207 0-1.433 1.728-.754 1.728s1.961-1.728.754-1.728zm-1.925.216c-.679.088-.44 1.275-.078 1.298.36.022.758-1.387.078-1.298zm-1.138.467a.348.348 0 0 0-.096.025c-.545.227-.082 1.161.223 1.099.287-.06.32-1.172-.127-1.124zm-.847.731a.252.252 0 0 0-.154.052c-.437.304.147 1.037.404.923.225-.1.082-.964-.25-.975zm2.494.56c-.936-.015-2.172.458-2.382 1.406-.229 1.027.94 2.45 2.157 2.45.6 0 1.29-.543 1.42-1.232.099-.526-1.162-.315-1.117.032.054.417-.304.623-.655.354-1.118-.855 1.85-1.282 1.655-2.45-.061-.364-.516-.55-1.078-.56z" fill="#4a88cf"/><path d="M837.541 2021.102l-95.673 52.564h95.673z" fill="#6096d4"/><g paint-order="stroke fill markers"><path d="M741.867 2030.817v38.067h4.028c.52 0 .94-.42.94-.943v-36.18a.939.939 0 0 0-.94-.943z" fill="#a1c1e6"/><path d="M742.995 2064.51h2.546c.234 0 .422.188.422.422v2.555a.422.422 0 0 1-.422.423h-2.546a.422.422 0 0 1-.422-.423v-2.555c0-.234.188-.423.422-.423z" fill="#76a4da"/><g transform="matrix(.423 0 0 .42443 753.736 1800.85)" fill="#fff"><circle cx="-24.134" cy="623.47" r=".421"/><circle cx="-22.383" cy="623.47" r=".421"/><circle cx="-20.632" cy="623.47" r=".421"/><circle transform="rotate(90)" cx="625.22" cy="24.134" r=".421"/><circle transform="rotate(90)" cx="626.97" cy="24.134" r=".421"/><circle transform="rotate(90)" cx="625.22" cy="22.383" r=".421"/><circle transform="rotate(90)" cx="626.97" cy="22.383" r=".421"/><circle transform="rotate(90)" cx="625.22" cy="20.632" r=".421"/><circle transform="rotate(90)" cx="626.97" cy="20.632" r=".421"/></g></g><g transform="matrix(.44918 0 0 .4507 762.843 1784.441)" paint-order="stroke fill markers"><path d="M1.194 546.61v11.964h6.983l4.119-4.119v-7.845z" fill="#d8e5f5"/><rect x="1.401" y="559.77" width="10.688" height="1.06" ry=".53" fill="#fff"/><path d="M1.194 568.22v11.964h6.983l4.119-4.119v-7.845z" fill="#d8e5f5"/><rect x="1.401" y="581.37" width="10.688" height="1.06" ry=".53" fill="#fff"/><path d="M1.194 589.83v11.964h6.983l4.119-4.119v-7.845z" fill="#d8e5f5"/><rect x="1.401" y="602.98" width="10.688" height="1.06" ry=".53" fill="#fff"/><path d="M1.194 611.43v11.964h6.983l4.119-4.119v-7.845z" fill="#d8e5f5"/><rect x="1.401" y="624.59" width="10.688" height="1.06" ry=".53" fill="#fff"/><path d="M22.37 546.61v11.964h6.983l4.118-4.119v-7.845z" fill="#d8e5f5"/><rect x="22.577" y="559.77" width="10.688" height="1.06" ry=".53" fill="#fff"/><path d="M22.37 568.22v11.964h6.983l4.118-4.119v-7.845z" fill="#d8e5f5"/><rect x="22.577" y="581.37" width="10.688" height="1.06" ry=".53" fill="#fff"/><path d="M22.37 589.83v11.964h6.983l4.118-4.119v-7.845z" fill="#d8e5f5"/><rect x="22.577" y="602.98" width="10.688" height="1.06" ry=".53" fill="#fff"/><path d="M22.37 611.43v11.964h6.983l4.118-4.119v-7.845z" fill="#d8e5f5"/><rect x="22.577" y="624.59" width="10.688" height="1.06" ry=".53" fill="#fff"/><path d="M43.545 546.61v11.964h6.983l4.118-4.119v-7.845z" fill="#d8e5f5"/><rect x="43.752" y="559.77" width="10.688" height="1.06" ry=".53" fill="#fff"/><path d="M43.545 568.22v11.964h6.983l4.118-4.119v-7.845z" fill="#d8e5f5"/><rect x="43.752" y="581.37" width="10.688" height="1.06" ry=".53" fill="#fff"/><path d="M43.545 589.83v11.964h6.983l4.118-4.119v-7.845z" fill="#d8e5f5"/><rect x="43.752" y="602.98" width="10.688" height="1.06" ry=".53" fill="#fff"/><path d="M43.545 611.43v11.964h6.983l4.118-4.119v-7.845z" fill="#d8e5f5"/><rect x="43.752" y="624.59" width="10.688" height="1.06" ry=".53" fill="#fff"/><path d="M64.721 546.61v11.964h6.983l4.118-4.119v-7.845z" fill="#d8e5f5"/><rect x="64.927" y="559.77" width="10.688" height="1.06" ry=".53" fill="#fff"/><path d="M64.721 568.22v11.964h6.983l4.118-4.119v-7.845z" fill="#d8e5f5"/><rect x="64.927" y="581.37" width="10.688" height="1.06" ry=".53" fill="#fff"/><path d="M64.721 589.83v11.964h6.983l4.118-4.119v-7.845z" fill="#d8e5f5"/><rect x="64.927" y="602.98" width="10.688" height="1.06" ry=".53" fill="#fff"/><path d="M64.721 611.43v11.964h6.983l4.118-4.119v-7.845z" fill="#d8e5f5"/><rect x="64.927" y="624.59" width="10.688" height="1.06" ry=".53" fill="#fff"/><path d="M85.896 546.61v11.964h6.983l4.118-4.119v-7.845z" fill="#d8e5f5"/><rect x="86.103" y="559.77" width="10.688" height="1.06" ry=".53" fill="#fff"/><path d="M85.896 568.22v11.964h6.983l4.118-4.119v-7.845z" fill="#d8e5f5"/><rect x="86.103" y="581.37" width="10.688" height="1.06" ry=".53" fill="#fff"/><path d="M85.896 589.83v11.964h6.983l4.118-4.119v-7.845z" fill="#d8e5f5"/><rect x="86.103" y="602.98" width="10.688" height="1.06" ry=".53" fill="#fff"/><path d="M85.896 611.43v11.964h6.983l4.118-4.119v-7.845z" fill="#d8e5f5"/><rect x="86.103" y="624.59" width="10.688" height="1.06" ry=".53" fill="#fff"/><path d="M107.07 546.61v11.964h6.983l4.118-4.119v-7.845z" fill="#d8e5f5"/><rect x="107.28" y="559.77" width="10.688" height="1.06" ry=".53" fill="#fff"/><path d="M107.07 568.22v11.964h6.983l4.118-4.119v-7.845z" fill="#d8e5f5"/><rect x="107.28" y="581.37" width="10.688" height="1.06" ry=".53" fill="#fff"/><path d="M107.07 589.83v11.964h6.983l4.118-4.119v-7.845z" fill="#d8e5f5"/><rect x="107.28" y="602.98" width="10.688" height="1.06" ry=".53" fill="#fff"/><path d="M107.07 611.43v11.964h6.983l4.118-4.119v-7.845z" fill="#d8e5f5"/><rect x="107.28" y="624.59" width="10.688" height="1.06" ry=".53" fill="#fff"/></g><g paint-order="stroke fill markers"><path d="M780.187 2069.715a.75.75 0 0 0-.75.752v1.162a.75.75 0 0 0 .75.753h9.515v-2.667z" fill="#a1c1e6"/><path d="M789.702 2069.715v2.667h9.515a.75.75 0 0 0 .75-.752v-1.163a.75.75 0 0 0-.75-.752z" fill="#c2d7ef"/></g><path d="M777.846 2024.871a.934.934 0 0 0-.934.938v1.448c0 .52.417.937.934.937h23.716a.934.934 0 0 0 .935-.937v-1.448a.934.934 0 0 0-.935-.938h-11.857z" fill="#c2d7ef" paint-order="stroke fill markers"/></g><g><path d="M761.075 2076.7s1.775 2.857 3.054 4.057 2.378 1.597 2.378 1.597-2.48 3.074-4.29 5.094c-1.808 2.02-3.246 4.384-3.246 4.384l1.341 1.76s5.839-5.507 8.521-7.742c2.682-2.236 2.682-3.167 2.538-3.871-.145-.704-3.15-7.078-5.66-8.747-3.54-2.145-5.544 2-4.635 3.468z" fill="#ae879f"/><path d="M761.984 2073.333c-1.027.936-1.406 2.545-.908 3.35 0 0 1.775 2.857 3.054 4.057 1.279 1.201 2.377 1.598 2.377 1.598s-2.48 3.073-4.288 5.093c-1.81 2.02-3.247 4.384-3.247 4.384l.597.784c2.973-3.156 7.747-8.278 8.514-9.413.8-1.183-3.59-6.809-6.1-9.853z" fill="#9a6c89"/><path d="M778.777 2093.421s-.907-8.901-1.155-10.475c-.248-1.573-3.837-5.258-6.685-7.162-2.847-1.905-3.3-1.822-3.3-1.822s-4.271-2.256-5.757-.372-.99 4.036 2.744 6.106 8.81 3.105 8.81 3.105.046 2.3 1.126 4.496c1.08 2.195 2.013 6.997 2.013 6.997s1.637-.37 2.204-.873z" fill="#c1a0b5"/><path d="M761.104 2075.51c-.033 1.36 1.012 2.786 3.52 4.177 3.735 2.07 8.81 3.105 8.81 3.105s.046 2.3 1.126 4.495c1.08 2.196 2.013 6.997 2.013 6.997s.45-.103.958-.271c-.305-2.22-.963-6.682-1.688-9.42-.992-3.746-1.692-3.864-6.827-5.269-3.184-.871-6.051-2.575-7.912-3.814z" fill="#a47994"/><path d="M762.335 2059.372c1.315.57 3.063-.03 6.623-5.006 3.56-4.977 3.21-5.562 3.21-5.562l-1.313-.996s-1.78 2.284-4.085 4.245-9.214 5.247-4.435 7.319z" fill="#97bae3"/><path d="M763.093 2047.22s.934.499 1.576 1.582c.642 1.083 1.342 1.346 1.342 1.346l-.52.528s.474 1.118.598 2.09c.124.974-.289.912-.68.994-.393.083-2.126.125-2.126.125s.062 1.863-.516 2.98c-.577 1.118-2.888 1.408-2.888-2.132s-.463-9.166 3.214-7.512z" fill="#ffb978"/><path d="M764.83 2057.444c-1.898-2.633-5.612-2.194-7.262 1.284-1.65 3.478-.454 6.873.536 9.067s2.393 5.01 1.692 6.79c-.702 1.78-.702 3.353 1.073 3.643 1.774.29 2.352-1.45 3.713-3.437s3.054-.828 3.054-.828-.95-2.567-.702-6.003c.167-5.377-.074-7.7-2.104-10.516z" fill="#97bae3"/><path d="M771.528 2048.309c-.662 1.946-1.855 4.46-3.973 6.52-2.327 2.264-4.744 3.317-6.397 3.806.264.255.649.499 1.177.728 1.316.57 3.064-.03 6.623-5.006 3.56-4.977 3.21-5.563 3.21-5.563z" fill="#76a4da"/><path d="M762.506 2055.835c-.718 2.163-.259 5.475.501 9.088.718 3.412 2.503 5.217 4.009 6.158-.108-.9-.164-1.962-.08-3.13.167-5.376-.074-7.699-2.104-10.515-.625-.867-1.447-1.399-2.327-1.601z" fill="#76a4da"/><path d="M763.056 2064.44c-.194-.28-3.342-5.175-.99-6.665s4.622 1.946 5.488 4.264 1.073 2.443 1.073 2.443l2.352-4.72s.722.514 1.043.924c.32.41.262.527.262.527s-.904 4.333-1.984 6.118-4.052 1.724-7.244-2.89z" fill="#97bae3"/><path d="M761.327 2058.72c-.68 1.994 1.567 5.486 1.73 5.722 3.191 4.615 6.164 4.677 7.244 2.89 1.08-1.785 1.983-6.117 1.983-6.117s.059-.118-.262-.528a3.704 3.704 0 0 0-.483-.477c-.155 2.937-.772 6.83-2.953 6.882-2.874.067-5.94-5.733-7.259-8.372z" fill="#76a4da"/><path d="M763.572 2045.726s.66-.724 1.052-.703c.392.02 1.465 1.676-.145 2.67-1.609.994-2.063 1.366-2.145 2.07-.083.704-.145 1.387-.537.807s-1.155.083-1.01.787c.144.704.99.683.37 1.801-.618 1.118-1.464 1.325-2.826.497-1.361-.828-1.836-1.18-1.877-2.34-.041-1.159-1.857-1.304-.206-2.587 1.65-1.283 1.072-2.753 2.166-2.484 1.093.269 1.403-1.097 2.476-1.097s2.104 1.097 2.682.58z" fill="#306db3"/><path d="M783.354 2098.143s.36.545-3.587-.654c-3.947-1.198-3.648-1.634-3.215-2.352.433-.718 1.151.372 2.035-.072.883-.444 1.632.955 2.935 1.674 1.304.72 2.026.723 1.832 1.404zM760.073 2099.731s-.158.61-1.842-3.001c-1.683-3.611-1.179-3.677-.387-3.827.791-.15.474 1.068 1.36 1.418.886.35.368 1.788.693 3.19.325 1.4.788 1.921.176 2.22z" fill="#8cb3e0"/><path d="M773.276 2047.163c-.044.073-.642 1.025-.905 1.157-.262.131-.963-.132-1.167-.864-.204-.732.627-1.654 1.138-1.58.51.072.817.467.817.467s1.036-1.566 1.4-1.302c.365.263-1.254 1.947-1.283 2.122z" fill="#ffb978"/><path d="M770.809 2053.163h2.924c.309 0 .537.25.51.56l-.345 4.152a.618.618 0 0 1-.605.56h-2.923a.505.505 0 0 1-.512-.56l.346-4.152a.618.618 0 0 1 .605-.56z" fill="#5e5e5e" paint-order="stroke fill markers"/><path d="M771.03 2053.632h2.404c.254 0 .441.205.42.46l-.284 3.413a.508.508 0 0 1-.497.46h-2.404a.415.415 0 0 1-.42-.46l.285-3.413a.508.508 0 0 1 .497-.46z" fill="#d8e5f5" paint-order="stroke fill markers"/><path d="M771.99 2060.217s.784.124 1.01-.704c.228-.828-.102-1.077-.102-1.077l-1.053-.02s.089-.527.001-.673c-.087-.146-.51.015-.641.937-.132.922.053.936.785 1.537z" fill="#ffb978"/></g><g><path d="M817.15 2059.662s-4.374 4.181-6.809 8.28c-2.434 4.099-1.857 4.347.743 5.92s8.747 3.685 10.398 3.975c1.65.29 1.836.207 1.836.207s-.185-1.056-.227-1.573l-.062-.807s-5.426-2.899-7.18-3.644c-1.753-.745-2.537-.91-1.815-1.635s7.737-5.714 8.645-7.742c.908-2.029-2.806-4.844-5.53-2.981z" fill="#ae879f"/><path d="M822.514 2060.942a6.488 6.488 0 0 0-1.218.902c-.16.08-6.64 6.703-8.44 8.188-1.8 1.485 4.08 3.05 8.92 5.86.467.271.908.488 1.325.66l-.009-.077c-.041-.518-.062-.808-.062-.808s-5.426-2.898-7.18-3.643c-1.753-.745-2.537-.91-1.815-1.635s7.736-5.714 8.644-7.742c.245-.547.152-1.151-.165-1.705z" fill="#9a6c89"/><path d="M817.067 2059.828s-1.898 2.815-2.063 8.321c-.165 5.507.66 10.061 2.352 13.58 1.692 3.52 6.272 8.198 6.272 8.198l1.61-2.277s-4.705-4.679-5.53-10.35c-.825-5.673-.495-8.447 1.114-10.807 1.61-2.36 2.063-4.389 1.197-5.838-.867-1.449-3.961-2.608-4.952-.828z" fill="#c1a0b5"/><path d="M817.52 2042.651s-.817.879-1.955.41c-1.138-.468-2.247-.82-2.51.557-.262 1.376-1.4 1.2-2.859 1.054s-1.342.82-1.05 1.785c.292.966 8.812 2.694 10.154 1.113 1.342-1.581-2.189-.878-3.21-1.61-1.021-.732 2.889-2.05 2.889-2.05z" fill="#306db3"/><path d="M820.56 2059.394c-1.458 2.946-3.95 9.05-3.025 14.963 1.208 7.726 4.48 11.591 7.132 14.094l.57-.808s-4.703-4.678-5.529-10.35c-.825-5.672-.495-8.446 1.114-10.806s2.063-4.389 1.197-5.838c-.29-.485-.832-.934-1.458-1.255z" fill="#a47994"/><path d="M806.71 2043.684s2.022 3.892 7.386 3.436 8.665-.993 11.43 2.981c2.764 3.975 3.755 7.411 3.755 7.411l-2.765.663s-.681-2.114-1.265-3.138a13.22 13.22 0 0 0-1.196-1.757s.11 6.22-.015 8.87c-.124 2.65-1.898 2.484-3.796.993-1.898-1.49-4.621-2.732-3.425-4.098 1.197-1.367 1.65-3.85 1.362-5.797-.289-1.946-.33-2.07-.33-2.07s-5.075-.124-8.046-1.573c-2.971-1.45-4.127-2.484-4.127-2.484s.99-2.691 1.032-3.437z" fill="#97bae3"/><path d="M817.315 2038.608s-.35 1.988-.681 2.319c-.33.331-.516.455-.516.455s.29.414.413.89c.124.476.289 1.16.289 1.76s-.062 1.47 2.6-.062c3.817 5.892 3.359-7.499-2.105-5.362z" fill="#ffb978"/><path d="M821.535 2049.843s1.32 4.777 1 8.51c-.272 3.184-1.448 4.146-2.731 4.46.15.11.298.22.44.331 1.898 1.49 3.672 1.656 3.796-.993.124-2.65.015-8.87.015-8.87s.613.732 1.196 1.757c.584 1.025 1.265 3.138 1.265 3.138l1.274-.305c-.635-1.424-1.931-4.196-2.895-5.339-1.32-1.565-3.36-2.689-3.36-2.689z" fill="#76a4da"/><path d="M819.27 2042.406s.584-1.156-.86-2.196c-1.444-1.04-1.999-1.464-1.021-2.65.977-1.185 4.114-.98 5.31.513 1.196 1.493.93 2.363.682 3.315s-.454 1.284.33 2.774-.537 1.573-.764 2.546c-.226.973 1.197 1.843.599 3.023s-2.25 1.014-3.24 2.215c-.99 1.2-2.083 1.387-3.156 0s.578-2.609 1.217-3.043c.64-.435-1.3-2.174.764-3.499 2.063-1.325.032-2.229.14-2.998z" fill="#306db3"/><path d="M805.803 2044.139l-.681 1.677s-.165-.994-.702-.684c-.536.31-.742.828-1.01.466-.269-.362-.124-.497-.124-.497s-.588.31-.66-.186c-.073-.497.164-.528.164-.528s-.825.135-.825-.3.609-.642.609-.642-.134-.497.382-.528c.515-.03 1.114-.03 1.392.56.279.59 1.455.662 1.455.662z" fill="#ffb978"/><path d="M828.315 2060.311l.97.49a.893.893 0 0 1 .44.652l.185 2.155c.022.248-.14.358-.362.246l-.97-.49a.893.893 0 0 1-.44-.651l-.185-2.156c-.021-.248.14-.358.362-.246z" fill="#c2d7ef" paint-order="stroke fill markers"/><path d="M827.907 2059.662c-.184-.007-.3.138-.278.386l.247 2.87c.028.331.29.718.585.867l1.292.653c.296.15.511.003.482-.328l-.246-2.87c-.029-.331-.29-.718-.586-.868l-1.291-.652a.497.497 0 0 0-.205-.058zm.355.837c.04.002.086.014.134.039l.844.426c.193.097.364.35.383.566l.161 1.876c.019.216-.122.312-.315.214l-.844-.426a.778.778 0 0 1-.383-.567l-.161-1.875c-.014-.162.061-.257.181-.253z" fill="#5e5e5e" paint-order="stroke fill markers"/><path d="M829.693 2060.65s-.03-.838-.443-1.438c-.413-.6-1.403-.538-1.496.135-.093.672.433 1.004 1.083 1.521.65.518.856-.217.856-.217z" fill="#ffb978"/><path d="M824.837 2095.328s.255.54 1.188-3.122c.934-3.662.453-3.633-.311-3.633s-.255 1.078-1.018 1.56c-.764.483-.029 1.732-.085 3.094s-.396 1.93.226 2.1zM827.346 2081.668s.537.257-1.043-3.174c-1.58-3.43-1.935-3.104-2.527-2.62s.48.998.192 1.856c-.288.858 1.068 1.36 1.881 2.452s.907 1.748 1.497 1.486z" fill="#8cb3e0"/></g><rect x="691.23" y="1990.5" width="198.44" height="116.42" rx=".433" ry=".321" fill="none" paint-order="markers stroke fill"/></g></svg>