<svg width="144" height="99.999" viewBox="0 0 38.1 26.458" xmlns="http://www.w3.org/2000/svg"><defs><clipPath id="a"><path d="M299.55 306.48h48.113v-48.984H299.55z" clip-rule="evenodd"/></clipPath><clipPath id="b"><path d="M0 0h612v792H0z"/></clipPath><clipPath id="c"><path d="M299.55 306.48h48.113v-48.984H299.55z" clip-rule="evenodd"/></clipPath><clipPath id="d"><path d="M0 0h612v792H0z"/></clipPath></defs><path fill="none" paint-order="markers stroke fill" d="M-.01.04h38.1v26.458H-.01z"/><path d="M10.296 21.49S5.191 11.78 11.961 5.896c6.77-5.882 15.817-.499 18.757 5.606 2.941 6.104-2.997 9.156-9.046 9.156-6.049 0-11.487-.388-11.376.833z" fill="#e6f8fa"/><path d="M18.374 3.36c-2.192.036-4.403.79-6.413 2.536-6.77 5.883-1.665 15.594-1.665 15.594-.025-.28.246-.475.747-.61-1.113-3.076-2.572-9.484 2.417-13.818 4.368-3.796 9.683-2.9 13.696-.149-2.436-2.137-5.589-3.606-8.782-3.553z" fill="#d0f1f6"/><path d="M28.577 17.475v.592s-.107.079-.161-.01l-.054-.088s.01.265.117.285c.108.02.138-.054.138-.054v.456h-.741s-.142-.824-.02-1.148l.123-.324z" fill="#ffb978"/><path d="M27.932 20.783l-.527-2.408H22.89v2.408h2.145l.32-.733.303.733z" fill="#9bdce2"/><path d="M23.143 18.935l.672.791v.839s-.253.073-.26-.18c-.006-.253-.013-.353-.013-.353h-.246v.832h-.16v-.546h-.066v.513h-.153v-.54h-.06v.593l-.146-.206v-2.056z" fill="#ffb978" paint-order="stroke fill markers"/><path d="M24.347 14.323l1.652 1.324.177 2.289H24.15z" fill="#295d99"/><path d="M24.322 17.934v.539h2.535v-.54h-1.803z" fill="#4a88cf" paint-order="stroke fill markers"/><path fill="#306db3" paint-order="stroke fill markers" d="M25.703 18.037h-1.385v.436h1.385z"/><path d="M25.69 15.27l.5-1.402-.215-3.245-1.215 1.664z" fill="#4a88cf"/><path d="M25.964 10.452l.225 3.415-.498 1.402-.998-3.199-.646-.071-.153.42 1.703 3.132 1.157-2.116-.442-2.729-.222-.29z" fill="#295d99"/><path d="M26.092 10.419l.222.29.442 2.729-1.157 2.117-1.703-3.133.216-.593-.368-.935s-.206.126-.836.37c-.63.245-.603.829-.603.829l-.112 7.142s.529-.05 1.129-.203v-4.587l.156 4.545c.436-.122.889-.3 1.19-.553.759-.64.932-2.675.932-2.675s.44 1.916.692 2.488c.253.573 1.81.905 1.81.905l-.945-3.912.505-1.902.785 1.49-.652 2.648h.865l.892-3.127-1.695-3.53z" fill="#4a88cf" paint-order="stroke fill markers"/><path d="M23.817 9.079s-.273.406-.14 1.397.386 1.703.912 1.677c.525-.027.845-.666 1.118-1.145.272-.479.758-.858.312-1.363-.446-.506-1.244-1.877-2.202-.566z" fill="#ffb978"/><path d="M24.818 8.301c-.044 0-.089.003-.135.007-.242.024-.955.138-.993.955-.01.282.1.367.1.367s.018-.287.262-.324l.245-.038s-.113.291.273.259c.386-.033.292-.283.635-.283s.339.353.306.546l-.033.193s.179-.099.23.146c.052.244-.07.696-.338 1.086s-.23.344-.381.066c-.15-.277-.598-.32-.772-.17-.174.151-.122.316-.179.387-.056.07-.2-.192-.2-.192s-.068.272.116.568.677.71 1.096.193c.419-.518 1.039-1.65 1.039-1.65s-.126.201-.211.206c-.085.004-.075-.682.103-.697s.2.013.2.013-.02-.348-.153-.77a1.29 1.29 0 0 0-1.21-.867zm-.242 3.056c.163-.003.307.05.362.254.074.273-.166.393-.166.393s.017-.34-.17-.343c-.186-.003-.143.326-.143.326s-.126-.046-.22-.206c-.092-.16-.053-.366.17-.406a1.07 1.07 0 0 1 .167-.018z" fill="#306db3" paint-order="stroke fill markers"/><g transform="translate(-21.47 -43.02) scale(.41358)"><path d="M86.044 154.27s-.611-8.674.386-10.443c.997-1.77 4.105-2.666 4.105-2.666l4.3-.493s3.402-.38 4.786.843c1.383 1.222 2.332 3.667 2.332 3.667l-7.348 9.092z" fill="#295d99"/><path d="M92.625 150.56s-1.501-1.615-1.98-4.732c-.477-3.116-.11-4.67-.11-4.67l4.3-.487s.417.812.235 2.461c-.181 1.65-1.854 7.223-2.445 7.428z" fill="#4a88cf" paint-order="stroke fill markers"/><path d="M94.836 140.67c.23 1.053-.572 4.02-.572 4.02l1.16 3.003.296-1.479c.295-1.478.228-3.935.228-3.935zm-4.3.488l-1.209 2.008s-.477 3.503.774 6.097 2.115 3.185 2.115 3.185l.091-3.208s-.794-.751-1.276-3.518c-.483-2.767-.496-4.564-.496-4.564z" fill="#306db3" paint-order="stroke fill markers"/><path d="M92.558 143.31l-1.206.933h.659l-.319 10.253 1.684.091-.205-10.419h.523z" fill="#295d99" paint-order="stroke fill markers"/><path d="M86.333 154.55s.082-.487 1.026-1.726c.944-1.24 1.49-2.036 2.673-1.456 1.183.58.99.58.99.58l.13.96s-.551.291-.665-.38c-.041-.333-.949-.758-1.028-.676-.107.11-.007.096.544.448.552.353.757.757.802.905.046.148-.312.568-.676.045-.364-.523-1.003-.764-1.05-.71-.138.157.295.26.608.458.313.2.425.383.356.628-.068.244-.43.167-.7-.157-.273-.275-.597-.287-.639-.226-.051.074.079.224.261.324.33.182.441.16.618.394s-.119.436-.119.436c-.255.18-.553-1.004-1.233.14-.257.434-1.413-.115-1.898.013z" fill="#ffb978"/><rect x="92.961" y="144.09" width="15.089" height="10.263" ry=".772" fill="#fff" paint-order="stroke fill markers"/><g clip-path="url(#a)" transform="matrix(.0632 0 0 -.0632 80.169 167.038)" fill="#4a88cf"><g clip-path="url(#b)"><g clip-path="url(#c)"><g clip-path="url(#d)"><path d="M337.49 306.48c-10.172 0-12.08-14.514-6.358-14.514s16.53 14.514 6.358 14.514zM320.601 293.772c3.047-.186 6.39 11.648.663 10.904-5.724-.744-3.71-10.718-.663-10.904zM306.639 286.418c2.166.956.279 10.302-3.406 7.753-3.683-2.55 1.239-8.708 3.406-7.753zM312.74 291.303c2.58.527 2.72 11.127-1.88 9.226-4.6-1.902-.697-9.754 1.88-9.226zM326.206 267.586c.458-3.502-2.564-5.231-5.524-2.974-9.42 7.187 15.6 10.771 13.95 20.59-1.368 8.149-26.327 5.64-29.169-7.111-1.923-8.624 7.92-20.59 18.19-20.59 5.052 0 10.88 4.571 11.97 10.36.832 4.416-9.799 2.647-9.417-.275z"/></g></g></g></g><path d="M92.486 136.18c-1.294.042-1.828.582-2.045 1.32-.662-.4-.914.598-.565 1.584.11.313.266.505.43.622v.038c0 1.299.719 3.346 2.102 3.425 1.347.077 2.14-.978 2.546-3.02.273-.045.609-.22.805-.775.347-.98.1-1.975-.554-1.592-.137-.804-.674-1.504-2.191-1.594a5.65 5.65 0 0 0-.528-.008z" fill="#ffb978"/><path d="M90.387 139.28s-.322-1.383-.37-2.799.853-1.625.853-1.625-.08-.466.37-.466.675.112.675.112.21-.595.885-.547c.676.049.756.37.756.37s.21-.45.74-.193.434.596.434.596.37-.274.708-.033c.338.242.193.644.193.644s.402-.064.515.402c.112.467-.322.788-.322.788s.274.113.53.065l.258-.049s-.53.483-.772.499l-.241.016s.338.338.724.338h.386s-.965.177-1.094.177h-.129s-.2.732-.273 1.166c-.073.434-.129.555-.129.555s-.093-1.82-.377-2.276c-.284-.454-.74-.01-.74-.01s-.136-.57-.613-.194-1.798.307-1.786.261c.011-.045.466-.398.466-.398s-1.115-.261-1.33.728c-.217.99-.317 1.873-.317 1.873z" fill="#306db3" paint-order="stroke fill markers"/><path d="M92.687 139.23l-.137 1.496.242.016zM94.835 140.67c-.434 1.697-1.2 2.569-2.426 2.499-.931-.054-1.56-.999-1.872-2.007h-.002s.294 2.156 1.989 2.213c1.694.057 2.27-2.09 2.312-2.7l-.001-.005z" fill="#4a88cf" paint-order="stroke fill markers"/></g><g><path d="M13.987 20.783l.468-2.35-.147-.918-.026-.625-1.058-.619c-.69-.174-1.246-.527-2.493.034-1.466.576-.603 2.68-1.18 4.478z" fill="#4a88cf" paint-order="stroke fill markers"/><path d="M11.986 14.195s.233-.34.685-.38c.453-.04.766.373.839.826.073.452.062.567.062.567s.151.188.005.593c-.146.405-.324.64-.324.64s-.781.014-1.186-.334c-.404-.348-.663-.405-.65-.993.015-.588.57-.919.57-.919z" fill="#ffb978"/><path d="M13.168 15.06l.066.456.075-.113z" fill="#4a88cf" paint-order="stroke fill markers"/><path d="M13.278 14.096s-.394-.813-1.292-.474c-.898.34-.911 1.111-.924 1.617s-.46 1.189-.46 1.189c.571.041 1.29.04 1.372-.43-.038.07-.73-.68-.44-1.072.193-.213.2.546.42.719.219.173.352.08.352.08s-.306-.114-.34-.632.635-1.196 1.312-.997z" fill="#306db3" paint-order="stroke fill markers"/><path d="M14.506 18.36l-.535 2.538H12.59s.632-1.335 1.042-2.355c.537-1.383-.137-2.02-.383-2.249 0 0 .896.212 1.083.685.187.472.224 1.207.174 1.38z" fill="#9bdce2" paint-order="stroke fill markers"/><path d="M13.789 18.434h.666v-.519s.046-.18.226-.3.505-.412.505-.412v-.685s-.035-.038-.087-.045l-.059-.007s-.007-.087-.082-.1c-.075-.01-.106-.004-.106-.004s.007-.094-.068-.106c-.075-.011-.101-.004-.101-.004v.449h-.361s-.1.031-.1.174v.142l-.433.432z" fill="#ffb978"/><path d="M13.942 16.617l.14.145.142.072a.164.164 0 0 1 .064-.114l-.173-.088zm.565.214v.147l.592.3.52.264v-.147l-.433-.22z" fill="#4a88cf" paint-order="stroke fill markers"/><path d="M11.82 20.204v.58s.732.02.945-.207c.213-.226.54-1.27.54-1.27l.362-.117s0-.122-.165-.09c-.165.033-.184.048-.184.048l.08-.245.273-.042s.02-.17-.305-.08c-.325.089-.287.075-.287.075s-.65 1.256-.758 1.317c-.108.061-.501.031-.501.031z" fill="#ffb978"/><path d="M11.868 20.862v-.772s-.908-.05-1.431-.012c-.523.037.087-1.033.36-1.754.275-.722.374-1.568 0-1.892-.372-.323-.908-.174-1.318 1.257-.41 1.43-.76 2.489-.535 2.912s.622.261 2.924.261z" fill="#9bdce2"/></g><g transform="translate(-19.282 -43.02) scale(.41358)" paint-order="stroke fill markers"><rect x="112.98" y="124.41" width="14.022" height="5.166" ry=".546" fill="#5d94d4"/><path d="M111.7 127l1.283-.74v1.48z" fill="#5d94d4"/><g transform="translate(.462 -.065)" fill="#fff"><rect x="113.9" y="125.66" width="2.799" height="2.799" ry="0"/><rect x="117.73" y="125.66" width="7.424" height=".45" ry="0"/><rect x="117.71" y="128.01" width="5.124" height=".45" ry="0"/><rect x="117.73" y="126.83" width="7.424" height=".45" ry="0"/></g></g><g transform="matrix(-.41358 0 0 .41358 57.113 -37.682)" paint-order="stroke fill markers"><rect x="112.98" y="124.41" width="14.022" height="5.166" ry=".546" fill="#4a88cf"/><path d="M111.7 127l1.283-.74v1.48z" fill="#4a88cf"/><g transform="translate(.462 -.065)" fill="#fff"><rect x="113.9" y="125.66" width="2.799" height="2.799" ry="0"/><rect x="117.73" y="125.66" width="7.424" height=".45" ry="0"/><rect x="117.71" y="128.01" width="5.124" height=".45" ry="0"/><rect x="117.73" y="126.83" width="7.424" height=".45" ry="0"/></g></g><g transform="matrix(-.41358 0 0 .41358 69.042 -42.431)" paint-order="stroke fill markers"><rect x="118.11" y="124.41" width="8.889" height="5.166" ry=".546" fill="#306db3"/><path d="M125.41 131.59l-1.482-2.018h1.482z" fill="#306db3"/><g transform="matrix(.83335 0 0 1 21.36 -.065)" fill="#fff"><rect x="117.73" y="125.66" width="7.424" height=".45" ry="0"/><rect x="117.71" y="128.01" width="5.124" height=".45" ry="0"/><rect x="117.73" y="126.83" width="7.424" height=".45" ry="0"/></g></g><g><path d="M6.783 19.117s-.873-.476-.716-.75c.157-.276.461-.177.461-.177s-.51-.099-.46-.525.583-.27.583-.27-.103-.383-.245-.765c-.143-.383.372-.658.618-.143s.23.859.23.859.427-.378.633-.04c.206.34-.545.81-.545.81s.432-.201.574.172-.72.873-1.133.829z" fill="#00a3b2"/><path d="M6.775 16.557a.055.055 0 0 0-.047.075s.213.556.247 1.177c.034.622-.083 1.312-.083 1.312A.055.055 0 1 0 7 19.14s.119-.697.084-1.337c-.036-.642-.253-1.21-.253-1.21a.055.055 0 0 0-.056-.035z" color="#000" fill="#006d77" style="font-feature-settings:normal;font-variant-alternates:normal;font-variant-caps:normal;font-variant-ligatures:normal;font-variant-numeric:normal;font-variant-position:normal;isolation:auto;mix-blend-mode:normal;shape-padding:0;text-decoration-color:#000;text-decoration-line:none;text-decoration-style:solid;text-indent:0;text-orientation:mixed;text-transform:none;white-space:normal"/><path d="M6.831 20.783c-.6 0-1.084-.77-1.084-1.729v-.078h2.464v.078c0 .958-.484 1.73-1.085 1.73z" fill="#4a88cf" paint-order="stroke fill markers"/><g fill="#006d77" color="#000"><path d="M7.513 18.393a.055.055 0 0 0-.028.012l-.514.407a.055.055 0 1 0 .067.086l.515-.407a.055.055 0 0 0-.04-.098zM7.62 17.442a.055.055 0 0 0-.028.01l-.153.103c-.085.057-.19.163-.277.257-.087.093-.156.174-.156.174a.055.055 0 1 0 .084.071s.067-.079.152-.17.192-.197.259-.242l.152-.103a.055.055 0 0 0-.032-.1z" style="font-feature-settings:normal;font-variant-alternates:normal;font-variant-caps:normal;font-variant-ligatures:normal;font-variant-numeric:normal;font-variant-position:normal;isolation:auto;mix-blend-mode:normal;shape-padding:0;text-decoration-color:#000;text-decoration-line:none;text-decoration-style:solid;text-indent:0;text-orientation:mixed;text-transform:none;white-space:normal"/><path d="M6.56 17.632a.055.055 0 0 0-.026.098l.196.147c.192.144.248.228.248.228a.055.055 0 1 0 .09-.062s-.07-.102-.271-.253l-.197-.147a.055.055 0 0 0-.04-.011zM6.637 18.41a.055.055 0 0 0-.024.104l.001.001.02.016c.021.018.059.053.12.118a.82.82 0 0 1 .155.224.055.055 0 1 0 .102-.041s-.05-.118-.178-.257a1.591 1.591 0 0 0-.159-.151l-.016-.01a.055.055 0 0 0-.021-.005z" style="font-feature-settings:normal;font-variant-alternates:normal;font-variant-caps:normal;font-variant-ligatures:normal;font-variant-numeric:normal;font-variant-position:normal;isolation:auto;mix-blend-mode:normal;shape-padding:0;text-decoration-color:#000;text-decoration-line:none;text-decoration-style:solid;text-indent:0;text-orientation:mixed;text-transform:none;white-space:normal"/></g><path d="M8.014 18.976v.078c0 .959-.484 1.73-1.084 1.73h.196c.6 0 1.084-.771 1.084-1.73v-.078z" fill="#295d99" paint-order="stroke fill markers"/></g><g paint-order="stroke fill markers"><path fill="#5d94d4" d="M5.745 22.177h26.532v1.524H5.745z"/><path fill="#306db3" d="M5.745 22.177h26.532v-.696H5.745z"/><path fill="#295d99" d="M4.644 21.482h28.734v-.696H4.644z"/></g><g transform="translate(-19.282 -43.02) scale(.41358)" paint-order="stroke fill markers"><path d="M117.45 139.7a.638.638 0 0 0-.888.171l-.016.024 2.64 1.786.017-.024a.638.638 0 0 0-.172-.888z" fill="#306db3"/><path d="M113.566 139.387c-.597 0-1.078.48-1.078 1.077v.049h5.372v-.049c0-.597-.48-1.077-1.078-1.077z" fill="#295d99"/><path d="M114 141.14c-.406 0-.733-.266-.733-.597v-.027h3.812v.027c0 .331-.327.597-.733.597z" fill="#fff"/><path d="M118.318 140.905a.198.198 0 0 0-.17.309l3.757 5.92-2.986 5.172a.199.199 0 1 0 .344.2l3.107-5.382-3.887-6.123a.198.198 0 0 0-.165-.096zm.773 0a.198.198 0 0 0-.17.309l3.758 5.92-2.986 5.172a.199.199 0 1 0 .343.2l3.107-5.382-3.886-6.123a.198.198 0 0 0-.166-.096z" color="#000" fill="#5d94d4" style="font-feature-settings:normal;font-variant-alternates:normal;font-variant-caps:normal;font-variant-ligatures:normal;font-variant-numeric:normal;font-variant-position:normal;isolation:auto;mix-blend-mode:normal;shape-padding:0;text-decoration-color:#000;text-decoration-line:none;text-decoration-style:solid;text-indent:0;text-orientation:mixed;text-transform:none;white-space:normal"/><rect x="117.56" y="140.67" width="2.195" height="1.092" ry=".546" fill="#295d99"/><rect x="121.27" y="146.72" width="2.179" height=".915" ry=".385" fill="#295d99"/><path d="M119.11 152.38c-1.003 0-1.81.807-1.81 1.81v.08h4.212v-.08c0-1.003-.807-1.81-1.81-1.81z" fill="#306db3"/><path d="M118.84 151.88c-.675 0-1.218.543-1.218 1.217v.055h3.564v-.055c0-.674-.543-1.217-1.218-1.217z" fill="#295d99"/></g></svg>