<svg xmlns="http://www.w3.org/2000/svg" width="405.392" height="136.399" viewBox="0 0 107.26 36.089"><g fill="#fff"><path d="M27.11.55c-7.284 0-8.65 10.374-4.553 10.374C26.653 10.924 34.393.55 27.109.55zM15.015 9.638c2.182.134 4.575-8.325.475-7.793-4.099.532-2.658 7.66-.475 7.793zM5.017 14.895c1.551-.683.2-7.364-2.439-5.542-2.637 1.822.887 6.224 2.439 5.542zM9.388 11.398c1.848-.377 1.949-7.953-1.345-6.594-3.295 1.36-.5 6.971 1.345 6.594zM19.034 28.353c.327 2.503-1.837 3.74-3.956 2.126-6.746-5.137 11.17-7.699 9.99-14.716-.981-5.825-18.852-4.031-20.887 5.082-1.378 6.164 5.67 14.716 13.024 14.716 3.618 0 7.79-3.266 8.571-7.405.597-3.155-7.016-1.89-6.742.197z"/><g><path d="M64.296 10.12c-1.834.049-3.282.708-4.347 1.972-1.104 1.316-1.658 3.133-1.658 5.452 0 2.311.555 4.124 1.658 5.44 1.108 1.315 2.63 1.972 4.571 1.972 1.946 0 3.472-.657 4.575-1.972 1.103-1.316 1.654-3.129 1.654-5.44 0-2.319-.55-4.136-1.654-5.452-1.103-1.316-2.629-1.973-4.575-1.973-.076 0-.15-.002-.224 0zm.137 2.67h.087c.957 0 1.699.414 2.223 1.244.525.83.79 2.002.79 3.51 0 1.5-.265 2.663-.79 3.494-.524.83-1.266 1.248-2.223 1.248-.952 0-1.687-.418-2.212-1.248-.524-.83-.789-1.994-.789-3.494 0-1.508.265-2.68.79-3.51.507-.804 1.215-1.219 2.124-1.244zM43.573 23.619c-1.615 1.357-4.019 1.341-5.02 1.341-2.017 0-3.615-.664-4.794-1.993-1.178-1.334-1.768-3.142-1.768-5.422 0-2.305.6-4.119 1.801-5.44 1.2-1.323 2.844-1.984 4.931-1.984.806 0 1.576.09 2.312.269a8.74 8.74 0 0 1 2.092.795l-.84 2.484a8.553 8.553 0 0 0-1.18-.54 6.254 6.254 0 0 0-2.002-.335c-1.244 0-2.204.412-2.88 1.236-.67.817-1.005 1.99-1.005 3.515 0 1.514.324 2.683.973 3.507.649.823 1.624 1.235 2.766 1.235 1.16 0 1.878-.292 2.261-.6v-2.475h-2.513v-2.471h4.867M45.71 10.386h1.97l6.225 8.596v-8.596h2.657v14.302h-1.97l-6.225-8.595v8.595H45.71V10.386M72.794 10.386h3.974l2.758 8.929 2.774-8.929h3.359l1.518 14.302h-2.953l-.91-8.943-2.79 8.986h-1.98l-2.79-9.29-.91 9.247h-2.96L73.4 10.386M89.317 10.386h8.427v2.788h-5.305v2.966h4.078v2.484h-4.078v3.277h5.483v2.787h-8.605V10.386"/><g aria-label="TM" font-size="30.69" font-family="Bitstream Vera Sans" stroke-width="1.333" letter-spacing=".252"><path d="M100.501 7.566h2.298v.31h-.964v2.406h-.37V7.875h-.964zM103.184 7.566h.548l.693 1.848.697-1.848h.547v2.716h-.358V7.897l-.7 1.863h-.37l-.7-1.863v2.385h-.357z"/></g></g><g aria-label="INDONESIA" style="line-height:75.18716431px;font-variant-ligatures:normal;font-variant-position:normal;font-variant-caps:normal;font-variant-numeric:normal;font-variant-alternates:normal;font-feature-settings:normal;text-indent:0;text-decoration-line:none;text-decoration-style:solid;text-decoration-color:#000;text-transform:none;text-orientation:mixed;white-space:normal;shape-padding:0" font-weight="700" font-size="72.909" font-family="Open Sans" letter-spacing="0" word-spacing="0" fill-rule="evenodd" stroke-width="5.669" stroke-linecap="round" stroke-linejoin="round" paint-order="markers stroke fill"><path d="M60.037 31.974V27.09h1.037v4.885zM66.638 31.974H65.32l-2.125-3.696h-.03q.063.98.063 1.397v2.3h-.926v-4.886h1.307l2.122 3.659h.024q-.05-.952-.05-1.347V27.09h.932zM71.922 29.485q0 1.206-.689 1.848-.685.641-1.982.641h-1.383V27.09h1.534q1.196 0 1.858.631.662.632.662 1.765zm-1.077.026q0-1.574-1.39-1.574h-.551v3.182h.444q1.497 0 1.497-1.608zM77.369 29.525q0 1.213-.602 1.865-.601.651-1.724.651t-1.725-.651q-.601-.652-.601-1.872 0-1.22.601-1.861.605-.645 1.732-.645 1.126 0 1.72.648.599.648.599 1.865zm-3.566 0q0 .819.31 1.233.312.414.93.414 1.24 0 1.24-1.647 0-1.651-1.233-1.651-.619 0-.933.418-.314.414-.314 1.233zM82.716 31.974H81.4l-2.125-3.696h-.03q.063.98.063 1.397v2.3h-.925v-4.886h1.306l2.122 3.659h.024q-.05-.952-.05-1.347V27.09h.932zM86.76 31.974h-2.814V27.09h2.814v.848h-1.778v1.073h1.654v.849h-1.654v1.26h1.778zM90.663 30.618q0 .661-.478 1.042-.474.381-1.323.381-.782 0-1.384-.294v-.962q.495.22.836.31.344.09.628.09.341 0 .522-.13.183-.13.183-.387 0-.144-.08-.254-.08-.114-.237-.217-.154-.104-.632-.331-.448-.21-.671-.405-.224-.194-.358-.45-.134-.258-.134-.602 0-.649.438-1.02.441-.37 1.217-.37.38 0 .725.09.347.09.725.254l-.334.805q-.391-.16-.649-.224-.254-.063-.5-.063-.295 0-.452.137-.157.137-.157.357 0 .137.063.24.064.101.2.198.141.094.66.34.684.328.938.66.254.327.254.805zM91.549 31.974V27.09h1.036v4.885zM96.806 31.974l-.354-1.163H94.67l-.354 1.163H93.2l1.724-4.906h1.267l1.731 4.906zm-.602-2.031l-.554-1.788q-.06-.208-.087-.328-.11.428-.632 2.116z"/></g></g></svg>