<svg xmlns="http://www.w3.org/2000/svg" width="102.599" height="34.52" viewBox="0 0 27.146 9.133"><g fill="#fff"><path d="M6.835.124C4.987.124 4.64 2.757 5.68 2.757c1.04 0 3.004-2.633 1.155-2.633zM3.766 2.431c.554.034 1.161-2.113.12-1.978-1.04.135-.674 1.944-.12 1.978zM1.228 3.765c.394-.173.051-1.869-.619-1.406-.669.462.226 1.58.62 1.406zM2.338 2.878c.469-.096.494-2.019-.342-1.674-.836.345-.127 1.77.342 1.674zM4.786 7.18c.083.636-.466.95-1.004.54C2.07 6.417 6.617 5.766 6.317 3.985c-.249-1.478-4.784-1.023-5.3 1.29C.666 6.84 2.454 9.01 4.321 9.01c.918 0 1.977-.829 2.175-1.879.152-.8-1.78-.48-1.711.05z"/><g><path d="M16.274 2.553c-.466.013-.833.18-1.104.5-.28.335-.42.796-.42 1.384 0 .587.14 1.047.42 1.381.282.334.668.5 1.16.5.495 0 .882-.166 1.162-.5.28-.334.42-.794.42-1.38 0-.589-.14-1.05-.42-1.384-.28-.334-.667-.5-1.161-.5h-.057zm.034.678h.023c.242 0 .43.105.564.316.133.21.2.508.2.89 0 .381-.067.676-.2.887a.632.632 0 0 1-.564.317.63.63 0 0 1-.562-.317c-.133-.21-.2-.506-.2-.887 0-.382.067-.68.2-.89a.628.628 0 0 1 .54-.316zM11.014 5.98c-.41.344-1.02.34-1.274.34-.512 0-.917-.169-1.217-.506-.299-.339-.448-.797-.448-1.376 0-.585.152-1.046.457-1.381.304-.336.721-.503 1.251-.503.205 0 .4.022.587.068.188.045.365.112.531.201l-.213.63a1.587 1.587 0 0 0-.808-.222c-.316.001-.56.106-.73.315-.171.207-.256.505-.256.892 0 .384.082.68.247.89.165.209.412.313.702.313.294 0 .477-.074.574-.152v-.628h-.638v-.627h1.235M11.556 2.62h.5l1.58 2.182V2.621h.675v3.63h-.5l-1.58-2.182v2.182h-.675V2.62M18.43 2.62h1.01l.7 2.267.703-2.266h.853l.385 3.63h-.75l-.23-2.27-.709 2.28h-.502l-.708-2.357-.231 2.347H18.2l.385-3.63M22.624 2.62h2.139v.708h-1.346v.753h1.035v.63h-1.035v.832h1.391v.708h-2.184V2.62"/><g aria-label="TM" font-size="30.69" font-family="Bitstream Vera Sans" stroke-width="1.333" letter-spacing=".252"><path d="M25.463 1.905h.583v.079H25.8v.61h-.094v-.61h-.244zM26.144 1.905h.139l.176.47.176-.47h.14v.69h-.092v-.606l-.177.473h-.094l-.178-.473v.605h-.09z"/></g></g><g aria-label="INDONESIA" style="line-height:75.18716431px;font-variant-ligatures:normal;font-variant-position:normal;font-variant-caps:normal;font-variant-numeric:normal;font-variant-alternates:normal;font-feature-settings:normal;text-indent:0;text-decoration-line:none;text-decoration-style:solid;text-decoration-color:#000;text-transform:none;text-orientation:mixed;white-space:normal;shape-padding:0" font-weight="700" font-size="72.909" font-family="Open Sans" letter-spacing="0" word-spacing="0" fill-rule="evenodd" stroke-width="5.669" stroke-linecap="round" stroke-linejoin="round" paint-order="markers stroke fill"><path d="M15.197 8.1V6.86h.262V8.1zM16.872 8.1h-.334l-.54-.938h-.008q.017.248.017.354V8.1h-.235V6.86h.331l.539.929h.006q-.013-.242-.013-.342V6.86h.237zM18.213 7.468q0 .306-.175.47-.174.162-.503.162h-.351V6.86h.39q.303 0 .47.16.169.16.169.448zm-.273.007q0-.4-.353-.4h-.14v.808h.113q.38 0 .38-.408zM19.595 7.478q0 .308-.152.474-.153.165-.438.165-.285 0-.438-.165-.152-.166-.152-.475 0-.31.152-.473.154-.164.44-.164.285 0 .436.165.152.165.152.473zm-.905 0q0 .208.08.313.078.105.235.105.315 0 .315-.418 0-.419-.313-.419-.157 0-.237.106-.08.105-.08.313zM20.952 8.1h-.334l-.54-.938h-.007q.016.248.016.354V8.1h-.235V6.86h.332l.539.929h.006q-.013-.242-.013-.342V6.86h.236zM21.979 8.1h-.714V6.86h.714v.215h-.451v.273h.42v.215h-.42v.32h.45zM22.97 7.756q0 .168-.122.264-.12.097-.336.097-.198 0-.35-.075v-.244q.125.056.211.079.088.023.16.023.086 0 .132-.033.047-.033.047-.099 0-.036-.02-.064-.021-.029-.061-.055-.039-.027-.16-.084-.114-.054-.17-.103-.058-.049-.092-.114-.033-.066-.033-.153 0-.165.11-.259.113-.094.31-.094.096 0 .183.023.089.023.185.065l-.085.204q-.1-.04-.165-.057-.064-.016-.127-.016-.075 0-.115.035-.04.035-.04.09 0 .035.017.062.016.025.05.05.036.023.168.086.174.083.238.167.064.083.064.205zM23.194 8.1V6.86h.263V8.1zM24.528 8.1l-.09-.295h-.452l-.09.295h-.283l.438-1.245h.321l.44 1.245zm-.152-.516l-.141-.453q-.015-.053-.022-.084-.028.109-.16.537z"/></g></g></svg>