<svg xmlns="http://www.w3.org/2000/svg" width="512" height="262" viewBox="0 0 135.467 69.321"><text style="line-height:1.25" x="171.95" y="140.085" font-weight="400" font-size="10.583" font-family="sans-serif" letter-spacing="0" word-spacing="0" stroke-width=".265" transform="translate(-15.788 -53.939)"/><path fill="#fff" paint-order="markers stroke fill" d="M0 0h135.467v69.321H0z"/><g stroke-width=".5"><path d="M23.558 27.443c2.568-2.054 2.774-2.978.154-6.01-.94-1.088 1.778-4.726 3.184 2.312.228 1.143 3.106-3.88 1.873-8-.7-2.339-3.304-4.057-2.18-5.511 1.388-1.798 4.358-1.755 5.392 2.517.802 3.312-.37 6.293.688 6.004 3.547-.968 1.318-3.559 3.13-4.177 2.305-.786 3.533 2.151 1.44 4.16-1.476 1.418-1.83 1.089-4.024 2.796-1.113.867-1.853 1.794-4.058 4.214-2.288 2.512-4.675 2.98-4.675 2.98z" fill="#333"/><path d="M22.222 27.443c-2.568-2.054-2.775-2.978-.154-6.01.94-1.088-1.779-4.726-3.185 2.312-.228 1.143-3.105-3.88-1.872-8 .7-2.339 3.303-4.057 2.18-5.511-1.389-1.798-4.359-1.755-5.393 2.517-.802 3.312.37 6.293-.687 6.004-3.548-.968-1.319-3.559-3.131-4.177-2.305-.786-3.532 2.151-1.44 4.16 1.476 1.418 1.83 1.089 4.024 2.796 1.113.867 1.854 1.794 4.058 4.214 2.289 2.512 4.675 2.98 4.675 2.98zm1.336 0c2.568-2.054 2.774-2.978.154-6.01-.94-1.088 1.778-4.726 3.184 2.312.228 1.143 3.106-3.88 1.873-8-.7-2.339-3.304-4.057-2.18-5.511 1.388-1.798 4.358-1.755 5.392 2.517.802 3.312-.37 6.293.688 6.004 3.547-.968 1.318-3.559 3.13-4.177 2.305-.786 3.533 2.151 1.44 4.16-1.476 1.418-1.83 1.089-4.024 2.796-1.113.867-1.853 1.794-4.058 4.214-2.288 2.512-4.675 2.98-4.675 2.98z" fill="#333"/><path d="M38.133 28.11c2.466 2.466-4.358 3.17-8.22 6.576-6.986 6.165 6.423 11.571 11.097 12.946 6.986 2.054 7.397 13.356-10.891 12.534-18.288-.822-20.277-9.278-18.083-17.466 4.04-15.074 7.905-15.732 13.768-16.233 6.77-.58 12.329 1.644 12.329 1.644z" fill="#cc6200"/><path d="M38.428 28.466c-11.454 2.825-26.537 9.552-23.886 26.911 2.736 2.617 7.565 4.43 15.577 4.79 18.288.821 17.877-10.48 10.89-12.535-4.673-1.375-18.082-6.781-11.096-12.946 3.669-3.237 10.006-4.034 8.515-6.22z" fill="#f57600"/><text style="line-height:1.25;-inkscape-font-specification:'Source Sans Pro Bold'" x="166.992" y="137.595" font-weight="700" font-size="3.181" font-family="Source Sans Pro" letter-spacing="0" word-spacing="0" stroke-width=".149" transform="matrix(2.00002 0 0 2.00002 -269.247 -216.276)"><tspan x="166.992" y="137.595" style="-inkscape-font-specification:'Source Sans Pro Bold'" dx="0" letter-spacing=".895">GRESIK</tspan></text><g stroke="#000" stroke-width=".099"><path d="M50.09 56.473h10.37M97.923 56.473h10.37" stroke-width=".22317372000000002"/></g><path d="M37.381 28.072c.618-.472 1.49-.218 1.635.29.146.51-.872 1.055-1.526.728-.654-.327-.109-1.018-.109-1.018zM22.222 27.443c-2.568-2.054-2.775-2.978-.154-6.01.94-1.088-1.779-4.726-3.185 2.312-.228 1.143-3.105-3.88-1.872-8 .7-2.339 3.303-4.057 2.18-5.511-1.389-1.798-4.359-1.755-5.393 2.517-.802 3.312.37 6.293-.687 6.004-3.548-.968-1.319-3.559-3.131-4.177-2.305-.786-3.532 2.151-1.44 4.16 1.476 1.418 1.83 1.089 4.024 2.796 1.113.867 1.854 1.794 4.058 4.214 2.289 2.512 4.675 2.98 4.675 2.98z" fill="#333"/><text y="130.314" x="181.677" style="line-height:5.25;-inkscape-font-specification:'sans-serif Bold'" font-weight="700" font-size="7.953" font-family="sans-serif" letter-spacing="0" word-spacing="0" stroke-width=".149" transform="matrix(2.00002 0 0 2.00002 -269.247 -216.276)"><tspan style="line-height:5.25;-inkscape-font-specification:'sans-serif Bold'" y="130.314" x="181.677"><tspan style="line-height:5.25;-inkscape-font-specification:'sans-serif Bold'" font-size="5.169"><tspan style="-inkscape-font-specification:'sans-serif Bold'" font-size="8.748">.</tspan>ASIA</tspan></tspan></text><g stroke-width="3.562" font-family="Bitstream Vera Sans"><path d="M63.845 31.354c-1.636.044-2.928.632-3.878 1.76-.984 1.173-1.478 2.794-1.478 4.861 0 2.062.494 3.68 1.478 4.852.989 1.174 2.346 1.76 4.077 1.76 1.736 0 3.097-.586 4.08-1.76.984-1.173 1.476-2.79 1.476-4.852 0-2.067-.492-3.688-1.475-4.862-.984-1.173-2.345-1.759-4.08-1.759-.068 0-.134-.002-.2 0zm.121 2.382h.078c.854 0 1.515.37 1.983 1.11.468.74.704 1.785.704 3.13 0 1.338-.236 2.375-.704 3.116-.468.74-1.13 1.113-1.983 1.113-.849 0-1.505-.373-1.972-1.113-.468-.74-.704-1.778-.704-3.117 0-1.344.236-2.389.704-3.13.453-.717 1.084-1.087 1.894-1.109zM45.366 43.39c-1.44 1.21-3.584 1.197-4.477 1.197-1.799 0-3.224-.593-4.275-1.777-1.052-1.19-1.577-2.803-1.577-4.836 0-2.056.535-3.674 1.606-4.853 1.07-1.179 2.536-1.768 4.398-1.768.718 0 1.405.08 2.061.24.66.159 1.283.395 1.866.708l-.749 2.216a7.628 7.628 0 0 0-1.052-.481 5.578 5.578 0 0 0-1.786-.3c-1.11 0-1.966.368-2.568 1.103-.598.729-.897 1.774-.897 3.135 0 1.35.29 2.392.868 3.127.578.735 1.448 1.102 2.466 1.102 1.035 0 1.676-.26 2.017-.535V39.46h-2.24v-2.205h4.34M47.27 31.584h1.757l5.552 7.665v-7.665h2.37v12.755H55.19l-5.552-7.666v7.666h-2.37V31.584M71.428 31.584h3.544l2.46 7.963 2.473-7.963h2.996l1.354 12.755h-2.633l-.812-7.976-2.489 8.014h-1.765l-2.488-8.285-.812 8.247h-2.64l1.353-12.755M86.155 31.584h7.516v2.486h-4.73v2.646h3.636v2.215H88.94v2.922h4.89v2.486h-7.675V31.584" style="line-height:125%;text-align:start" font-weight="700" font-size="148.7"/><text x="4474.618" y="1215.743" font-weight="400" font-size="30.69" stroke-width="4.749" transform="translate(-388.328 -100.135) scale(.10827)"><tspan x="4474.618" y="1215.743" letter-spacing="11.063"><tspan letter-spacing=".252">TM</tspan></tspan></text></g><text y="133.835" x="158.84" style="line-height:5.25" font-weight="400" font-size="7.953" font-family="sans-serif" letter-spacing="0" word-spacing="0" fill="#f57600" stroke-width=".149" paint-order="markers stroke fill" transform="matrix(2.00002 0 0 2.00002 -269.247 -216.276)"><tspan style="line-height:5.25;-inkscape-font-specification:Karumbi" y="133.835" x="158.84" font-family="Karumbi">Summit 2019</tspan></text></g></svg>